{
.appVersion = "3205";
.formatVersion = 3;
DisplayStrings = (
"𑈿/qa_iMatra-khoj/qa_iiMatra-khoj/qa_uMatra-khoj/q_ra_uMatra-khoj 
𑈈/ka_iMatra-khoj/ka_iiMatra-khoj/ka_uMatra-khoj/k_ra_uMatra-khoj",
"𑈷 ",
"𑈶",
"𑈾",
"/rakar_umatra . 𑈯𑈰"
);
axes = (
{
name = Weight;
tag = wght;
}
);
classes = (
{
code = "iMatra-khoj iiMatra-khoj uMatra-khoj";
name = VOWELS;
},
{
code = "ka_iMatra-khoj qa_iMatra-khoj k_ssa_iMatra-khoj k_ssa_ra_iMatra-khoj kha_iMatra-khoj kh_ra_iMatra-khoj ga_iMatra-khoj g_ra_iMatra-khoj g_na_iMatra-khoj g_na_ra_iMatra-khoj gga_iMatra-khoj gg_ra_iMatra-khoj gha_iMatra-khoj nga_iMatra-khoj ca_iMatra-khoj c_ra_iMatra-khoj cha_iMatra-khoj ja_iMatra-khoj j_ra_iMatra-khoj jja_iMatra-khoj jj_ra_iMatra-khoj nya_iMatra-khoj tta_iMatra-khoj ttha_iMatra-khoj dda_iMatra-khoj dd_ra_iMatra-khoj ddha_iMatra-khoj nna_iMatra-khoj nn_ra_iMatra-khoj ta_iMatra-khoj t_ra_iMatra-khoj tha_iMatra-khoj da_iMatra-khoj d_ra_iMatra-khoj ddda_iMatra-khoj dha_iMatra-khoj dh_ra_iMatra-khoj na_iMatra-khoj n_ra_iMatra-khoj pa_iMatra-khoj pha_iMatra-khoj ba_iMatra-khoj b_ra_iMatra-khoj bba_iMatra-khoj bb_ra_iMatra-khoj bha_iMatra-khoj bh_ra_iMatra-khoj ma_iMatra-khoj m_ra_iMatra-khoj ya_iMatra-khoj y_ra_iMatra-khoj ra_iMatra-khoj la_iMatra-khoj l_ra_iMatra-khoj va_iMatra-khoj v_ra_iMatra-khoj sa_iMatra-khoj s_ra_iMatra-khoj sha_iMatra-khoj ha_iMatra-khoj h_ra_iMatra-khoj lla_iMatra-khoj yakar_iMatra-khoj 
iMatra-khoj";
name = IMATRA;
},
{

glyphs = (
{
glyphname = .notdef;
lastChange = "2023-06-05 09:48:09 +0000";
layers = (
{
layerId = "0717401B-DDB5-4983-85F2-A81AFE530D5E";
shapes = (
{
closed = 1;
nodes = (
(505,0,l),
(505,714,l),
(94,714,l),
(94,0,l)
);
},
{
closed = 1;
nodes = (
(145,663,l),
(454,663,l),
(454,51,l),
(145,51,l)
);
}
);
width = 600;
},
{
layerId = "A430B39A-257A-41FC-BEA9-652C696FFEF7";
shapes = (
{
closed = 1;
nodes = (
(505,0,l),
(505,714,l),
(94,714,l),
(94,0,l)
);
},
{
closed = 1;
nodes = (
(145,663,l),
(454,663,l),
(454,51,l),
(145,51,l)
);
}
);
width = 600;
}
);
note = ".notdef";
},
{
category = Letter;
glyphname = uni25CC;
lastChange = "2023-06-05 09:48:09 +0000";
layers = (
{
anchors = (
{
name = bottom;
pos = (298,0);
},
{
name = nukta;
pos = (297,540);
},
{
name = top;
pos = (544,610);
}
);
layerId = "0717401B-DDB5-4983-85F2-A81AFE530D5E";
shapes = (
{
closed = 1;
nodes = (
(469,423,o),
(481,435,o),
(481,449,cs),
(481,463,o),
(469,475,o),
(455,475,cs),
(441,475,o),
(429,463,o),
(429,449,cs),
(429,435,o),
(441,423,o),
(455,423,cs)
);
},
{
closed = 1;
nodes = (
(153,107,o),
(165,119,o),
(165,133,cs),
(165,147,o),
(153,159,o),
(139,159,cs),
(125,159,o),
(113,147,o),
(113,133,cs),
(113,119,o),
(125,107,o),
(139,107,cs)
);
},
{
closed = 1;
nodes = (
(106,181,o),
(118,193,o),
(118,207,cs),
(118,221,o),
(106,233,o),
(92,233,cs),
(78,233,o),
(66,221,o),
(66,207,cs),
(66,193,o),
(78,181,o),
(92,181,cs)
);
},
{
closed = 1;
nodes = (
(227,60,o),
(239,72,o),
(239,86,cs),
(239,100,o),
(227,112,o),
(213,112,cs),
(199,112,o),
(187,100,o),
(187,86,cs),
(187,72,o),
(199,60,o),
(213,60,cs)
);
},
{
closed = 1;
nodes = (
(88,265,o),
(100,277,o),
(100,291,cs),
(100,305,o),
(88,317,o),
(74,317,cs),
(60,317,o),
(48,305,o),
(48,291,cs),
(48,277,o),
(60,265,o),
(74,265,cs)
);
},
{
closed = 1;
nodes = (
(311,42,o),
(323,54,o),
(323,68,cs),
(323,82,o),
(311,94,o),
(297,94,cs),
(283,94,o),
(271,82,o),
(271,68,cs),
(271,54,o),
(283,42,o),
(297,42,cs)
);
},
{
closed = 1;
nodes = (
(106,349,o),
(118,361,o),
(118,375,cs),
(118,389,o),
(106,401,o),
(92,401,cs),
(78,401,o),
(66,389,o),
(66,375,cs),
(66,361,o),
(78,349,o),
(92,349,cs)
);
},
{
closed = 1;
nodes = (
(395,60,o),
(407,72,o),
(407,86,cs),
(407,100,o),
(395,112,o),
(381,112,cs),
(367,112,o),
(355,100,o),
(355,86,cs),
(355,72,o),
(367,60,o),
(381,60,cs)
);
},
{
closed = 1;
nodes = (
(153,423,o),
(165,435,o),
(165,449,cs),
(165,463,o),
(153,475,o),
(139,475,cs),
(125,475,o),
(113,463,o),
(113,449,cs),
(113,435,o),
(125,423,o),
(139,423,cs)
);
},
{
closed = 1;
nodes = (
(469,107,o),
(481,119,o),
(481,133,cs),
(481,147,o),
(469,159,o),
(455,159,cs),
(441,159,o),
(429,147,o),
(429,133,cs),
(429,119,o),
(441,107,o),
(455,107,cs)
);
},
{
closed = 1;
nodes = (
(227,470,o),
(239,482,o),
(239,496,cs),
(239,510,o),
(227,522,o),
(213,522,cs),
(199,522,o),
(187,510,o),
(187,496,cs),
(187,482,o),
(199,470,o),
(213,470,cs)
);
},
{
closed = 1;
nodes = (
(516,181,o),
(528,193,o),
(528,207,cs),
(528,221,o),
(516,233,o),
(502,233,cs),
(488,233,o),
(476,221,o),
(476,207,cs),
(476,193,o),
(488,181,o),
(502,181,cs)
);
},
{
closed = 1;
nodes = (
(311,488,o),
(323,500,o),
(323,514,cs),
(323,528,o),
(311,540,o),
(297,540,cs),
(283,540,o),
(271,528,o),
(271,514,cs),
(271,500,o),
(283,488,o),
(297,488,cs)
);
},
{
closed = 1;
nodes = (
(534,265,o),
(546,277,o),
(546,291,cs),
(546,305,o),
(534,317,o),
(520,317,cs),
(506,317,o),
(494,305,o),
(494,291,cs),
(494,277,o),
(506,265,o),
(520,265,cs)
);
},
{
closed = 1;
nodes = (
(395,470,o),
(407,482,o),
(407,496,cs),
(407,510,o),
(395,522,o),
(381,522,cs),
(367,522,o),
(355,510,o),
(355,496,cs),
(355,482,o),
(367,470,o),
(381,470,cs)
);
},
{
closed = 1;
nodes = (
(516,349,o),
(528,361,o),
(528,375,cs),
(528,389,o),
(516,401,o),
(502,401,cs),
(488,401,o),
(476,389,o),
(476,375,cs),
(476,361,o),
(488,349,o),
(502,349,cs)
);
}
);
width = 594;
},
{
anchors = (
{
name = bottom;
pos = (298,0);
},
{
name = nukta;
pos = (297,540);
},
{
name = top;
pos = (544,610);
}
);
layerId = "A430B39A-257A-41FC-BEA9-652C696FFEF7";
shapes = (
{
closed = 1;
nodes = (
(469,423,o),
(481,435,o),
(481,449,cs),
(481,463,o),
(469,475,o),
(455,475,cs),
(441,475,o),
(429,463,o),
(429,449,cs),
(429,435,o),
(441,423,o),
(455,423,cs)
);
},
{
closed = 1;
nodes = (
(153,107,o),
(165,119,o),
(165,133,cs),
(165,147,o),
(153,159,o),
(139,159,cs),
(125,159,o),
(113,147,o),
(113,133,cs),
(113,119,o),
(125,107,o),
(139,107,cs)
);
},
{
closed = 1;
nodes = (
(106,181,o),
(118,193,o),
(118,207,cs),
(118,221,o),
(106,233,o),
(92,233,cs),
(78,233,o),
(66,221,o),
(66,207,cs),
(66,193,o),
(78,181,o),
(92,181,cs)
);
},
{
closed = 1;
nodes = (
(227,60,o),
(239,72,o),
(239,86,cs),
(239,100,o),
(227,112,o),
(213,112,cs),
(199,112,o),
(187,100,o),
(187,86,cs),
(187,72,o),
(199,60,o),
(213,60,cs)
);
},
{
closed = 1;
nodes = (
(88,265,o),
(100,277,o),
(100,291,cs),
(100,305,o),
(88,317,o),
(74,317,cs),
(60,317,o),
(48,305,o),
(48,291,cs),
(48,277,o),
(60,265,o),
(74,265,cs)
);
},
{
closed = 1;
nodes = (
(311,42,o),
(323,54,o),
(323,68,cs),
(323,82,o),
(311,94,o),
(297,94,cs),
(283,94,o),
(271,82,o),
(271,68,cs),
(271,54,o),
(283,42,o),
(297,42,cs)
);
},
{
closed = 1;
nodes = (
(106,349,o),
(118,361,o),
(118,375,cs),
(118,389,o),
(106,401,o),
(92,401,cs),
(78,401,o),
(66,389,o),
(66,375,cs),
(66,361,o),
(78,349,o),
(92,349,cs)
);
},
{
closed = 1;
nodes = (
(395,60,o),
(407,72,o),
(407,86,cs),
(407,100,o),
(395,112,o),
(381,112,cs),
(367,112,o),
(355,100,o),
(355,86,cs),
(355,72,o),
(367,60,o),
(381,60,cs)
);
},
{
closed = 1;
nodes = (
(153,423,o),
(165,435,o),
(165,449,cs),
(165,463,o),
(153,475,o),
(139,475,cs),
(125,475,o),
(113,463,o),
(113,449,cs),
(113,435,o),
(125,423,o),
(139,423,cs)
);
},
{
closed = 1;
nodes = (
(469,107,o),
(481,119,o),
(481,133,cs),
(481,147,o),
(469,159,o),
(455,159,cs),
(441,159,o),
(429,147,o),
(429,133,cs),
(429,119,o),
(441,107,o),
(455,107,cs)
);
},
{
closed = 1;
nodes = (
(227,470,o),
(239,482,o),
(239,496,cs),
(239,510,o),
(227,522,o),
(213,522,cs),
(199,522,o),
(187,510,o),
(187,496,cs),
(187,482,o),
(199,470,o),
(213,470,cs)
);
},
{
closed = 1;
nodes = (
(516,181,o),
(528,193,o),
(528,207,cs),
(528,221,o),
(516,233,o),
(502,233,cs),
(488,233,o),
(476,221,o),
(476,207,cs),
(476,193,o),
(488,181,o),
(502,181,cs)
);
},
{
closed = 1;
nodes = (
(311,488,o),
(323,500,o),
(323,514,cs),
(323,528,o),
(311,540,o),
(297,540,cs),
(283,540,o),
(271,528,o),
(271,514,cs),
(271,500,o),
(283,488,o),
(297,488,cs)
);
},
{
closed = 1;
nodes = (
(534,265,o),
(546,277,o),
(546,291,cs),
(546,305,o),
(534,317,o),
(520,317,cs),
(506,317,o),
(494,305,o),
(494,291,cs),
(494,277,o),
(506,265,o),
(520,265,cs)
);
},
{
closed = 1;
nodes = (
(395,470,o),
(407,482,o),
(407,496,cs),
(407,510,o),
(395,522,o),
(381,522,cs),
(367,522,o),
(355,510,o),
(355,496,cs),
(355,482,o),
(367,470,o),
(381,470,cs)
);
},
{
closed = 1;
nodes = (
(516,349,o),
(528,361,o),
(528,375,cs),
(528,389,o),
(516,401,o),
(502,401,cs),
(488,401,o),
(476,389,o),
(476,375,cs),
(476,361,o),
(488,349,o),
(502,349,cs)
);
}
);
width = 594;
}
);
note = uni25CC;
unicode = 9676;
},
{
category = Number;
glyphname = "zero-khoj";
kernLeft = ZERO;
kernRight = ZERO;
lastChange = "2023-06-05 09:48:09 +0000";
layers = (
{
layerId = "0717401B-DDB5-4983-85F2-A81AFE530D5E";
shapes = (
{
closed = 1;
nodes = (
(402,89,o),
(493,177,o),
(493,300,cs),
(493,420,o),
(384,527,o),
(268,527,cs),
(145,527,o),
(55,433,o),
(55,309,cs),
(55,184,o),
(176,89,o),
(280,89,cs)
);
},
{
closed = 1;
nodes = (
(183,164,o),
(136,206,o),
(136,277,cs),
(136,371,o),
(218,449,o),
(305,449,cs),
(365,449,o),
(414,407,o),
(414,332,cs),
(414,244,o),
(336,164,o),
(247,164,cs)
);
}
);
width = 548;
},
{
layerId = "A430B39A-257A-41FC-BEA9-652C696FFEF7";
shapes = (
{
closed = 1;
nodes = (
(435,58,o),
(540,161,o),
(540,298,cs),
(540,432,o),
(423,554,o),
(287,554,cs),
(145,554,o),
(40,447,o),
(40,307,cs),
(40,175,o),
(162,58,o),
(294,58,cs)
);
},
{
closed = 1;
nodes = (
(197,167,o),
(158,201,o),
(158,260,cs),
(158,347,o),
(243,440,o),
(335,440,cs),
(388,440,o),
(423,404,o),
(423,346,cs),
(423,259,o),
(342,167,o),
(249,167,cs)
);
}
);
width = 580;
}
);
note = uni0AE6;
script = gujarati;
unicode = 2790;
},
{
category = Number;
glyphname = "one-khoj";
kernLeft = ONE;
kernRight = PA;
lastChange = "2023-06-05 09:48:09 +0000";
layers = (
{
layerId = "0717401B-DDB5-4983-85F2-A81AFE530D5E";
shapes = (
{
closed = 1;
nodes = (
(424,0,o),
(467,29,o),
(467,71,cs),
(467,96,o),
(439,117,o),
(404,128,c),
(395,68,o),
(379,49,o),
(362,49,cs),
(351,49,o),
(341,56,o),
(341,89,cs),
(341,194,o),
(354,338,o),
(354,423,cs),
(354,533,o),
(262,603,o),
(182,603,cs),
(102,603,o),
(30,534,o),
(30,452,cs),
(30,362,o),
(115,287,o),
(195,287,cs),
(227,287,o),
(254,299,o),
(280,317,c),
(268,330,l),
(263,244,o),
(258,173,o),
(258,116,cs),
(258,52,o),
(317,0,o),
(378,0,cs)
);
},
{
closed = 1;
nodes = (
(134,344,o),
(104,368,o),
(104,414,cs),
(104,477,o),
(159,535,o),
(218,535,cs),
(257,535,o),
(285,509,o),
(285,466,cs),
(285,412,o),
(241,344,o),
(174,344,cs)
);
}
);
width = 477;
},
{
layerId = "A430B39A-257A-41FC-BEA9-652C696FFEF7";
shapes = (
{
closed = 1;
nodes = (
(479,-14,o),
(526,21,o),
(526,69,cs),
(526,102,o),
(494,130,o),
(442,144,c),
(437,93,o),
(421,60,o),
(402,60,cs),
(388,60,o),
(382,72,o),
(382,107,cs),
(382,218,o),
(396,332,o),
(396,418,cs),
(396,530,o),
(306,625,o),
(194,625,cs),
(92,625,o),
(14,547,o),
(14,450,cs),
(14,348,o),
(103,257,o),
(207,257,cs),
(240,257,o),
(267,266,o),
(285,276,c),
(262,294,l),
(259,248,o),
(256,173,o),
(256,127,cs),
(256,53,o),
(330,-14,o),
(414,-14,cs)
);
},
{
closed = 1;
nodes = (
(148,354,o),
(122,376,o),
(122,412,cs),
(122,467,o),
(175,516,o),
(231,516,cs),
(268,516,o),
(290,492,o),
(290,456,cs),
(290,406,o),
(243,354,o),
(183,354,cs)
);
}
);
width = 521;
}
);
metricRight = "five-khoj";
note = uni0AE7;
script = gujarati;
unicode = 2791;
},
{
category = Number;
glyphname = "two-khoj";
kernLeft = TWO;
kernRight = TWO;
lastChange = "2023-06-05 09:48:09 +0000";
layers = (
{
anchors = (
{
name = colon;
pos = (484,315);
}
);
layerId = "0717401B-DDB5-4983-85F2-A81AFE530D5E";
shapes = (
{
closed = 1;
nodes = (
(227,209,o),
(288,231,o),
(335,270,cs),
(381,308,o),
(411,357,o),
(411,416,cs),
(411,506,o),
(327,602,o),
(196,602,cs),
(112,602,o),
(40,563,o),
(40,518,cs),
(40,497,o),
(60,476,o),
(79,457,c),
(128,505,o),
(197,532,o),
(249,532,cs),
(313,532,o),
(342,495,o),
(342,448,cs),
(342,373,o),
(268,307,o),
(189,297,c),
(223,266,l),
(212,300,o),
(192,365,o),
(154,365,cs),
(112,365,o),
(73,310,o),
(73,279,cs),
(73,243,o),
(119,209,o),
(177,209,cs)
);
},
{
closed = 1;
nodes = (
(399,0,o),
(456,19,o),
(456,55,cs),
(456,72,o),
(448,101,o),
(433,119,c),
(406,100,o),
(373,88,o),
(328,88,cs),
(263,88,o),
(230,138,o),
(221,242,c),
(173,225,l),
(204,71,o),
(256,0,o),
(353,0,cs)
);
}
);
width = 501;
},
{
anchors = (
{
name = colon;
pos = (508,315);
}
);
layerId = "A430B39A-257A-41FC-BEA9-652C696FFEF7";
shapes = (
{
closed = 1;
nodes = (
(243,186,o),
(314,210,o),
(366,250,cs),
(424,294,o),
(452,352,o),
(452,413,cs),
(452,527,o),
(343,621,o),
(203,621,cs),
(105,621,o),
(25,584,o),
(25,524,cs),
(25,489,o),
(47,460,o),
(87,429,c),
(138,476,o),
(210,513,o),
(273,513,cs),
(323,513,o),
(347,487,o),
(347,451,cs),
(347,389,o),
(282,336,o),
(208,323,c),
(244,304,l),
(225,356,o),
(204,387,o),
(166,387,cs),
(117,387,o),
(62,325,o),
(62,276,cs),
(62,227,o),
(118,186,o),
(189,186,cs)
);
},
{
closed = 1;
nodes = (
(440,-18,o),
(501,5,o),
(501,59,cs),
(501,90,o),
(482,125,o),
(460,145,c),
(428,122,o),
(395,111,o),
(351,111,cs),
(286,111,o),
(261,147,o),
(251,255,c),
(174,225,l),
(209,61,o),
(268,-18,o),
(378,-18,cs)
);
}
);
width = 531;
}
);
note = uni0AE8;
script = gujarati;
unicode = 2792;
},
{
category = Number;
glyphname = "three-khoj";
kernLeft = THREE;
kernRight = THREE;
lastChange = "2023-06-05 09:48:09 +0000";
layers = (
{
anchors = (
{
name = colon;
pos = (516,315);
}
);
layerId = "0717401B-DDB5-4983-85F2-A81AFE530D5E";
shapes = (
{
closed = 1;
nodes = (
(392,-2,o),
(468,66,o),
(468,159,cs),
(468,221,o),
(420,280,o),
(361,318,c),
(323,296,l),
(367,271,o),
(388,239,o),
(388,196,cs),
(388,126,o),
(332,83,o),
(257,83,cs),
(168,83,o),
(108,161,o),
(77,264,c),
(69,265,l),
(45,216,l),
(79,99,o),
(169,-2,o),
(294,-2,cs)
);
},
{
closed = 1;
nodes = (
(337,272,o),
(430,332,o),
(430,423,cs),
(430,504,o),
(347,602,o),
(216,602,cs),
(132,602,o),
(60,563,o),
(60,518,cs),
(60,497,o),
(80,476,o),
(99,457,c),
(148,505,o),
(217,532,o),
(269,532,cs),
(334,532,o),
(360,495,o),
(360,455,cs),
(360,385,o),
(267,351,o),
(171,341,c),
(167,334,l),
(177,311,o),
(197,281,o),
(215,261,c)
);
}
);
width = 513;
},
{
anchors = (
{
name = colon;
pos = (542,315);
}
);
layerId = "A430B39A-257A-41FC-BEA9-652C696FFEF7";
shapes = (
{
closed = 1;
nodes = (
(435,-16,o),
(510,58,o),
(510,159,cs),
(510,234,o),
(458,290,o),
(373,333,c),
(308,302,l),
(373,279,o),
(393,252,o),
(393,208,cs),
(393,149,o),
(346,112,o),
(273,112,cs),
(193,112,o),
(127,161,o),
(80,284,c),
(69,285,l),
(34,218,l),
(84,75,o),
(181,-16,o),
(316,-16,cs)
);
},
{
closed = 1;
nodes = (
(371,250,o),
(476,314,o),
(476,417,cs),
(476,529,o),
(366,621,o),
(226,621,cs),
(128,621,o),
(48,584,o),
(48,524,cs),
(48,489,o),
(70,460,o),
(110,429,c),
(161,476,o),
(233,513,o),
(296,513,cs),
(345,513,o),
(363,490,o),
(363,463,cs),
(363,401,o),
(266,369,o),
(166,353,c),
(161,341,l),
(173,313,o),
(207,262,o),
(235,235,c)
);
}
);
width = 541;
}
);
note = uni0AE9;
script = gujarati;
unicode = 2793;
},
{
category = Number;
glyphname = "four-khoj";
kernLeft = FOUR;
kernRight = FOUR;
lastChange = "2023-06-05 09:48:09 +0000";
layers = (
{
layerId = "0717401B-DDB5-4983-85F2-A81AFE530D5E";
shapes = (
{
closed = 1;
nodes = (
(401,-2,o),
(463,82,o),
(463,151,cs),
(463,214,o),
(430,250,o),
(359,334,cs),
(241,475,ls),
(180,547,o),
(128,602,o),
(78,602,cs),
(47,602,o),
(20,585,o),
(20,556,cs),
(20,533,o),
(31,509,o),
(43,490,c),
(69,507,o),
(93,514,o),
(111,514,cs),
(144,514,o),
(166,493,o),
(222,426,cs),
(318,311,ls),
(355,266,o),
(377,229,o),
(377,186,cs),
(377,120,o),
(321,71,o),
(262,71,cs),
(214,71,o),
(183,103,o),
(183,147,cs),
(183,189,o),
(217,229,o),
(255,268,cs),
(489,509,l),
(468,609,l),
(460,611,l),
(185,327,ls),
(137,277,o),
(101,233,o),
(101,179,cs),
(101,107,o),
(185,-2,o),
(300,-2,cs)
);
}
);
width = 544;
},
{
layerId = "A430B39A-257A-41FC-BEA9-652C696FFEF7";
shapes = (
{
closed = 1;
nodes = (
(423,-13,o),
(502,65,o),
(502,156,cs),
(502,230,o),
(456,272,o),
(379,360,cs),
(266,489,ls),
(181,587,o),
(142,624,o),
(86,624,cs),
(37,624,o),
(5,594,o),
(5,552,cs),
(5,523,o),
(20,488,o),
(45,459,c),
(80,479,o),
(107,489,o),
(131,489,cs),
(169,489,o),
(199,462,o),
(243,412,cs),
(339,301,ls),
(364,272,o),
(377,248,o),
(377,213,cs),
(377,155,o),
(324,90,o),
(266,90,cs),
(232,90,o),
(209,118,o),
(209,151,cs),
(209,187,o),
(232,225,o),
(284,270,cs),
(532,485,l),
(500,630,l),
(485,632,l),
(178,358,ls),
(127,313,o),
(87,273,o),
(87,198,cs),
(87,91,o),
(203,-13,o),
(316,-13,cs)
);
}
);
width = 568;
}
);
note = uni0AEA;
script = gujarati;
unicode = 2794;
},
{
category = Number;
glyphname = "five-khoj";
kernLeft = PA;
kernRight = PA;
lastChange = "2023-06-05 09:48:09 +0000";
layers = (
{
layerId = "0717401B-DDB5-4983-85F2-A81AFE530D5E";
shapes = (
{
closed = 1;
nodes = (
(545,0,o),
(588,29,o),
(588,71,cs),
(588,96,o),
(560,117,o),
(525,128,c),
(516,68,o),
(500,49,o),
(483,49,cs),
(472,49,o),
(462,56,o),
(462,89,cs),
(462,228,o),
(471,383,o),
(483,547,c),
(459,568,o),
(428,585,o),
(391,600,c),
(391,414,ls),
(391,303,o),
(334,268,o),
(279,268,cs),
(234,268,o),
(218,291,o),
(218,327,cs),
(218,362,o),
(221,404,o),
(221,471,cs),
(221,536,o),
(142,602,o),
(61,602,cs),
(21,602,o),
(-15,587,o),
(-15,550,cs),
(-15,530,o),
(-2,507,o),
(20,488,c),
(39,512,o),
(72,543,o),
(96,543,cs),
(113,543,o),
(121,530,o),
(125,499,cs),
(129,471,o),
(129,428,o),
(130,369,cs),
(132,278,o),
(222,213,o),
(293,213,cs),
(329,213,o),
(372,222,o),
(392,237,c),
(383,246,l),
(380,190,o),
(377,141,o),
(377,109,cs),
(377,62,o),
(433,0,o),
(499,0,cs)
);
}
);
width = 598;
},
{
layerId = "A430B39A-257A-41FC-BEA9-652C696FFEF7";
shapes = (
{
closed = 1;
nodes = (
(627,-14,o),
(674,21,o),
(674,69,cs),
(674,102,o),
(642,130,o),
(590,144,c),
(585,93,o),
(569,60,o),
(550,60,cs),
(536,60,o),
(530,72,o),
(530,107,cs),
(530,226,o),
(540,403,o),
(555,556,c),
(523,584,o),
(483,604,o),
(418,621,c),
(418,431,ls),
(418,326,o),
(378,278,o),
(319,278,cs),
(288,278,o),
(272,293,o),
(272,330,cs),
(272,362,o),
(276,404,o),
(276,459,cs),
(276,553,o),
(163,622,o),
(75,622,cs),
(11,622,o),
(-25,593,o),
(-25,547,cs),
(-25,514,o),
(-5,482,o),
(40,464,c),
(62,501,o),
(91,532,o),
(111,532,cs),
(125,532,o),
(131,518,o),
(133,497,cs),
(136,466,o),
(133,428,o),
(135,380,cs),
(139,282,o),
(241,195,o),
(352,195,cs),
(377,195,o),
(401,199,o),
(427,213,c),
(411,222,l),
(408,182,o),
(406,149,o),
(406,119,cs),
(406,53,o),
(478,-14,o),
(562,-14,cs)
);
}
);
width = 669;
}
);
metricLeft = "pa-khoj";
metricRight = "pa-khoj";
note = uni0AEB;
script = gujarati;
unicode = 2795;
},
{
category = Number;
glyphname = "six-khoj";
kernLeft = SIX;
kernRight = SIX;
lastChange = "2023-06-05 09:48:09 +0000";
layers = (
{
layerId = "0717401B-DDB5-4983-85F2-A81AFE530D5E";
shapes = (
{
closed = 1;
nodes = (
(383,-99,o),
(435,-33,o),
(435,18,cs),
(435,58,o),
(401,85,o),
(369,110,cs),
(342,131,o),
(316,152,o),
(316,177,cs),
(316,215,o),
(378,247,o),
(429,262,c),
(433,270,l),
(426,291,o),
(394,330,o),
(367,345,c),
(302,325,o),
(233,275,o),
(233,209,cs),
(233,176,o),
(265,147,o),
(295,117,cs),
(321,91,o),
(348,67,o),
(348,42,cs),
(348,6,o),
(313,-22,o),
(260,-22,cs),
(203,-22,o),
(156,17,o),
(117,84,c),
(108,82,l),
(105,20,l),
(150,-50,o),
(216,-99,o),
(292,-99,cs)
);
},
{
closed = 1;
nodes = (
(265,179,o),
(276,180,o),
(286,183,c),
(268,276,l),
(245,268,o),
(224,265,o),
(206,265,cs),
(142,265,o),
(111,300,o),
(111,339,cs),
(111,398,o),
(178,440,o),
(236,470,cs),
(275,490,o),
(310,509,o),
(310,537,cs),
(310,569,o),
(279,602,o),
(253,618,c),
(230,591,o),
(204,569,o),
(178,548,cs),
(102,487,o),
(50,445,o),
(50,360,cs),
(50,261,o),
(152,179,o),
(255,179,cs)
);
}
);
width = 475;
},
{
layerId = "A430B39A-257A-41FC-BEA9-652C696FFEF7";
shapes = (
{
closed = 1;
nodes = (
(416,-121,o),
(481,-62,o),
(481,7,cs),
(481,56,o),
(448,83,o),
(406,112,cs),
(368,138,o),
(353,151,o),
(353,171,cs),
(353,199,o),
(389,231,o),
(467,252,c),
(473,264,l),
(458,304,o),
(414,357,o),
(384,372,c),
(277,339,o),
(224,265,o),
(224,214,cs),
(224,174,o),
(251,153,o),
(293,123,cs),
(322,102,o),
(350,82,o),
(350,58,cs),
(350,27,o),
(312,2,o),
(262,2,cs),
(216,2,o),
(161,25,o),
(115,103,c),
(101,100,l),
(97,14,l),
(153,-72,o),
(228,-121,o),
(319,-121,cs)
);
},
{
closed = 1;
nodes = (
(283,156,o),
(305,159,o),
(322,165,c),
(296,306,l),
(269,289,o),
(230,278,o),
(200,278,cs),
(159,278,o),
(128,297,o),
(128,336,cs),
(128,386,o),
(201,419,o),
(259,450,cs),
(317,481,o),
(347,498,o),
(347,535,cs),
(347,577,o),
(310,624,o),
(260,649,c),
(241,618,o),
(218,599,o),
(175,565,cs),
(92,499,o),
(35,456,o),
(35,371,cs),
(35,253,o),
(142,156,o),
(262,156,cs)
);
}
);
width = 506;
}
);
note = uni0AEC;
script = gujarati;
unicode = 2796;
},
{
category = Letter;
glyphname = "six-khoj.alt";
kernLeft = SIX;
kernRight = SIX;
lastChange = "2023-06-05 09:48:09 +0000";
layers = (
{
layerId = "0717401B-DDB5-4983-85F2-A81AFE530D5E";
shapes = (
{
closed = 1;
nodes = (
(456,-104,o),
(481,-61,o),
(481,-20,cs),
(481,44,o),
(434,71,o),
(366,79,cs),
(286,88,ls),
(237,94,o),
(211,111,o),
(211,144,cs),
(211,214,o),
(299,245,o),
(418,272,c),
(420,280,l),
(408,303,o),
(385,337,o),
(361,355,c),
(296,334,o),
(242,299,o),
(194,299,cs),
(148,299,o),
(128,325,o),
(128,363,cs),
(128,428,o),
(187,455,o),
(256,478,cs),
(304,494,o),
(341,509,o),
(341,542,cs),
(341,567,o),
(317,603,o),
(297,620,c),
(267,595,o),
(245,581,o),
(212,563,cs),
(126,516,o),
(55,482,o),
(55,394,cs),
(55,323,o),
(109,275,o),
(197,234,c),
(176,272,l),
(143,245,o),
(123,200,o),
(123,161,cs),
(123,98,o),
(166,58,o),
(247,45,cs),
(296,37,ls),
(344,29,o),
(387,21,o),
(387,-11,cs),
(387,-38,o),
(363,-70,o),
(331,-92,c),
(331,-101,l),
(351,-115,o),
(382,-129,o),
(417,-139,c)
);
}
);
width = 481;
},
{
layerId = "A430B39A-257A-41FC-BEA9-652C696FFEF7";
shapes = (
{
closed = 1;
nodes = (
(495,-140,o),
(528,-89,o),
(528,-38,cs),
(528,32,o),
(471,62,o),
(383,73,cs),
(333,79,ls),
(275,86,o),
(244,100,o),
(244,133,cs),
(244,179,o),
(296,218,o),
(451,253,c),
(456,266,l),
(441,302,o),
(396,356,o),
(372,372,c),
(297,351,o),
(234,308,o),
(184,308,cs),
(156,308,o),
(137,325,o),
(137,353,cs),
(137,401,o),
(186,424,o),
(257,449,cs),
(326,473,o),
(375,491,o),
(375,544,cs),
(375,574,o),
(341,628,o),
(306,648,c),
(281,619,o),
(259,606,o),
(210,582,cs),
(122,539,o),
(35,493,o),
(35,398,cs),
(35,337,o),
(71,284,o),
(164,229,c),
(161,263,l),
(128,236,o),
(107,194,o),
(107,155,cs),
(107,90,o),
(146,44,o),
(241,27,cs),
(295,17,ls),
(362,5,o),
(378,-8,o),
(378,-33,cs),
(378,-59,o),
(357,-87,o),
(314,-114,c),
(315,-125,l),
(341,-140,o),
(406,-170,o),
(458,-180,c)
);
}
);
width = 513;
}
);
note = uni0AEC;
script = khoj;
},
{
category = Number;
glyphname = "seven-khoj";
kernLeft = SEVEN;
kernRight = SEVEN;
lastChange = "2023-06-05 09:48:09 +0000";
layers = (
{
layerId = "0717401B-DDB5-4983-85F2-A81AFE530D5E";
shapes = (
{
closed = 1;
nodes = (
(482,16,o),
(558,143,o),
(558,301,cs),
(558,483,o),
(456,600,o),
(360,600,cs),
(276,600,o),
(214,514,o),
(214,431,cs),
(214,344,o),
(282,279,o),
(362,279,cs),
(414,279,o),
(475,310,o),
(498,362,c),
(487,405,l),
(463,365,o),
(410,341,o),
(368,341,cs),
(327,341,o),
(301,362,o),
(301,407,cs),
(301,463,o),
(342,524,o),
(392,524,cs),
(454,524,o),
(486,433,o),
(486,337,cs),
(486,190,o),
(412,106,o),
(313,106,cs),
(175,106,o),
(115,269,o),
(115,450,cs),
(115,483,o),
(117,518,o),
(120,550,c),
(115,555,l),
(61,527,l),
(57,502,o),
(55,467,o),
(55,434,cs),
(55,212,o),
(147,16,o),
(332,16,cs)
);
}
);
width = 613;
},
{
layerId = "A430B39A-257A-41FC-BEA9-652C696FFEF7";
shapes = (
{
closed = 1;
nodes = (
(500,-6,o),
(591,115,o),
(591,293,cs),
(591,470,o),
(497,622,o),
(372,622,cs),
(278,622,o),
(198,533,o),
(198,424,cs),
(198,327,o),
(273,263,o),
(363,263,cs),
(427,263,o),
(479,295,o),
(506,345,c),
(492,417,l),
(476,378,o),
(422,345,o),
(378,345,cs),
(347,345,o),
(326,361,o),
(326,395,cs),
(326,447,o),
(372,506,o),
(412,506,cs),
(460,506,o),
(486,435,o),
(486,346,cs),
(486,211,o),
(415,128,o),
(320,128,cs),
(204,128,o),
(122,229,o),
(122,452,cs),
(122,487,o),
(124,522,o),
(128,567,c),
(122,572,l),
(48,532,l),
(43,506,o),
(40,465,o),
(40,424,cs),
(40,167,o),
(161,-6,o),
(351,-6,cs)
);
}
);
width = 625;
}
);
note = uni0AED;
script = gujarati;
unicode = 2797;
},
{
category = Number;
glyphname = "eight-khoj";
kernLeft = EIGHT;
kernRight = EIGHT;
lastChange = "2023-06-05 09:48:09 +0000";
layers = (
{
layerId = "0717401B-DDB5-4983-85F2-A81AFE530D5E";
shapes = (
{
closed = 1;
nodes = (
(385,12,o),
(501,74,o),
(501,132,cs),
(501,157,o),
(475,195,o),
(449,214,c),
(402,138,o),
(328,86,o),
(237,86,cs),
(171,86,o),
(126,121,o),
(126,168,cs),
(126,196,o),
(150,225,o),
(187,264,cs),
(413,503,l),
(380,603,l),
(369,605,l),
(118,328,ls),
(71,276,o),
(35,242,o),
(35,188,cs),
(35,99,o),
(154,12,o),
(289,12,cs)
);
}
);
width = 521;
},
{
layerId = "A430B39A-257A-41FC-BEA9-652C696FFEF7";
shapes = (
{
closed = 1;
nodes = (
(424,-4,o),
(542,67,o),
(542,135,cs),
(542,172,o),
(501,225,o),
(466,247,c),
(408,159,o),
(318,98,o),
(233,98,cs),
(179,98,o),
(152,124,o),
(152,156,cs),
(152,181,o),
(168,206,o),
(202,242,cs),
(442,495,l),
(391,641,l),
(376,643,l),
(103,352,ls),
(54,300,o),
(20,258,o),
(20,201,cs),
(20,95,o),
(146,-4,o),
(303,-4,cs)
);
}
);
width = 547;
}
);
note = uni0AEE;
script = gujarati;
unicode = 2798;
},
{
category = Number;
glyphname = "nine-khoj";
kernLeft = NINE;
kernRight = TWO;
lastChange = "2023-06-05 09:48:09 +0000";
layers = (
{
layerId = "0717401B-DDB5-4983-85F2-A81AFE530D5E";
shapes = (
{
closed = 1;
nodes = (
(381,14,o),
(427,25,o),
(467,46,cs),
(512,70,o),
(544,101,o),
(544,132,cs),
(544,157,o),
(518,195,o),
(492,214,c),
(450,138,o),
(370,94,o),
(293,94,cs),
(195,94,o),
(119,205,o),
(119,291,cs),
(119,358,o),
(169,410,o),
(212,450,cs),
(243,479,o),
(269,504,o),
(269,531,cs),
(269,562,o),
(235,594,o),
(205,609,c),
(184,570,o),
(160,537,o),
(137,507,cs),
(92,448,o),
(50,401,o),
(50,326,cs),
(50,193,o),
(190,14,o),
(336,14,cs)
);
},
{
closed = 1;
nodes = (
(332,251,o),
(409,351,o),
(470,437,c),
(450,552,l),
(439,554,l),
(385,466,o),
(299,356,o),
(206,244,c),
(241,158,l),
(253,157,l)
);
}
);
visible = 1;
width = 569;
},
{
layerId = "A430B39A-257A-41FC-BEA9-652C696FFEF7";
shapes = (
{
closed = 1;
nodes = (
(401,-8,o),
(450,2,o),
(493,24,cs),
(553,55,o),
(587,91,o),
(587,131,cs),
(587,166,o),
(557,206,o),
(512,240,c),
(470,169,o),
(388,103,o),
(307,103,cs),
(207,103,o),
(141,196,o),
(141,279,cs),
(141,333,o),
(170,381,o),
(227,430,cs),
(276,472,o),
(303,495,o),
(303,535,cs),
(303,574,o),
(260,625,o),
(205,644,c),
(183,598,o),
(161,567,o),
(128,527,cs),
(76,464,o),
(35,411,o),
(35,329,cs),
(35,171,o),
(184,-8,o),
(351,-8,cs)
);
},
{
closed = 1;
nodes = (
(361,239,o),
(437,332,o),
(505,425,c),
(472,586,l),
(456,587,l),
(408,507,o),
(302,364,o),
(215,264,c),
(260,147,l),
(279,146,l)
);
}
);
width = 597;
}
);
note = uni0AEF;
script = gujarati;
unicode = 2799;
},
{
category = Letter;
glyphname = "a-khoj";
kernLeft = A;
kernRight = NNA;
lastChange = "2023-06-05 09:48:09 +0000";
layers = (
{
anchors = (
{
name = nukta;
pos = (551,516);
},
{
name = right;
pos = (986,356);
},
{
name = top;
pos = (840,551);
}
);
layerId = "0717401B-DDB5-4983-85F2-A81AFE530D5E";
shapes = (
{
closed = 1;
nodes = (
(783,71,l),
(841,166,o),
(890,269,o),
(890,383,cs),
(890,468,o),
(814,550,o),
(769,550,cs),
(724,550,o),
(607,442,o),
(534,372,c),
(555,350,l),
(532,449,ls),
(523,488,o),
(504,511,o),
(461,511,cs),
(372,511,o),
(184,489,o),
(131,489,cs),
(96,489,o),
(84,497,o),
(84,519,cs),
(84,536,o),
(91,556,o),
(96,568,c),
(81,577,o),
(64,582,o),
(41,582,cs),
(10,582,o),
(-16,567,o),
(-16,539,cs),
(-16,502,o),
(21,482,o),
(56,461,cs),
(106,431,o),
(160,410,o),
(182,410,cs),
(466,410,ls),
(500,410,o),
(503,399,o),
(511,365,cs),
(533,261,l),
(558,257,l),
(608,310,o),
(759,458,o),
(795,458,cs),
(818,458,o),
(835,434,o),
(835,398,cs),
(835,314,o),
(748,202,o),
(691,149,c),
(700,121,o),
(732,78,o),
(749,64,c)
);
}
);
width = 940;
},
{
anchors = (
{
name = nukta;
pos = (596,528);
},
{
name = right;
pos = (1080,356);
},
{
name = top;
pos = (936,566);
}
);
layerId = "A430B39A-257A-41FC-BEA9-652C696FFEF7";
shapes = (
{
closed = 1;
nodes = (
(868,51,l),
(928,132,o),
(982,259,o),
(982,373,cs),
(982,489,o),
(884,579,o),
(823,579,cs),
(766,579,o),
(657,491,o),
(571,408,c),
(597,371,l),
(575,457,ls),
(562,509,o),
(547,537,o),
(487,537,cs),
(414,537,o),
(217,502,o),
(151,502,cs),
(125,502,o),
(114,511,o),
(114,533,cs),
(114,550,o),
(120,571,o),
(128,586,c),
(108,601,o),
(83,608,o),
(56,608,cs),
(10,608,o),
(-20,587,o),
(-20,552,cs),
(-20,512,o),
(21,483,o),
(64,457,cs),
(117,425,o),
(191,395,o),
(236,395,cs),
(513,395,ls),
(539,395,o),
(546,389,o),
(553,360,cs),
(579,247,l),
(606,242,l),
(668,308,o),
(824,456,o),
(867,456,cs),
(883,456,o),
(897,438,o),
(897,411,cs),
(897,348,o),
(827,242,o),
(736,155,c),
(749,118,o),
(797,60,o),
(824,41,c)
);
}
);
width = 1022;
}
);
note = kj_A;
script = khoj;
unicode = 70144;
},
{
category = Letter;
glyphname = "ishort-khoj";
lastChange = "2023-06-05 09:48:09 +0000";
layers = (
{
anchors = (
{
name = nukta;
pos = (261,527);
},
{
name = top;
pos = (337,532);
}
);
layerId = "0717401B-DDB5-4983-85F2-A81AFE530D5E";
shapes = (
{
closed = 1;
nodes = (
(443,-4,o),
(516,65,o),
(516,163,cs),
(516,264,o),
(431,365,o),
(369,365,cs),
(355,365,o),
(335,360,o),
(320,355,cs),
(306,350,ls),
(279,340,o),
(268,345,o),
(261,358,cs),
(251,378,l),
(220,368,l),
(270,265,ls),
(281,243,o),
(293,239,o),
(332,254,cs),
(353,262,ls),
(372,269,o),
(391,272,o),
(406,272,cs),
(437,272,o),
(451,245,o),
(451,215,cs),
(451,140,o),
(379,92,o),
(302,92,cs),
(203,92,o),
(139,178,o),
(84,298,c),
(79,299,l),
(51,261,l),
(110,111,o),
(208,-4,o),
(338,-4,cs)
);
},
{
closed = 1;
nodes = (
(155,415,o),
(185,444,o),
(185,490,cs),
(185,539,o),
(155,570,o),
(107,570,cs),
(60,570,o),
(30,539,o),
(30,490,cs),
(30,444,o),
(60,415,o),
(107,415,cs)
);
},
{
closed = 1;
nodes = (
(462,441,o),
(492,470,o),
(492,516,cs),
(492,565,o),
(462,596,o),
(414,596,cs),
(367,596,o),
(337,565,o),
(337,516,cs),
(337,470,o),
(367,441,o),
(414,441,cs)
);
}
);
width = 594;
},
{
anchors = (
{
name = nukta;
pos = (276,582);
},
{
name = top;
pos = (375,592);
}
);
layerId = "A430B39A-257A-41FC-BEA9-652C696FFEF7";
shapes = (
{
closed = 1;
nodes = (
(495,-28,o),
(568,53,o),
(568,160,cs),
(568,279,o),
(475,390,o),
(403,390,cs),
(392,390,o),
(376,390,o),
(354,382,cs),
(337,376,ls),
(324,371,o),
(315,375,o),
(310,384,cs),
(296,411,l),
(244,391,l),
(306,256,ls),
(320,226,o),
(339,223,o),
(366,231,cs),
(425,248,ls),
(435,251,o),
(441,251,o),
(445,251,cs),
(466,251,o),
(476,233,o),
(476,210,cs),
(476,156,o),
(414,114,o),
(338,114,cs),
(247,114,o),
(181,167,o),
(116,319,c),
(105,320,l),
(61,263,l),
(131,78,o),
(243,-28,o),
(376,-28,cs)
);
},
{
closed = 1;
nodes = (
(181,407,o),
(220,445,o),
(220,503,cs),
(220,561,o),
(182,602,o),
(122,602,cs),
(64,602,o),
(25,562,o),
(25,502,cs),
(25,445,o),
(64,407,o),
(122,407,cs)
);
},
{
closed = 1;
nodes = (
(511,447,o),
(550,485,o),
(550,543,cs),
(550,601,o),
(512,642,o),
(452,642,cs),
(394,642,o),
(355,602,o),
(355,542,cs),
(355,485,o),
(394,447,o),
(452,447,cs)
);
}
);
width = 612;
}
);
script = khojki;
unicode = 70208;
},
{
category = Letter;
glyphname = "i-khoj";
kernLeft = GA;
kernRight = II;
lastChange = "2023-06-05 09:48:09 +0000";
layers = (
{
anchors = (
{
name = nukta;
pos = (351,896);
},
{
name = top;
pos = (119,642);
}
);
layerId = "0717401B-DDB5-4983-85F2-A81AFE530D5E";
shapes = (
{
closed = 1;
nodes = (
(821,-240,o),
(859,-222,o),
(860,-186,cs),
(861,-157,o),
(837,-133,o),
(806,-114,c),
(794,-139,o),
(764,-158,o),
(730,-158,cs),
(697,-158,o),
(676,-141,o),
(676,-56,cs),
(676,85,o),
(724,417,o),
(724,548,cs),
(724,749,o),
(588,895,o),
(435,895,cs),
(312,895,o),
(228,800,o),
(228,686,cs),
(228,563,o),
(325,445,o),
(423,445,cs),
(483,445,o),
(507,490,o),
(507,528,cs),
(507,575,o),
(470,599,o),
(398,605,c),
(364,521,l),
(319,543,o),
(297,590,o),
(297,641,cs),
(297,738,o),
(375,809,o),
(476,809,cs),
(586,809,o),
(640,725,o),
(640,582,cs),
(640,437,o),
(594,124,o),
(594,5,cs),
(594,-138,o),
(675,-240,o),
(778,-240,cs)
);
},
{
closed = 1;
nodes = (
(443,-4,o),
(516,65,o),
(516,163,cs),
(516,264,o),
(431,365,o),
(369,365,cs),
(334,365,o),
(277,337,o),
(252,337,cs),
(241,337,o),
(236,340,o),
(231,349,cs),
(221,369,l),
(190,359,l),
(240,256,ls),
(245,246,o),
(251,237,o),
(266,237,cs),
(291,237,o),
(363,272,o),
(406,272,cs),
(437,272,o),
(451,245,o),
(451,215,cs),
(451,140,o),
(379,92,o),
(302,92,cs),
(203,92,o),
(139,178,o),
(84,298,c),
(79,299,l),
(51,261,l),
(110,111,o),
(208,-4,o),
(338,-4,cs)
);
},
{
closed = 1;
nodes = (
(155,415,o),
(185,444,o),
(185,490,cs),
(185,539,o),
(155,570,o),
(107,570,cs),
(60,570,o),
(30,539,o),
(30,490,cs),
(30,444,o),
(60,415,o),
(107,415,cs)
);
}
);
width = 795;
},
{
anchors = (
{
name = nukta;
pos = (387,896);
},
{
name = top;
pos = (155,642);
}
);
layerId = "A430B39A-257A-41FC-BEA9-652C696FFEF7";
shapes = (
{
closed = 1;
nodes = (
(892,-262,o),
(936,-234,o),
(937,-189,cs),
(938,-152,o),
(911,-122,o),
(874,-101,c),
(852,-135,o),
(824,-157,o),
(790,-157,cs),
(752,-157,o),
(739,-136,o),
(739,-70,cs),
(739,81,o),
(788,380,o),
(788,523,cs),
(788,719,o),
(651,917,o),
(459,917,cs),
(333,917,o),
(227,829,o),
(227,691,cs),
(227,565,o),
(341,443,o),
(456,443,cs),
(520,443,o),
(561,487,o),
(561,543,cs),
(561,604,o),
(510,639,o),
(426,647,c),
(383,552,l),
(352,571,o),
(339,599,o),
(339,637,cs),
(339,727,o),
(418,799,o),
(518,799,cs),
(613,799,o),
(658,730,o),
(658,593,cs),
(658,422,o),
(612,116,o),
(612,16,cs),
(612,-128,o),
(711,-262,o),
(835,-262,cs)
);
},
{
closed = 1;
nodes = (
(495,-28,o),
(568,53,o),
(568,160,cs),
(568,279,o),
(475,390,o),
(403,390,cs),
(367,390,o),
(293,361,o),
(276,361,cs),
(272,361,o),
(265,363,o),
(261,371,cs),
(247,398,l),
(195,378,l),
(257,243,ls),
(262,232,o),
(272,215,o),
(296,215,cs),
(330,215,o),
(416,251,o),
(445,251,cs),
(466,251,o),
(476,233,o),
(476,210,cs),
(476,156,o),
(414,114,o),
(338,114,cs),
(247,114,o),
(181,167,o),
(116,319,c),
(105,320,l),
(61,263,l),
(131,78,o),
(243,-28,o),
(376,-28,cs)
);
},
{
closed = 1;
nodes = (
(181,407,o),
(220,445,o),
(220,503,cs),
(220,561,o),
(182,602,o),
(122,602,cs),
(64,602,o),
(25,562,o),
(25,502,cs),
(25,445,o),
(64,407,o),
(122,407,cs)
);
}
);
width = 857;
}
);
metricLeft = "ga-khoj";
note = kj_I;
script = khoj;
unicode = 70146;
},
{
category = Letter;
glyphname = "u-khoj";
kernLeft = KU;
kernRight = U;
lastChange = "2023-06-05 09:48:09 +0000";
layers = (
{
anchors = (
{
name = nukta;
pos = (372,866);
},
{
name = top;
pos = (213,764);
}
);
layerId = "0717401B-DDB5-4983-85F2-A81AFE530D5E";
shapes = (
{
closed = 1;
nodes = (
(375,239,o),
(447,323,o),
(447,415,cs),
(447,506,o),
(370,591,o),
(272,591,cs),
(238,591,o),
(204,581,o),
(174,566,c),
(154,474,l),
(183,503,o),
(245,527,o),
(289,527,cs),
(341,527,o),
(367,492,o),
(367,445,cs),
(367,378,o),
(312,319,o),
(253,319,cs),
(194,319,o),
(164,378,o),
(164,445,cs),
(164,544,o),
(228,653,o),
(328,728,cs),
(413,792,o),
(509,821,o),
(602,821,cs),
(667,821,o),
(723,807,o),
(771,781,c),
(778,787,l),
(738,863,l),
(687,886,o),
(632,895,o),
(575,895,cs),
(458,895,o),
(354,857,o),
(265,788,cs),
(152,700,o),
(93,582,o),
(93,471,cs),
(93,340,o),
(176,239,o),
(280,239,cs)
);
},
{
closed = 1;
nodes = (
(548,17,o),
(653,167,o),
(653,340,cs),
(653,441,o),
(617,527,o),
(546,595,c),
(536,593,l),
(500,473,l),
(556,446,o),
(597,423,o),
(597,358,cs),
(597,300,o),
(570,239,o),
(525,191,cs),
(471,133,o),
(402,108,o),
(323,108,cs),
(223,108,o),
(121,153,o),
(56,236,c),
(48,232,l),
(55,159,l),
(131,71,o),
(248,17,o),
(361,17,cs)
);
}
);
width = 718;
},
{
anchors = (
{
name = nukta;
pos = (381,866);
},
{
name = top;
pos = (222,764);
}
);
layerId = "A430B39A-257A-41FC-BEA9-652C696FFEF7";
shapes = (
{
closed = 1;
nodes = (
(391,217,o),
(474,307,o),
(474,417,cs),
(474,525,o),
(381,612,o),
(273,612,cs),
(245,612,o),
(209,605,o),
(181,593,c),
(158,459,l),
(207,502,o),
(259,518,o),
(294,518,cs),
(334,518,o),
(353,493,o),
(353,454,cs),
(353,392,o),
(308,333,o),
(250,333,cs),
(206,333,o),
(175,371,o),
(175,447,cs),
(175,558,o),
(246,656,o),
(342,724,cs),
(426,783,o),
(529,810,o),
(630,810,cs),
(685,810,o),
(739,803,o),
(791,787,c),
(803,803,l),
(730,900,l),
(683,912,o),
(633,918,o),
(584,918,cs),
(463,918,o),
(342,881,o),
(244,807,cs),
(131,722,o),
(66,606,o),
(66,476,cs),
(66,321,o),
(172,217,o),
(289,217,cs)
);
},
{
closed = 1;
nodes = (
(572,-16,o),
(700,142,o),
(700,330,cs),
(700,441,o),
(659,539,o),
(568,628,c),
(549,626,l),
(510,455,l),
(587,434,o),
(609,409,o),
(609,360,cs),
(609,302,o),
(574,232,o),
(523,186,cs),
(469,138,o),
(398,110,o),
(310,110,cs),
(204,110,o),
(104,168,o),
(38,256,c),
(24,250,l),
(34,155,l),
(114,55,o),
(240,-16,o),
(374,-16,cs)
);
}
);
width = 738;
}
);
note = kj_U;
script = khoj;
unicode = 70147;
},
{
category = Letter;
glyphname = "e-khoj";
kernLeft = PA;
kernRight = E;
lastChange = "2023-06-05 09:48:09 +0000";
layers = (
{
anchors = (
{
name = nukta;
pos = (203,556);
},
{
name = top;
pos = (355,621);
}
);
layerId = "0717401B-DDB5-4983-85F2-A81AFE530D5E";
shapes = (
{
closed = 1;
nodes = (
(562,-2,o),
(600,29,o),
(600,62,cs),
(600,89,o),
(575,112,o),
(543,126,c),
(531,90,o),
(510,52,o),
(475,52,cs),
(456,52,o),
(438,63,o),
(438,129,cs),
(438,176,o),
(449,263,o),
(466,364,cs),
(514,650,ls),
(531,754,o),
(582,812,o),
(661,812,cs),
(723,812,o),
(779,776,o),
(821,718,c),
(830,719,l),
(832,790,l),
(783,855,o),
(713,895,o),
(634,895,cs),
(541,895,o),
(456,830,o),
(433,684,cs),
(396,452,ls),
(375,320,o),
(324,280,o),
(268,280,cs),
(231,280,o),
(214,299,o),
(214,340,cs),
(214,379,o),
(221,429,o),
(221,462,cs),
(221,540,o),
(142,602,o),
(61,602,cs),
(15,602,o),
(-15,583,o),
(-15,551,cs),
(-15,530,o),
(-2,507,o),
(20,488,c),
(39,512,o),
(72,543,o),
(97,543,cs),
(123,543,o),
(126,511,o),
(126,487,cs),
(126,452,o),
(120,408,o),
(120,385,cs),
(120,296,o),
(211,223,o),
(297,223,cs),
(327,223,o),
(354,232,o),
(374,247,c),
(365,256,l),
(359,217,o),
(354,174,o),
(354,146,cs),
(354,58,o),
(433,-2,o),
(507,-2,cs)
);
}
);
width = 622;
},
{
anchors = (
{
name = nukta;
pos = (203,556);
},
{
name = top;
pos = (355,621);
}
);
layerId = "A430B39A-257A-41FC-BEA9-652C696FFEF7";
shapes = (
{
closed = 1;
nodes = (
(637,-14,o),
(683,18,o),
(683,63,cs),
(683,97,o),
(658,125,o),
(608,143,c),
(588,95,o),
(566,65,o),
(542,65,cs),
(522,65,o),
(513,81,o),
(513,126,cs),
(513,176,o),
(523,250,o),
(537,338,cs),
(584,636,ls),
(601,747,o),
(653,799,o),
(729,799,cs),
(788,799,o),
(837,766,o),
(885,707,c),
(898,711,l),
(897,803,l),
(843,870,o),
(769,917,o),
(681,917,cs),
(573,917,o),
(486,841,o),
(462,679,cs),
(430,467,ls),
(411,342,o),
(371,286,o),
(310,286,cs),
(282,286,o),
(269,300,o),
(269,330,cs),
(269,363,o),
(276,437,o),
(276,461,cs),
(276,546,o),
(163,622,o),
(75,622,cs),
(11,622,o),
(-25,593,o),
(-25,547,cs),
(-25,514,o),
(-5,482,o),
(40,464,c),
(62,501,o),
(91,532,o),
(112,532,cs),
(126,532,o),
(133,519,o),
(133,493,cs),
(133,465,o),
(126,416,o),
(126,389,cs),
(126,291,o),
(232,202,o),
(343,202,cs),
(368,202,o),
(392,206,o),
(418,220,c),
(397,250,l),
(390,206,o),
(386,167,o),
(386,145,cs),
(386,54,o),
(478,-14,o),
(573,-14,cs)
);
}
);
width = 678;
}
);
metricLeft = "pa-khoj";
note = kj_E;
script = khoj;
unicode = 70148;
},
{
category = Letter;
glyphname = "o-khoj";
kernLeft = GGA;
kernRight = O;
lastChange = "2023-06-05 09:48:09 +0000";
layers = (
{
anchors = (
{
name = nukta;
pos = (336,866);
},
{
name = top;
pos = (217,804);
}
);
layerId = "0717401B-DDB5-4983-85F2-A81AFE530D5E";
shapes = (
{
closed = 1;
nodes = (
(358,167,o),
(433,251,o),
(433,348,cs),
(433,448,o),
(350,544,o),
(251,544,cs),
(204,544,o),
(156,526,o),
(127,507,c),
(113,403,l),
(138,437,o),
(209,469,o),
(267,469,cs),
(321,469,o),
(352,435,o),
(352,379,cs),
(352,303,o),
(291,248,o),
(228,248,cs),
(166,248,o),
(124,300,o),
(124,399,cs),
(124,616,o),
(327,820,o),
(577,820,cs),
(634,820,o),
(683,810,o),
(725,793,c),
(732,800,l),
(680,875,l),
(646,887,o),
(594,895,o),
(543,895,cs),
(275,895,o),
(45,670,o),
(45,430,cs),
(45,273,o),
(144,167,o),
(257,167,cs)
);
}
);
width = 482;
},
{
anchors = (
{
name = nukta;
pos = (346,866);
},
{
name = top;
pos = (227,804);
}
);
layerId = "A430B39A-257A-41FC-BEA9-652C696FFEF7";
shapes = (
{
closed = 1;
nodes = (
(398,143,o),
(484,233,o),
(484,353,cs),
(484,464,o),
(390,569,o),
(274,569,cs),
(214,569,o),
(162,551,o),
(126,525,c),
(120,387,l),
(158,432,o),
(232,462,o),
(284,462,cs),
(334,462,o),
(356,432,o),
(356,386,cs),
(356,316,o),
(306,258,o),
(241,258,cs),
(186,258,o),
(143,299,o),
(143,393,cs),
(143,627,o),
(346,808,o),
(594,808,cs),
(651,808,o),
(708,800,o),
(758,784,c),
(770,800,l),
(697,897,l),
(658,910,o),
(605,917,o),
(551,917,cs),
(269,917,o),
(31,700,o),
(31,438,cs),
(31,261,o),
(139,143,o),
(279,143,cs)
);
}
);
width = 510;
}
);
note = kj_O;
script = khoj;
unicode = 70150;
},
{
export = 0;
glyphname = "rVocalic-gujarati";
kernLeft = GGA;
lastChange = "2023-06-05 09:48:09 +0000";
layers = (
{
layerId = "0717401B-DDB5-4983-85F2-A81AFE530D5E";
shapes = (
{
closed = 1;
nodes = (
(610,0,o),
(653,29,o),
(653,71,cs),
(653,96,o),
(625,117,o),
(590,128,c),
(581,68,o),
(565,49,o),
(548,49,cs),
(537,49,o),
(527,56,o),
(527,89,cs),
(527,228,o),
(527,413,o),
(528,562,c),
(504,583,o),
(475,600,o),
(438,615,c),
(449,346,l),
(449,116,ls),
(449,54,o),
(503,0,o),
(564,0,cs)
);
},
{
closed = 1;
nodes = (
(513,295,l),
(494,381,l),
(76,184,l),
(76,175,l),
(159,117,l)
);
},
{
closed = 1;
nodes = (
(463,343,l),
(392,429,o),
(285,502,o),
(194,528,cs),
(162,537,o),
(115,540,o),
(80,540,cs),
(52,540,o),
(25,538,o),
(4,535,c),
(-5,508,l),
(106,432,l),
(248,446,l),
(308,421,o),
(380,371,o),
(431,306,c)
);
},
{
closed = 1;
nodes = (
(841,104,o),
(883,142,o),
(883,211,cs),
(883,271,o),
(835,333,o),
(787,371,c),
(746,338,l),
(792,321,o),
(824,278,o),
(824,240,cs),
(824,202,o),
(794,188,o),
(748,188,cs),
(739,188,o),
(729,189,o),
(719,190,c),
(717,178,o),
(716,167,o),
(716,158,cs),
(716,121,o),
(735,104,o),
(775,104,cs)
);
},
{
closed = 1;
nodes = (
(679,286,o),
(718,299,o),
(749,321,cs),
(786,349,o),
(822,398,o),
(822,436,cs),
(822,481,o),
(772,516,o),
(733,516,cs),
(707,516,o),
(686,495,o),
(686,458,cs),
(686,434,o),
(694,404,o),
(709,384,c),
(722,412,l),
(688,370,o),
(631,344,o),
(578,344,cs),
(558,344,o),
(539,347,o),
(521,352,c),
(495,321,l),
(526,304,o),
(575,286,o),
(632,286,cs)
);
}
);
width = 923;
},
{
layerId = "A430B39A-257A-41FC-BEA9-652C696FFEF7";
shapes = (
{
closed = 1;
nodes = (
(685,-14,o),
(732,21,o),
(732,69,cs),
(732,102,o),
(700,130,o),
(648,144,c),
(643,93,o),
(627,60,o),
(608,60,cs),
(594,60,o),
(586,73,o),
(586,107,cs),
(586,269,o),
(584,413,o),
(588,573,c),
(552,606,o),
(504,632,o),
(452,647,c),
(466,346,l),
(466,119,ls),
(466,53,o),
(536,-14,o),
(620,-14,cs)
);
},
{
closed = 1;
nodes = (
(512,262,l),
(512,406,l),
(80,195,l),
(80,171,l),
(194,94,l)
);
},
{
closed = 1;
nodes = (
(476,372,l),
(400,463,o),
(303,531,o),
(218,556,cs),
(184,566,o),
(145,568,o),
(104,568,cs),
(67,568,o),
(26,563,o),
(-4,557,c),
(-10,518,l),
(112,419,l),
(283,440,l),
(339,414,o),
(385,377,o),
(429,331,c)
);
},
{
closed = 1;
nodes = (
(913,82,o),
(962,127,o),
(962,204,cs),
(962,268,o),
(915,333,o),
(834,384,c),
(767,336,l),
(823,329,o),
(869,281,o),
(869,246,cs),
(869,215,o),
(835,209,o),
(795,209,cs),
(780,209,o),
(766,211,o),
(756,213,c),
(751,192,o),
(749,169,o),
(749,154,cs),
(749,108,o),
(781,82,o),
(835,82,cs)
);
},
{
closed = 1;
nodes = (
(740,271,o),
(784,286,o),
(820,311,cs),
(869,345,o),
(901,398,o),
(901,442,cs),
(901,497,o),
(839,548,o),
(784,548,cs),
(736,548,o),
(715,512,o),
(715,466,cs),
(715,442,o),
(723,416,o),
(736,395,c),
(761,444,l),
(726,389,o),
(683,368,o),
(628,368,cs),
(607,368,o),
(586,372,o),
(571,379,c),
(529,324,l),
(568,293,o),
(634,271,o),
(690,271,cs)
);
}
);
width = 987;
}
);
metricLeft = "t_ra-khoj";
unicode = 2699;
},
{
category = Letter;
glyphname = "ka-khoj";
kernLeft = KA;
kernRight = KA;
lastChange = "2023-06-05 09:48:09 +0000";
layers = (
{
anchors = (
{
name = bottom;
pos = (751,-99);
},
{
name = nukta;
pos = (455,536);
},
{
name = rakar;
pos = (661,30);
},
{
name = top;
pos = (660,516);
}
);
layerId = "0717401B-DDB5-4983-85F2-A81AFE530D5E";
shapes = (
{
closed = 1;
nodes = (
(473,15,o),
(646,213,o),
(646,335,cs),
(646,410,o),
(581,509,o),
(490,509,cs),
(439,509,o),
(382,477,o),
(314,433,cs),
(242,386,o),
(135,310,o),
(135,258,cs),
(135,226,o),
(175,184,o),
(214,184,cs),
(265,184,o),
(313,259,o),
(342,333,c),
(407,394,o),
(484,433,o),
(528,433,cs),
(565,433,o),
(586,403,o),
(586,367,cs),
(586,306,o),
(518,234,o),
(460,193,c),
(388,170,o),
(326,136,o),
(326,95,cs),
(326,60,o),
(364,15,o),
(399,15,cs)
);
},
{
closed = 1;
nodes = (
(340,409,l),
(305,479,o),
(267,536,o),
(222,536,cs),
(65,536,ls),
(57,536,o),
(51,538,o),
(47,549,cs),
(39,573,l),
(5,573,l),
(36,468,ls),
(40,455,o),
(46,453,o),
(60,453,cs),
(234,453,ls),
(270,453,o),
(287,435,o),
(309,378,c)
);
},
{
closed = 1;
nodes = (
(788,-145,o),
(812,-127,o),
(812,-95,cs),
(812,-79,o),
(806,-60,o),
(793,-41,c),
(768,-56,o),
(731,-72,o),
(706,-72,cs),
(688,-72,o),
(680,-62,o),
(680,-47,cs),
(680,-22,o),
(703,22,o),
(703,58,cs),
(703,124,o),
(623,183,o),
(537,183,c),
(528,116,l),
(543,124,o),
(558,129,o),
(573,129,cs),
(594,129,o),
(610,119,o),
(610,90,cs),
(610,70,o),
(603,22,o),
(603,2,cs),
(603,-70,o),
(688,-145,o),
(755,-145,cs)
);
}
);
width = 772;
},
{
anchors = (
{
name = bottom;
pos = (784,-126);
},
{
name = nukta;
pos = (472,540);
},
{
name = rakar;
pos = (701,26);
},
{
name = top;
pos = (713,516);
}
);
layerId = "A430B39A-257A-41FC-BEA9-652C696FFEF7";
shapes = (
{
closed = 1;
nodes = (
(509,-16,o),
(686,182,o),
(686,318,cs),
(686,422,o),
(604,528,o),
(504,528,cs),
(450,528,o),
(384,499,o),
(315,455,cs),
(187,373,o),
(131,322,o),
(131,272,cs),
(131,224,o),
(181,172,o),
(230,172,cs),
(277,172,o),
(327,218,o),
(375,327,c),
(423,375,o),
(500,415,o),
(552,415,cs),
(581,415,o),
(595,394,o),
(594,364,cs),
(592,314,o),
(534,240,o),
(480,202,c),
(408,179,o),
(325,140,o),
(325,84,cs),
(325,37,o),
(370,-16,o),
(417,-16,cs)
);
},
{
closed = 1;
nodes = (
(354,425,l),
(308,513,o),
(272,560,o),
(220,560,cs),
(63,560,ls),
(57,560,o),
(53,562,o),
(51,567,cs),
(43,590,l),
(-10,590,l),
(24,467,ls),
(28,451,o),
(36,444,o),
(52,444,cs),
(275,444,ls),
(299,444,o),
(302,432,o),
(318,390,c)
);
},
{
closed = 1;
nodes = (
(833,-160,o),
(859,-137,o),
(859,-99,cs),
(859,-75,o),
(848,-52,o),
(823,-30,c),
(804,-46,o),
(770,-65,o),
(742,-65,cs),
(731,-65,o),
(726,-61,o),
(726,-52,cs),
(726,-33,o),
(755,3,o),
(755,50,cs),
(755,110,o),
(680,170,o),
(593,182,c),
(575,102,l),
(587,111,o),
(597,114,o),
(607,114,cs),
(619,114,o),
(627,107,o),
(627,91,cs),
(627,66,o),
(616,30,o),
(616,-1,cs),
(616,-74,o),
(710,-160,o),
(788,-160,cs)
);
}
);
width = 809;
}
);
note = kj_KA;
script = khoj;
unicode = 70152;
},
{
glyphname = "ka_iMatra-khoj";
kernLeft = KA;
kernRight = HI;
lastChange = "2023-06-05 09:48:09 +0000";
layers = (
{
anchors = (
{
name = bottom;
pos = (691,-99);
},
{
name = nukta;
pos = (455,536);
},
{
name = rakar;
pos = (717,106);
},
{
name = top;
pos = (1140,892);
}
);
layerId = "0717401B-DDB5-4983-85F2-A81AFE530D5E";
shapes = (
{
closed = 1;
nodes = (
(727,-144,l),
(752,-17,o),
(798,192,o),
(841,378,cs),
(881,551,o),
(906,678,o),
(955,749,cs),
(985,792,o),
(1022,814,o),
(1077,814,cs),
(1141,814,o),
(1196,782,o),
(1237,736,c),
(1246,738,l),
(1241,809,l),
(1194,860,o),
(1130,895,o),
(1055,895,cs),
(981,895,o),
(928,865,o),
(889,814,cs),
(830,737,o),
(811,634,o),
(775,462,cs),
(695,85,l),
(728,85,l),
(711,135,o),
(664,182,o),
(582,182,cs),
(575,182,o),
(568,182,o),
(560,181,c),
(541,122,l),
(557,128,o),
(572,130,o),
(587,130,cs),
(642,130,o),
(672,104,o),
(672,43,cs),
(672,10,o),
(663,-37,o),
(651,-99,c),
(713,-146,l)
);
},
{
closed = 1;
nodes = (
(340,409,l),
(305,479,o),
(267,536,o),
(222,536,cs),
(65,536,ls),
(57,536,o),
(51,538,o),
(47,549,cs),
(39,573,l),
(5,573,l),
(36,468,ls),
(40,455,o),
(46,453,o),
(60,453,cs),
(234,453,ls),
(270,453,o),
(287,435,o),
(309,378,c)
);
},
{
closed = 1;
nodes = (
(473,15,o),
(646,213,o),
(646,335,cs),
(646,410,o),
(581,509,o),
(490,509,cs),
(439,509,o),
(382,477,o),
(314,433,cs),
(242,386,o),
(135,310,o),
(135,258,cs),
(135,226,o),
(175,184,o),
(214,184,cs),
(265,184,o),
(313,259,o),
(342,333,c),
(407,394,o),
(484,433,o),
(528,433,cs),
(565,433,o),
(586,404,o),
(586,367,cs),
(586,306,o),
(518,234,o),
(460,193,c),
(388,170,o),
(326,136,o),
(326,95,cs),
(326,60,o),
(364,15,o),
(399,15,cs)
);
}
);
width = 956;
},
{
anchors = (
{
name = bottom;
pos = (733,-128);
},
{
name = nukta;
pos = (472,540);
},
{
name = rakar;
pos = (763,106);
},
{
name = top;
pos = (1220,918);
}
);
layerId = "A430B39A-257A-41FC-BEA9-652C696FFEF7";
shapes = (
{
closed = 1;
nodes = (
(786,-164,l),
(819,1,o),
(863,205,o),
(900,376,cs),
(933,529,o),
(957,623,o),
(983,683,cs),
(1014,753,o),
(1063,801,o),
(1147,801,cs),
(1208,801,o),
(1272,771,o),
(1314,727,c),
(1327,732,l),
(1311,829,l),
(1246,888,o),
(1178,918,o),
(1103,918,cs),
(1004,918,o),
(932,871,o),
(885,782,cs),
(847,710,o),
(823,608,o),
(796,477,cs),
(721,119,l),
(759,125,l),
(724,169,o),
(680,187,o),
(627,187,cs),
(613,187,o),
(598,185,o),
(583,181,c),
(570,98,l),
(584,107,o),
(604,113,o),
(624,113,cs),
(657,113,o),
(692,95,o),
(692,43,cs),
(692,10,o),
(684,-39,o),
(671,-108,c),
(753,-169,l)
);
},
{
closed = 1;
nodes = (
(354,425,l),
(308,513,o),
(272,560,o),
(220,560,cs),
(63,560,ls),
(57,560,o),
(53,562,o),
(51,567,cs),
(43,590,l),
(-10,590,l),
(24,467,ls),
(28,451,o),
(36,444,o),
(52,444,cs),
(275,444,ls),
(299,444,o),
(302,432,o),
(318,390,c)
);
},
{
closed = 1;
nodes = (
(509,-16,o),
(686,182,o),
(686,318,cs),
(686,422,o),
(604,528,o),
(504,528,cs),
(450,528,o),
(384,499,o),
(315,455,cs),
(187,373,o),
(131,322,o),
(131,272,cs),
(131,224,o),
(181,172,o),
(230,172,cs),
(277,172,o),
(327,218,o),
(375,327,c),
(423,375,o),
(500,415,o),
(552,415,cs),
(581,415,o),
(595,394,o),
(594,364,cs),
(592,314,o),
(534,240,o),
(480,202,c),
(408,179,o),
(325,140,o),
(325,84,cs),
(325,37,o),
(370,-16,o),
(417,-16,cs)
);
}
);
visible = 1;
width = 1020;
}
);
metricLeft = "ka-khoj";
metricRight = "ha_iMatra-khoj";
script = khoj;
},
{
glyphname = "ka_iiMatra-khoj";
kernLeft = KA;
kernRight = HII;
lastChange = "2023-06-05 09:48:09 +0000";
layers = (
{
anchors = (
{
name = bottom;
pos = (838,-99);
},
{
name = nukta;
pos = (455,536);
},
{
name = rakar;
pos = (717,116);
},
{
name = top;
pos = (1029,539);
}
);
layerId = "0717401B-DDB5-4983-85F2-A81AFE530D5E";
shapes = (
{
closed = 1;
nodes = (
(1155,-240,o),
(1195,-223,o),
(1196,-186,cs),
(1197,-157,o),
(1173,-133,o),
(1142,-114,c),
(1131,-139,o),
(1098,-158,o),
(1066,-158,cs),
(1029,-158,o),
(1014,-132,o),
(1014,-66,cs),
(1014,40,o),
(1052,188,o),
(1052,285,cs),
(1052,411,o),
(993,544,o),
(915,544,cs),
(875,544,o),
(837,509,o),
(801,432,cs),
(766,357,o),
(731,246,o),
(693,116,c),
(728,96,l),
(711,146,o),
(664,193,o),
(582,193,cs),
(575,193,o),
(568,193,o),
(560,192,c),
(541,133,l),
(557,139,o),
(572,141,o),
(586,141,cs),
(640,141,o),
(673,117,o),
(673,67,cs),
(673,39,o),
(665,-4,o),
(650,-58,c),
(707,-126,l),
(724,-122,l),
(742,-31,o),
(779,133,o),
(825,263,cs),
(868,386,o),
(906,463,o),
(940,463,cs),
(965,463,o),
(974,410,o),
(974,365,cs),
(974,266,o),
(932,87,o),
(932,-4,cs),
(932,-132,o),
(1014,-240,o),
(1115,-240,cs)
);
},
{
closed = 1;
nodes = (
(340,409,l),
(305,479,o),
(267,536,o),
(222,536,cs),
(65,536,ls),
(57,536,o),
(51,538,o),
(47,549,cs),
(39,573,l),
(5,573,l),
(36,468,ls),
(40,455,o),
(46,453,o),
(60,453,cs),
(234,453,ls),
(270,453,o),
(287,435,o),
(309,378,c)
);
},
{
closed = 1;
nodes = (
(473,15,o),
(646,213,o),
(646,335,cs),
(646,410,o),
(581,509,o),
(490,509,cs),
(439,509,o),
(382,477,o),
(314,433,cs),
(242,386,o),
(135,310,o),
(135,258,cs),
(135,226,o),
(175,184,o),
(214,184,cs),
(265,184,o),
(313,259,o),
(342,333,c),
(407,394,o),
(484,433,o),
(528,433,cs),
(565,433,o),
(586,405,o),
(586,367,cs),
(586,306,o),
(518,234,o),
(460,193,c),
(388,170,o),
(326,136,o),
(326,95,cs),
(326,60,o),
(364,15,o),
(399,15,cs)
);
}
);
width = 1126;
},
{
anchors = (
{
name = bottom;
pos = (876,-142);
},
{
name = nukta;
pos = (472,540);
},
{
name = rakar;
pos = (771,50);
},
{
name = top;
pos = (1084,568);
}
);
layerId = "A430B39A-257A-41FC-BEA9-652C696FFEF7";
shapes = (
{
closed = 1;
nodes = (
(1240,-262,o),
(1284,-234,o),
(1285,-189,cs),
(1286,-152,o),
(1259,-122,o),
(1222,-101,c),
(1200,-135,o),
(1172,-157,o),
(1138,-157,cs),
(1106,-157,o),
(1087,-136,o),
(1087,-81,cs),
(1087,31,o),
(1124,180,o),
(1124,279,cs),
(1124,421,o),
(1041,567,o),
(957,567,cs),
(907,567,o),
(866,527,o),
(828,441,cs),
(794,365,o),
(764,269,o),
(728,145,c),
(754,146,l),
(731,183,o),
(700,200,o),
(648,200,cs),
(635,200,o),
(621,199,o),
(606,196,c),
(584,110,l),
(600,117,o),
(616,120,o),
(632,120,cs),
(675,120,o),
(701,102,o),
(701,60,cs),
(701,31,o),
(692,-12,o),
(678,-65,c),
(758,-155,l),
(790,-150,l),
(807,-62,o),
(855,132,o),
(895,256,cs),
(938,388,o),
(963,440,o),
(985,440,cs),
(996,440,o),
(1005,421,o),
(1005,380,cs),
(1005,287,o),
(968,110,o),
(968,16,cs),
(968,-128,o),
(1059,-262,o),
(1183,-262,cs)
);
},
{
closed = 1;
nodes = (
(354,425,l),
(308,513,o),
(272,560,o),
(220,560,cs),
(63,560,ls),
(57,560,o),
(53,562,o),
(51,567,cs),
(43,590,l),
(-10,590,l),
(24,467,ls),
(28,451,o),
(36,444,o),
(52,444,cs),
(275,444,ls),
(299,444,o),
(302,432,o),
(318,390,c)
);
},
{
closed = 1;
nodes = (
(509,-16,o),
(686,182,o),
(686,318,cs),
(686,422,o),
(604,528,o),
(504,528,cs),
(450,528,o),
(384,499,o),
(315,455,cs),
(187,373,o),
(131,322,o),
(131,272,cs),
(131,224,o),
(181,172,o),
(230,172,cs),
(277,172,o),
(327,218,o),
(375,327,c),
(423,375,o),
(500,415,o),
(552,415,cs),
(581,415,o),
(595,394,o),
(594,364,cs),
(592,314,o),
(534,240,o),
(480,202,c),
(408,179,o),
(325,140,o),
(325,84,cs),
(325,37,o),
(370,-16,o),
(417,-16,cs)
);
}
);
width = 1199;
}
);
metricLeft = "ka-khoj";
metricRight = "ha_iiMatra-khoj";
script = khoj;
},
{
category = Letter;
glyphname = "ka_uMatra-khoj";
kernLeft = KU;
kernRight = KA;
lastChange = "2023-06-05 09:48:09 +0000";
layers = (
{
anchors = (
{
name = bottom;
pos = (504,-179);
},
{
name = nukta;
pos = (438,536);
},
{
name = top;
pos = (643,516);
}
);
layerId = "0717401B-DDB5-4983-85F2-A81AFE530D5E";
shapes = (
{
closed = 1;
nodes = (
(666,-191,o),
(776,-103,o),
(776,17,cs),
(776,139,o),
(664,201,o),
(576,201,c),
(563,129,l),
(579,136,o),
(595,140,o),
(611,140,cs),
(661,140,o),
(703,110,o),
(703,50,cs),
(703,-35,o),
(617,-108,o),
(481,-108,cs),
(306,-108,o),
(161,12,o),
(67,168,c),
(58,165,l),
(46,110,l),
(143,-61,o),
(317,-191,o),
(508,-191,cs)
);
},
{
closed = 1;
nodes = (
(370,409,l),
(335,479,o),
(297,536,o),
(252,536,cs),
(95,536,ls),
(87,536,o),
(81,538,o),
(77,549,cs),
(69,573,l),
(35,573,l),
(66,468,ls),
(70,455,o),
(76,453,o),
(90,453,cs),
(264,453,ls),
(300,453,o),
(317,435,o),
(339,378,c)
);
},
{
closed = 1;
nodes = (
(503,15,o),
(676,213,o),
(676,335,cs),
(676,410,o),
(611,509,o),
(520,509,cs),
(469,509,o),
(412,477,o),
(344,433,cs),
(272,386,o),
(165,310,o),
(165,258,cs),
(165,226,o),
(205,184,o),
(244,184,cs),
(295,184,o),
(343,259,o),
(372,333,c),
(437,394,o),
(514,433,o),
(558,433,cs),
(594,433,o),
(616,403,o),
(616,367,cs),
(616,306,o),
(548,234,o),
(490,193,c),
(418,170,o),
(356,136,o),
(356,95,cs),
(356,60,o),
(394,15,o),
(429,15,cs)
);
}
);
width = 806;
},
{
anchors = (
{
name = bottom;
pos = (529,-210);
},
{
name = nukta;
pos = (502,540);
},
{
name = top;
pos = (693,516);
}
);
layerId = "A430B39A-257A-41FC-BEA9-652C696FFEF7";
shapes = (
{
closed = 1;
nodes = (
(718,-223,o),
(823,-126,o),
(823,3,cs),
(823,122,o),
(716,207,o),
(585,209,c),
(574,71,l),
(599,93,o),
(626,105,o),
(660,105,cs),
(693,105,o),
(716,86,o),
(716,47,cs),
(716,-33,o),
(623,-98,o),
(487,-98,cs),
(319,-98,o),
(174,-7,o),
(63,177,c),
(49,176,l),
(26,97,l),
(131,-97,o),
(320,-223,o),
(529,-223,cs)
);
},
{
closed = 1;
nodes = (
(384,425,l),
(338,513,o),
(302,560,o),
(250,560,cs),
(93,560,ls),
(87,560,o),
(83,562,o),
(81,567,cs),
(73,590,l),
(20,590,l),
(54,467,ls),
(58,451,o),
(66,444,o),
(82,444,cs),
(305,444,ls),
(329,444,o),
(332,432,o),
(348,390,c)
);
},
{
closed = 1;
nodes = (
(539,-16,o),
(716,182,o),
(716,318,cs),
(716,422,o),
(634,528,o),
(534,528,cs),
(480,528,o),
(414,499,o),
(345,455,cs),
(217,373,o),
(161,322,o),
(161,272,cs),
(161,224,o),
(211,172,o),
(260,172,cs),
(307,172,o),
(357,218,o),
(405,327,c),
(453,375,o),
(530,415,o),
(582,415,cs),
(611,415,o),
(625,394,o),
(624,364,cs),
(622,314,o),
(564,240,o),
(510,202,c),
(438,179,o),
(355,140,o),
(355,84,cs),
(355,37,o),
(400,-16,o),
(447,-16,cs)
);
}
);
width = 838;
}
);
note = KU;
script = khoj;
},
{
category = Letter;
glyphname = "k_ra_uMatra-khoj";
kernLeft = KU;
kernRight = KA;
lastChange = "2023-06-05 09:48:09 +0000";
layers = (
{
anchors = (
{
name = bottom;
pos = (557,-217);
},
{
name = nukta;
pos = (438,536);
},
{
name = top;
pos = (643,516);
}
);
layerId = "0717401B-DDB5-4983-85F2-A81AFE530D5E";
shapes = (
{
closed = 1;
nodes = (
(707,-228,o),
(827,-145,o),
(827,-11,cs),
(827,121,o),
(712,202,o),
(577,202,c),
(564,130,l),
(585,135,o),
(606,138,o),
(626,138,cs),
(697,138,o),
(757,101,o),
(757,23,cs),
(757,-70,o),
(670,-143,o),
(532,-143,cs),
(347,-143,o),
(180,-13,o),
(68,148,c),
(59,145,l),
(49,90,l),
(163,-86,o),
(357,-228,o),
(556,-228,cs)
);
},
{
closed = 1;
nodes = (
(767,65,l),
(718,124,l),
(531,-13,l),
(531,-20,l),
(592,-73,l)
);
},
{
closed = 1;
nodes = (
(370,409,l),
(335,479,o),
(297,536,o),
(252,536,cs),
(95,536,ls),
(87,536,o),
(81,538,o),
(77,549,cs),
(69,573,l),
(35,573,l),
(66,468,ls),
(70,455,o),
(76,453,o),
(90,453,cs),
(264,453,ls),
(300,453,o),
(317,435,o),
(339,378,c)
);
},
{
closed = 1;
nodes = (
(503,15,o),
(676,213,o),
(676,335,cs),
(676,410,o),
(611,509,o),
(520,509,cs),
(469,509,o),
(412,477,o),
(344,433,cs),
(272,386,o),
(165,310,o),
(165,258,cs),
(165,226,o),
(205,184,o),
(244,184,cs),
(295,184,o),
(343,259,o),
(372,333,c),
(437,394,o),
(514,433,o),
(558,433,cs),
(595,433,o),
(616,403,o),
(616,367,cs),
(616,306,o),
(548,234,o),
(490,193,c),
(418,170,o),
(356,136,o),
(356,95,cs),
(356,60,o),
(394,15,o),
(429,15,cs)
);
}
);
width = 857;
},
{
anchors = (
{
name = bottom;
pos = (577,-264);
},
{
name = nukta;
pos = (502,540);
},
{
name = top;
pos = (693,516);
}
);
layerId = "A430B39A-257A-41FC-BEA9-652C696FFEF7";
shapes = (
{
closed = 1;
nodes = (
(751,-277,o),
(875,-187,o),
(875,-38,cs),
(875,92,o),
(737,207,o),
(594,209,c),
(583,71,l),
(608,93,o),
(635,105,o),
(669,105,cs),
(722,105,o),
(774,55,o),
(774,14,cs),
(774,-94,o),
(676,-152,o),
(546,-152,cs),
(349,-152,o),
(175,-22,o),
(67,157,c),
(53,156,l),
(30,77,l),
(140,-126,o),
(358,-277,o),
(582,-277,cs)
);
},
{
closed = 1;
nodes = (
(807,43,l),
(743,118,l),
(537,-33,l),
(537,-50,l),
(622,-107,l)
);
},
{
closed = 1;
nodes = (
(384,425,l),
(338,513,o),
(302,560,o),
(250,560,cs),
(93,560,ls),
(87,560,o),
(83,562,o),
(81,567,cs),
(73,590,l),
(20,590,l),
(54,467,ls),
(58,451,o),
(66,444,o),
(82,444,cs),
(305,444,ls),
(329,444,o),
(332,432,o),
(348,390,c)
);
},
{
closed = 1;
nodes = (
(539,-16,o),
(716,182,o),
(716,318,cs),
(716,422,o),
(634,528,o),
(534,528,cs),
(480,528,o),
(414,499,o),
(345,455,cs),
(217,373,o),
(161,322,o),
(161,272,cs),
(161,224,o),
(211,172,o),
(260,172,cs),
(307,172,o),
(357,218,o),
(405,327,c),
(453,375,o),
(530,415,o),
(582,415,cs),
(611,415,o),
(625,394,o),
(624,364,cs),
(622,314,o),
(564,240,o),
(510,202,c),
(438,179,o),
(355,140,o),
(355,84,cs),
(355,37,o),
(400,-16,o),
(447,-16,cs)
);
}
);
width = 890;
}
);
metricLeft = "ka_uMatra-khoj";
metricRight = "ka_uMatra-khoj";
script = khoj;
},
{
category = Letter;
glyphname = "k_ssa-khoj";
kernLeft = KSSA;
kernRight = AA;
lastChange = "2023-06-05 09:48:09 +0000";
layers = (
{
anchors = (
{
name = bottom;
pos = (684,31);
},
{
name = nukta;
pos = (378,600);
},
{
name = top;
pos = (588,600);
}
);
layerId = "0717401B-DDB5-4983-85F2-A81AFE530D5E";
shapes = (
{
closed = 1;
nodes = (
(334,-18,o),
(391,21,o),
(391,60,cs),
(391,92,o),
(352,147,o),
(313,147,cs),
(275,147,o),
(254,95,o),
(234,46,c),
(266,72,l),
(250,68,o),
(232,65,o),
(215,65,cs),
(165,65,o),
(119,87,o),
(119,141,cs),
(119,198,o),
(169,230,o),
(227,269,cs),
(301,319,o),
(368,367,o),
(368,445,cs),
(368,528,o),
(293,604,o),
(202,604,cs),
(131,604,o),
(81,558,o),
(81,489,cs),
(81,367,o),
(237,237,o),
(373,237,cs),
(430,237,o),
(509,265,o),
(556,300,c),
(537,389,l),
(494,341,o),
(405,301,o),
(332,301,cs),
(237,301,o),
(161,364,o),
(161,451,cs),
(161,505,o),
(191,542,o),
(235,542,cs),
(274,542,o),
(299,514,o),
(299,477,cs),
(299,420,o),
(238,377,o),
(168,329,cs),
(86,272,o),
(45,236,o),
(45,177,cs),
(45,86,o),
(140,-20,o),
(261,-19,cs)
);
},
{
closed = 1;
nodes = (
(416,-240,o),
(468,-222,o),
(468,-189,cs),
(468,-174,o),
(460,-144,o),
(451,-127,c),
(421,-144,o),
(383,-156,o),
(349,-156,cs),
(293,-156,o),
(273,-123,o),
(273,-76,cs),
(273,-42,o),
(284,-5,o),
(312,28,c),
(237,45,l),
(226,9,o),
(222,-21,o),
(222,-49,cs),
(222,-162,o),
(286,-240,o),
(374,-240,cs)
);
},
{
closed = 1;
nodes = (
(582,0,l),
(604,84,o),
(616,192,o),
(616,293,cs),
(616,400,o),
(602,514,o),
(578,600,c),
(502,600,l),
(522,516,o),
(534,430,o),
(534,340,cs),
(534,253,o),
(523,164,o),
(502,83,c),
(505,70,o),
(544,4,o),
(558,-9,c)
);
}
);
width = 701;
},
{
anchors = (
{
name = bottom;
pos = (770,10);
},
{
name = nukta;
pos = (389,600);
},
{
name = top;
pos = (642,613);
}
);
layerId = "A430B39A-257A-41FC-BEA9-652C696FFEF7";
shapes = (
{
closed = 1;
nodes = (
(356,-49,o),
(424,-3,o),
(424,49,cs),
(424,100,o),
(372,164,o),
(325,164,cs),
(289,164,o),
(258,133,o),
(230,60,c),
(265,88,l),
(247,80,o),
(227,76,o),
(208,76,cs),
(171,76,o),
(138,92,o),
(138,128,cs),
(138,177,o),
(190,214,o),
(248,254,cs),
(322,305,o),
(403,354,o),
(403,442,cs),
(403,541,o),
(314,628,o),
(203,628,cs),
(116,628,o),
(55,576,o),
(55,494,cs),
(55,356,o),
(238,207,o),
(396,207,cs),
(476,207,o),
(558,247,o),
(591,276,c),
(570,414,l),
(513,342,o),
(405,306,o),
(332,306,cs),
(236,306,o),
(177,366,o),
(177,433,cs),
(177,488,o),
(216,527,o),
(256,527,cs),
(282,527,o),
(298,511,o),
(298,485,cs),
(298,448,o),
(262,411,o),
(167,347,cs),
(65,278,o),
(30,237,o),
(30,171,cs),
(30,63,o),
(148,-49,o),
(271,-49,cs)
);
},
{
closed = 1;
nodes = (
(447,-258,o),
(505,-235,o),
(505,-181,cs),
(505,-150,o),
(486,-115,o),
(464,-95,c),
(432,-118,o),
(398,-131,o),
(353,-131,cs),
(310,-131,o),
(292,-115,o),
(292,-87,cs),
(292,-59,o),
(309,-31,o),
(328,-8,c),
(225,26,l),
(216,-4,o),
(212,-33,o),
(212,-61,cs),
(212,-181,o),
(283,-258,o),
(385,-258,cs)
);
},
{
closed = 1;
nodes = (
(641,-13,l),
(663,87,o),
(672,202,o),
(672,292,cs),
(672,396,o),
(660,501,o),
(634,613,c),
(523,613,l),
(542,525,o),
(550,438,o),
(550,360,cs),
(550,269,o),
(539,176,o),
(515,85,c),
(533,54,o),
(586,-9,o),
(603,-22,c)
);
}
);
width = 747;
}
);
metricRight = "aaMatra-khoj";
note = KSSA;
script = khoj;
},
{
glyphname = "k_ssa_iMatra-khoj";
kernLeft = KSSA;
kernRight = LI;
lastChange = "2023-06-05 09:48:09 +0000";
layers = (
{
anchors = (
{
name = bottom;
pos = (706,31);
},
{
name = nukta;
pos = (400,600);
},
{
name = top;
pos = (1067,892);
}
);
layerId = "0717401B-DDB5-4983-85F2-A81AFE530D5E";
shapes = (
{
closed = 1;
nodes = (
(603,-1,l),
(688,294,o),
(779,589,o),
(858,717,cs),
(898,781,o),
(947,814,o),
(1008,814,cs),
(1069,814,o),
(1123,782,o),
(1164,736,c),
(1173,738,l),
(1168,809,l),
(1122,859,o),
(1058,895,o),
(984,895,cs),
(906,895,o),
(845,858,o),
(800,792,cs),
(733,693,o),
(656,446,o),
(594,224,c),
(606,208,l),
(608,237,o),
(610,265,o),
(610,303,cs),
(610,400,o),
(598,512,o),
(577,600,c),
(502,600,l),
(528,496,o),
(538,391,o),
(538,280,cs),
(538,206,o),
(534,129,o),
(528,48,c),
(590,-4,l)
);
},
{
closed = 1;
nodes = (
(416,-240,o),
(468,-222,o),
(468,-189,cs),
(468,-174,o),
(460,-144,o),
(451,-127,c),
(421,-144,o),
(383,-156,o),
(349,-156,cs),
(293,-156,o),
(273,-123,o),
(273,-76,cs),
(273,-42,o),
(284,-5,o),
(312,28,c),
(237,45,l),
(226,9,o),
(222,-21,o),
(222,-49,cs),
(222,-162,o),
(286,-240,o),
(374,-240,cs)
);
},
{
closed = 1;
nodes = (
(334,-18,o),
(391,21,o),
(391,60,cs),
(391,92,o),
(352,147,o),
(313,147,cs),
(275,147,o),
(254,95,o),
(234,46,c),
(293,83,l),
(272,72,o),
(243,65,o),
(215,65,cs),
(165,65,o),
(119,87,o),
(119,141,cs),
(119,198,o),
(169,230,o),
(227,269,cs),
(301,319,o),
(368,367,o),
(368,445,cs),
(368,528,o),
(293,604,o),
(202,604,cs),
(131,604,o),
(81,558,o),
(81,489,cs),
(81,367,o),
(237,237,o),
(373,237,cs),
(444,237,o),
(518,272,o),
(556,300,c),
(537,389,l),
(503,350,o),
(416,301,o),
(332,301,cs),
(237,301,o),
(161,364,o),
(161,451,cs),
(161,505,o),
(191,542,o),
(235,542,cs),
(274,542,o),
(299,514,o),
(299,477,cs),
(299,420,o),
(238,377,o),
(168,329,cs),
(83,270,o),
(45,236,o),
(45,178,cs),
(45,86,o),
(140,-21,o),
(261,-19,cs)
);
}
);
width = 853;
},
{
anchors = (
{
name = bottom;
pos = (759,11);
},
{
name = nukta;
pos = (389,600);
},
{
name = top;
pos = (1155,918);
}
);
layerId = "A430B39A-257A-41FC-BEA9-652C696FFEF7";
shapes = (
{
closed = 1;
nodes = (
(659,-8,l),
(733,214,o),
(824,479,o),
(888,631,cs),
(944,764,o),
(1009,801,o),
(1084,801,cs),
(1142,801,o),
(1206,771,o),
(1248,727,c),
(1261,732,l),
(1245,829,l),
(1180,888,o),
(1113,918,o),
(1038,918,cs),
(932,918,o),
(853,859,o),
(792,720,cs),
(744,610,o),
(691,439,o),
(628,219,c),
(654,176,l),
(658,214,o),
(660,256,o),
(660,299,cs),
(660,404,o),
(651,520,o),
(632,613,c),
(523,613,l),
(546,503,o),
(557,388,o),
(557,267,cs),
(557,197,o),
(554,126,o),
(547,53,c),
(624,-17,l)
);
},
{
closed = 1;
nodes = (
(447,-258,o),
(505,-235,o),
(505,-181,cs),
(505,-150,o),
(486,-115,o),
(464,-95,c),
(432,-118,o),
(398,-131,o),
(353,-131,cs),
(310,-131,o),
(292,-115,o),
(292,-87,cs),
(292,-59,o),
(309,-31,o),
(328,-8,c),
(225,26,l),
(216,-4,o),
(212,-33,o),
(212,-61,cs),
(212,-181,o),
(283,-258,o),
(385,-258,cs)
);
},
{
closed = 1;
nodes = (
(356,-49,o),
(424,-3,o),
(424,49,cs),
(424,100,o),
(372,164,o),
(325,164,cs),
(289,164,o),
(258,133,o),
(230,60,c),
(265,88,l),
(247,80,o),
(227,76,o),
(208,76,cs),
(171,76,o),
(138,92,o),
(138,128,cs),
(138,177,o),
(190,214,o),
(248,254,cs),
(322,305,o),
(403,354,o),
(403,442,cs),
(403,541,o),
(314,628,o),
(203,628,cs),
(116,628,o),
(55,576,o),
(55,494,cs),
(55,356,o),
(238,207,o),
(396,207,cs),
(476,207,o),
(558,247,o),
(591,276,c),
(570,414,l),
(513,342,o),
(405,306,o),
(332,306,cs),
(236,306,o),
(177,366,o),
(177,433,cs),
(177,488,o),
(216,527,o),
(256,527,cs),
(282,527,o),
(298,511,o),
(298,485,cs),
(298,448,o),
(262,411,o),
(167,347,cs),
(65,278,o),
(30,237,o),
(30,171,cs),
(30,63,o),
(148,-49,o),
(271,-49,cs)
);
}
);
width = 921;
}
);
metricLeft = "k_ssa-khoj";
metricRight = "gga_iMatra-khoj";
script = khoj;
},
{
glyphname = "k_ssa_iiMatra-khoj";
kernLeft = KSSA;
kernRight = LII;
lastChange = "2023-06-05 09:48:09 +0000";
layers = (
{
anchors = (
{
name = bottom;
pos = (718,-92);
},
{
name = nukta;
pos = (400,600);
},
{
name = top;
pos = (939,656);
}
);
layerId = "0717401B-DDB5-4983-85F2-A81AFE530D5E";
shapes = (
{
closed = 1;
nodes = (
(1083,-240,o),
(1122,-221,o),
(1124,-187,cs),
(1126,-154,o),
(1094,-129,o),
(1062,-114,c),
(1052,-138,o),
(1020,-158,o),
(983,-158,cs),
(939,-158,o),
(919,-127,o),
(919,-54,cs),
(919,98,o),
(962,237,o),
(962,395,cs),
(962,519,o),
(908,661,o),
(823,661,cs),
(785,661,o),
(749,628,o),
(713,549,cs),
(675,465,o),
(630,332,o),
(592,209,c),
(606,208,l),
(608,237,o),
(610,267,o),
(610,298,cs),
(610,401,o),
(598,512,o),
(577,600,c),
(502,600,l),
(528,496,o),
(538,391,o),
(538,280,cs),
(538,206,o),
(534,129,o),
(528,48,c),
(590,-4,l),
(603,-1,l),
(641,128,o),
(724,364,o),
(771,472,cs),
(800,539,o),
(828,578,o),
(852,578,cs),
(878,578,o),
(884,526,o),
(884,482,cs),
(884,352,o),
(837,145,o),
(837,27,cs),
(837,-107,o),
(906,-240,o),
(1043,-240,cs)
);
},
{
closed = 1;
nodes = (
(416,-240,o),
(468,-222,o),
(468,-189,cs),
(468,-174,o),
(460,-144,o),
(451,-127,c),
(421,-144,o),
(383,-156,o),
(349,-156,cs),
(293,-156,o),
(273,-123,o),
(273,-76,cs),
(273,-42,o),
(284,-5,o),
(312,28,c),
(237,45,l),
(226,9,o),
(222,-21,o),
(222,-49,cs),
(222,-162,o),
(286,-240,o),
(374,-240,cs)
);
},
{
closed = 1;
nodes = (
(334,-18,o),
(391,21,o),
(391,60,cs),
(391,92,o),
(352,147,o),
(313,147,cs),
(275,147,o),
(254,95,o),
(234,46,c),
(293,83,l),
(272,72,o),
(243,65,o),
(215,65,cs),
(165,65,o),
(119,87,o),
(119,141,cs),
(119,198,o),
(169,230,o),
(227,269,cs),
(301,319,o),
(368,367,o),
(368,445,cs),
(368,528,o),
(293,604,o),
(202,604,cs),
(131,604,o),
(81,558,o),
(81,489,cs),
(81,367,o),
(237,237,o),
(373,237,cs),
(444,237,o),
(518,272,o),
(556,300,c),
(537,389,l),
(503,350,o),
(416,301,o),
(332,301,cs),
(237,301,o),
(161,364,o),
(161,451,cs),
(161,505,o),
(191,542,o),
(235,542,cs),
(274,542,o),
(299,514,o),
(299,477,cs),
(299,420,o),
(238,377,o),
(168,329,cs),
(83,270,o),
(45,236,o),
(45,178,cs),
(45,86,o),
(140,-21,o),
(261,-19,cs)
);
}
);
width = 1054;
},
{
anchors = (
{
name = bottom;
pos = (752,-142);
},
{
name = nukta;
pos = (389,600);
},
{
name = top;
pos = (1005,683);
}
);
layerId = "A430B39A-257A-41FC-BEA9-652C696FFEF7";
shapes = (
{
closed = 1;
nodes = (
(1174,-262,o),
(1218,-234,o),
(1219,-189,cs),
(1220,-152,o),
(1186,-122,o),
(1147,-101,c),
(1130,-135,o),
(1097,-157,o),
(1060,-157,cs),
(1022,-157,o),
(1001,-136,o),
(1001,-69,cs),
(1001,61,o),
(1048,245,o),
(1048,374,cs),
(1048,539,o),
(961,683,o),
(874,683,cs),
(826,683,o),
(786,646,o),
(748,557,cs),
(711,471,o),
(672,364,o),
(626,197,c),
(654,176,l),
(658,214,o),
(660,256,o),
(660,299,cs),
(660,404,o),
(651,520,o),
(632,613,c),
(523,613,l),
(546,503,o),
(557,388,o),
(557,267,cs),
(557,197,o),
(554,126,o),
(547,53,c),
(624,-17,l),
(658,-8,l),
(712,148,o),
(793,350,o),
(834,449,cs),
(861,515,o),
(882,556,o),
(903,556,cs),
(916,556,o),
(925,537,o),
(925,496,cs),
(925,369,o),
(878,144,o),
(878,33,cs),
(878,-119,o),
(971,-262,o),
(1117,-262,cs)
);
},
{
closed = 1;
nodes = (
(447,-258,o),
(505,-235,o),
(505,-181,cs),
(505,-150,o),
(486,-115,o),
(464,-95,c),
(432,-118,o),
(398,-131,o),
(353,-131,cs),
(310,-131,o),
(292,-115,o),
(292,-87,cs),
(292,-59,o),
(309,-31,o),
(328,-8,c),
(225,26,l),
(216,-4,o),
(212,-33,o),
(212,-61,cs),
(212,-181,o),
(283,-258,o),
(385,-258,cs)
);
},
{
closed = 1;
nodes = (
(356,-49,o),
(424,-3,o),
(424,49,cs),
(424,100,o),
(372,164,o),
(325,164,cs),
(289,164,o),
(258,133,o),
(230,60,c),
(265,88,l),
(247,80,o),
(227,76,o),
(208,76,cs),
(171,76,o),
(138,92,o),
(138,128,cs),
(138,177,o),
(190,214,o),
(248,254,cs),
(322,305,o),
(403,354,o),
(403,442,cs),
(403,541,o),
(314,628,o),
(203,628,cs),
(116,628,o),
(55,576,o),
(55,494,cs),
(55,356,o),
(238,207,o),
(396,207,cs),
(476,207,o),
(558,247,o),
(591,276,c),
(570,414,l),
(513,342,o),
(405,306,o),
(332,306,cs),
(236,306,o),
(177,366,o),
(177,433,cs),
(177,488,o),
(216,527,o),
(256,527,cs),
(282,527,o),
(298,511,o),
(298,485,cs),
(298,448,o),
(262,411,o),
(167,347,cs),
(65,278,o),
(30,237,o),
(30,171,cs),
(30,63,o),
(148,-49,o),
(271,-49,cs)
);
}
);
width = 1133;
}
);
metricLeft = "k_ssa-khoj";
metricRight = "gga_iiMatra-khoj";
script = khoj;
},
{
glyphname = "k_ssa_uMatra-khoj";
kernLeft = LU;
kernRight = KHU;
lastChange = "2023-06-05 09:48:09 +0000";
layers = (
{
anchors = (
{
name = bottom;
pos = (501,-329);
},
{
name = nukta;
pos = (408,600);
},
{
name = top;
pos = (634,600);
}
);
layerId = "0717401B-DDB5-4983-85F2-A81AFE530D5E";
shapes = (
{
closed = 1;
nodes = (
(348,28,o),
(405,67,o),
(405,106,cs),
(405,138,o),
(366,193,o),
(327,193,cs),
(289,193,o),
(266,141,o),
(246,92,c),
(307,129,l),
(283,116,o),
(254,109,o),
(227,109,cs),
(181,109,o),
(140,129,o),
(140,176,cs),
(140,220,o),
(179,239,o),
(247,274,cs),
(329,316,o),
(388,374,o),
(388,446,cs),
(388,527,o),
(313,604,o),
(222,604,cs),
(151,604,o),
(101,558,o),
(101,489,cs),
(101,366,o),
(258,247,o),
(391,247,cs),
(464,247,o),
(558,284,o),
(606,312,c),
(585,399,l),
(541,360,o),
(437,311,o),
(349,311,cs),
(258,311,o),
(181,364,o),
(181,451,cs),
(181,505,o),
(211,542,o),
(255,542,cs),
(294,542,o),
(319,514,o),
(319,477,cs),
(319,409,o),
(234,360,o),
(187,335,cs),
(127,303,o),
(65,271,o),
(65,202,cs),
(65,115,o),
(165,25,o),
(275,27,cs)
);
},
{
closed = 1;
nodes = (
(653,-341,o),
(780,-272,o),
(780,-155,cs),
(780,-57,o),
(690,21,o),
(606,21,cs),
(566,21,o),
(528,3,o),
(492,-31,c),
(506,-50,o),
(536,-72,o),
(565,-89,c),
(600,-63,o),
(627,-49,o),
(653,-49,cs),
(690,-49,o),
(710,-77,o),
(710,-114,cs),
(710,-208,o),
(581,-254,o),
(459,-254,cs),
(269,-254,o),
(115,-143,o),
(20,15,c),
(11,12,l),
(0,-43,l),
(98,-219,o),
(297,-341,o),
(500,-341,cs)
);
},
{
closed = 1;
nodes = (
(416,-164,o),
(462,-149,o),
(462,-115,cs),
(462,-100,o),
(453,-70,o),
(442,-53,c),
(414,-70,o),
(381,-80,o),
(350,-80,cs),
(303,-80,o),
(286,-58,o),
(286,-18,cs),
(286,3,o),
(291,27,o),
(303,50,c),
(240,59,l),
(236,40,o),
(235,21,o),
(235,7,cs),
(235,-84,o),
(281,-164,o),
(375,-164,cs)
);
},
{
closed = 1;
nodes = (
(648,-18,l),
(657,66,o),
(663,159,o),
(663,253,cs),
(663,367,o),
(653,491,o),
(626,600,c),
(550,600,l),
(573,505,o),
(584,381,o),
(584,259,cs),
(584,160,o),
(577,62,o),
(564,-19,c)
);
}
);
width = 760;
},
{
anchors = (
{
name = bottom;
pos = (564,-390);
},
{
name = nukta;
pos = (463,600);
},
{
name = top;
pos = (716,613);
}
);
layerId = "A430B39A-257A-41FC-BEA9-652C696FFEF7";
shapes = (
{
closed = 1;
nodes = (
(389,-19,o),
(457,27,o),
(457,79,cs),
(457,130,o),
(405,194,o),
(358,194,cs),
(322,194,o),
(291,163,o),
(263,90,c),
(298,118,l),
(280,110,o),
(260,106,o),
(241,106,cs),
(204,106,o),
(171,122,o),
(171,158,cs),
(171,205,o),
(224,231,o),
(283,265,cs),
(355,307,o),
(436,354,o),
(436,442,cs),
(436,541,o),
(347,628,o),
(236,628,cs),
(149,628,o),
(88,576,o),
(88,494,cs),
(88,356,o),
(271,220,o),
(429,220,cs),
(509,220,o),
(611,247,o),
(644,276,c),
(633,417,l),
(576,345,o),
(438,319,o),
(365,319,cs),
(269,319,o),
(210,366,o),
(210,433,cs),
(210,488,o),
(249,527,o),
(289,527,cs),
(315,527,o),
(331,511,o),
(331,485,cs),
(331,435,o),
(276,401,o),
(216,364,cs),
(143,319,o),
(63,275,o),
(63,187,cs),
(63,86,o),
(181,-19,o),
(304,-19,cs)
);
},
{
closed = 1;
nodes = (
(756,-393,o),
(873,-289,o),
(873,-167,cs),
(873,-61,o),
(779,43,o),
(670,43,cs),
(621,43,o),
(571,18,o),
(521,-28,c),
(541,-54,o),
(588,-93,o),
(631,-115,c),
(667,-83,o),
(703,-64,o),
(728,-64,cs),
(753,-64,o),
(769,-82,o),
(769,-113,cs),
(769,-188,o),
(678,-264,o),
(496,-264,cs),
(273,-264,o),
(127,-152,o),
(16,28,c),
(0,24,l),
(-15,-57,l),
(89,-241,o),
(298,-393,o),
(543,-393,cs)
);
},
{
closed = 1;
nodes = (
(462,-204,o),
(516,-183,o),
(516,-133,cs),
(516,-104,o),
(499,-71,o),
(478,-52,c),
(448,-74,o),
(416,-86,o),
(378,-86,cs),
(338,-86,o),
(323,-71,o),
(323,-45,cs),
(323,-19,o),
(339,8,o),
(357,29,c),
(260,61,l),
(252,33,o),
(248,6,o),
(248,-20,cs),
(248,-133,o),
(311,-204,o),
(405,-204,cs)
);
},
{
closed = 1;
nodes = (
(737,-9,l),
(746,77,o),
(750,163,o),
(750,244,cs),
(750,373,o),
(736,500,o),
(708,613,c),
(586,613,l),
(612,523,o),
(627,391,o),
(627,250,cs),
(627,165,o),
(622,81,o),
(612,-9,c)
);
}
);
width = 863;
}
);
script = khoj;
},
{
glyphname = "k_ssa_ra-khoj";
kernLeft = KSSA;
kernRight = AA;
lastChange = "2023-06-05 09:48:09 +0000";
layers = (
{
anchors = (
{
name = bottom;
pos = (713,41);
},
{
name = nukta;
pos = (390,572);
},
{
name = top;
pos = (666,600);
}
);
layerId = "0717401B-DDB5-4983-85F2-A81AFE530D5E";
shapes = (
{
closed = 1;
nodes = (
(334,-18,o),
(391,21,o),
(391,60,cs),
(391,92,o),
(352,147,o),
(313,147,cs),
(275,147,o),
(254,95,o),
(234,46,c),
(293,83,l),
(272,72,o),
(243,65,o),
(215,65,cs),
(165,65,o),
(119,87,o),
(119,141,cs),
(119,198,o),
(169,230,o),
(227,269,cs),
(304,321,o),
(368,368,o),
(368,445,cs),
(368,528,o),
(293,604,o),
(202,604,cs),
(131,604,o),
(81,558,o),
(81,489,cs),
(81,368,o),
(234,257,o),
(372,257,cs),
(471,257,o),
(571,315,o),
(636,385,c),
(615,483,l),
(541,389,o),
(440,321,o),
(328,321,cs),
(239,321,o),
(161,364,o),
(161,451,cs),
(161,505,o),
(191,542,o),
(235,542,cs),
(274,542,o),
(299,514,o),
(299,477,cs),
(299,420,o),
(238,377,o),
(168,329,cs),
(86,272,o),
(45,236,o),
(45,176,cs),
(45,85,o),
(141,-20,o),
(261,-19,cs)
);
},
{
closed = 1;
nodes = (
(416,-240,o),
(468,-222,o),
(468,-189,cs),
(468,-174,o),
(460,-144,o),
(451,-127,c),
(421,-144,o),
(383,-156,o),
(349,-156,cs),
(293,-156,o),
(273,-123,o),
(273,-76,cs),
(273,-42,o),
(284,-5,o),
(312,28,c),
(237,45,l),
(226,9,o),
(222,-21,o),
(222,-49,cs),
(222,-162,o),
(286,-240,o),
(374,-240,cs)
);
},
{
closed = 1;
nodes = (
(646,211,l),
(653,309,l),
(392,160,l),
(391,153,l),
(452,95,l)
);
},
{
closed = 1;
nodes = (
(660,0,l),
(682,84,o),
(694,192,o),
(694,293,cs),
(694,400,o),
(680,514,o),
(656,600,c),
(580,600,l),
(600,516,o),
(612,430,o),
(612,340,cs),
(612,253,o),
(601,164,o),
(580,83,c),
(583,70,o),
(622,4,o),
(636,-9,c)
);
}
);
width = 779;
},
{
anchors = (
{
name = bottom;
pos = (712,23);
},
{
name = nukta;
pos = (419,600);
},
{
name = top;
pos = (736,613);
}
);
layerId = "A430B39A-257A-41FC-BEA9-652C696FFEF7";
shapes = (
{
closed = 1;
nodes = (
(356,-49,o),
(424,-3,o),
(424,49,cs),
(424,100,o),
(372,164,o),
(325,164,cs),
(289,164,o),
(258,133,o),
(230,60,c),
(265,88,l),
(247,80,o),
(227,76,o),
(208,76,cs),
(171,76,o),
(138,92,o),
(138,128,cs),
(138,177,o),
(190,214,o),
(248,254,cs),
(322,305,o),
(403,354,o),
(403,442,cs),
(403,541,o),
(314,628,o),
(203,628,cs),
(116,628,o),
(55,576,o),
(55,494,cs),
(55,359,o),
(236,239,o),
(393,239,cs),
(495,239,o),
(615,308,o),
(688,390,c),
(658,535,l),
(595,434,o),
(453,331,o),
(333,331,cs),
(233,331,o),
(177,369,o),
(177,433,cs),
(177,488,o),
(216,527,o),
(256,527,cs),
(282,527,o),
(298,511,o),
(298,485,cs),
(298,448,o),
(262,411,o),
(167,347,cs),
(65,278,o),
(30,237,o),
(30,171,cs),
(30,63,o),
(148,-49,o),
(271,-49,cs)
);
},
{
closed = 1;
nodes = (
(447,-258,o),
(505,-235,o),
(505,-181,cs),
(505,-150,o),
(486,-115,o),
(464,-95,c),
(432,-118,o),
(398,-131,o),
(353,-131,cs),
(310,-131,o),
(292,-115,o),
(292,-87,cs),
(292,-59,o),
(309,-31,o),
(328,-8,c),
(225,26,l),
(216,-4,o),
(212,-33,o),
(212,-61,cs),
(212,-181,o),
(283,-258,o),
(385,-258,cs)
);
},
{
closed = 1;
nodes = (
(709,206,l),
(716,344,l),
(410,162,l),
(410,143,l),
(491,72,l)
);
},
{
closed = 1;
nodes = (
(735,-13,l),
(757,87,o),
(766,202,o),
(766,292,cs),
(766,396,o),
(754,501,o),
(728,613,c),
(617,613,l),
(636,525,o),
(644,438,o),
(644,360,cs),
(644,269,o),
(635,176,o),
(612,75,c),
(629,49,o),
(680,-9,o),
(697,-22,c)
);
}
);
width = 841;
}
);
metricLeft = "k_ssa-khoj";
metricRight = "k_ssa-khoj";
script = khoj;
},
{
glyphname = "k_ssa_ra_iMatra-khoj";
kernLeft = KSSA;
kernRight = LI;
lastChange = "2023-06-05 09:48:09 +0000";
layers = (
{
anchors = (
{
name = bottom;
pos = (713,41);
},
{
name = nukta;
pos = (378,600);
},
{
name = top;
pos = (1145,892);
}
);
layerId = "0717401B-DDB5-4983-85F2-A81AFE530D5E";
shapes = (
{
closed = 1;
nodes = (
(681,-1,l),
(766,294,o),
(857,589,o),
(936,717,cs),
(976,781,o),
(1025,814,o),
(1086,814,cs),
(1147,814,o),
(1201,782,o),
(1242,736,c),
(1251,738,l),
(1246,809,l),
(1200,859,o),
(1136,895,o),
(1062,895,cs),
(984,895,o),
(923,858,o),
(878,792,cs),
(811,693,o),
(734,446,o),
(672,224,c),
(684,208,l),
(686,237,o),
(688,265,o),
(688,303,cs),
(688,400,o),
(676,512,o),
(655,600,c),
(580,600,l),
(606,496,o),
(616,391,o),
(616,280,cs),
(616,206,o),
(612,129,o),
(606,48,c),
(668,-4,l)
);
},
{
closed = 1;
nodes = (
(416,-240,o),
(468,-222,o),
(468,-189,cs),
(468,-174,o),
(460,-144,o),
(451,-127,c),
(421,-144,o),
(383,-156,o),
(349,-156,cs),
(293,-156,o),
(273,-123,o),
(273,-76,cs),
(273,-42,o),
(284,-5,o),
(312,28,c),
(237,45,l),
(226,9,o),
(222,-21,o),
(222,-49,cs),
(222,-162,o),
(286,-240,o),
(374,-240,cs)
);
},
{
closed = 1;
nodes = (
(334,-18,o),
(391,21,o),
(391,60,cs),
(391,92,o),
(352,147,o),
(313,147,cs),
(275,147,o),
(254,95,o),
(234,46,c),
(293,83,l),
(272,72,o),
(243,65,o),
(215,65,cs),
(165,65,o),
(119,87,o),
(119,141,cs),
(119,198,o),
(169,230,o),
(227,269,cs),
(304,321,o),
(368,368,o),
(368,445,cs),
(368,528,o),
(293,604,o),
(202,604,cs),
(131,604,o),
(81,558,o),
(81,489,cs),
(81,368,o),
(234,257,o),
(372,257,cs),
(471,257,o),
(571,315,o),
(636,385,c),
(615,483,l),
(541,389,o),
(440,321,o),
(328,321,cs),
(239,321,o),
(161,364,o),
(161,451,cs),
(161,505,o),
(191,542,o),
(235,542,cs),
(274,542,o),
(299,514,o),
(299,477,cs),
(299,420,o),
(238,377,o),
(168,329,cs),
(86,272,o),
(45,236,o),
(45,176,cs),
(45,85,o),
(141,-20,o),
(261,-19,cs)
);
},
{
closed = 1;
nodes = (
(646,201,l),
(653,299,l),
(392,150,l),
(391,143,l),
(452,85,l)
);
}
);
width = 931;
},
{
anchors = (
{
name = bottom;
pos = (853,11);
},
{
name = nukta;
pos = (419,600);
},
{
name = top;
pos = (1249,918);
}
);
layerId = "A430B39A-257A-41FC-BEA9-652C696FFEF7";
shapes = (
{
closed = 1;
nodes = (
(753,-8,l),
(827,214,o),
(918,479,o),
(982,631,cs),
(1038,764,o),
(1103,801,o),
(1178,801,cs),
(1236,801,o),
(1300,771,o),
(1342,727,c),
(1355,732,l),
(1339,829,l),
(1274,888,o),
(1207,918,o),
(1132,918,cs),
(1026,918,o),
(947,859,o),
(886,720,cs),
(838,610,o),
(785,439,o),
(722,219,c),
(748,176,l),
(752,214,o),
(754,256,o),
(754,299,cs),
(754,404,o),
(745,520,o),
(726,613,c),
(617,613,l),
(640,503,o),
(651,388,o),
(651,267,cs),
(651,197,o),
(648,126,o),
(641,53,c),
(718,-17,l)
);
},
{
closed = 1;
nodes = (
(447,-258,o),
(505,-235,o),
(505,-181,cs),
(505,-150,o),
(486,-115,o),
(464,-95,c),
(432,-118,o),
(398,-131,o),
(353,-131,cs),
(310,-131,o),
(292,-115,o),
(292,-87,cs),
(292,-59,o),
(309,-31,o),
(328,-8,c),
(225,26,l),
(216,-4,o),
(212,-33,o),
(212,-61,cs),
(212,-181,o),
(283,-258,o),
(385,-258,cs)
);
},
{
closed = 1;
nodes = (
(356,-49,o),
(424,-3,o),
(424,49,cs),
(424,100,o),
(372,164,o),
(325,164,cs),
(289,164,o),
(258,133,o),
(230,60,c),
(265,88,l),
(247,80,o),
(227,76,o),
(208,76,cs),
(171,76,o),
(138,92,o),
(138,128,cs),
(138,177,o),
(190,214,o),
(248,254,cs),
(322,305,o),
(403,354,o),
(403,442,cs),
(403,541,o),
(314,628,o),
(203,628,cs),
(116,628,o),
(55,576,o),
(55,494,cs),
(55,359,o),
(236,239,o),
(393,239,cs),
(495,239,o),
(615,308,o),
(688,390,c),
(658,535,l),
(595,434,o),
(453,331,o),
(333,331,cs),
(233,331,o),
(177,369,o),
(177,433,cs),
(177,488,o),
(216,527,o),
(256,527,cs),
(282,527,o),
(298,511,o),
(298,485,cs),
(298,448,o),
(262,411,o),
(167,347,cs),
(65,278,o),
(30,237,o),
(30,171,cs),
(30,63,o),
(148,-49,o),
(271,-49,cs)
);
},
{
closed = 1;
nodes = (
(717,191,l),
(724,329,l),
(418,147,l),
(418,128,l),
(499,57,l)
);
}
);
width = 1015;
}
);
metricLeft = "k_ssa-khoj";
metricRight = "k_ssa_iMatra-khoj";
script = khoj;
},
{
glyphname = "k_ssa_ra_iiMatra-khoj";
kernLeft = KSSA;
kernRight = LII;
lastChange = "2023-06-05 09:48:09 +0000";
layers = (
{
anchors = (
{
name = bottom;
pos = (796,-92);
},
{
name = nukta;
pos = (378,600);
},
{
name = top;
pos = (1017,656);
}
);
layerId = "0717401B-DDB5-4983-85F2-A81AFE530D5E";
shapes = (
{
closed = 1;
nodes = (
(1163,-240,o),
(1200,-221,o),
(1202,-187,cs),
(1204,-154,o),
(1172,-129,o),
(1140,-114,c),
(1130,-138,o),
(1098,-158,o),
(1061,-158,cs),
(1015,-158,o),
(997,-127,o),
(997,-45,cs),
(997,83,o),
(1040,253,o),
(1040,385,cs),
(1040,548,o),
(974,661,o),
(901,661,cs),
(863,661,o),
(827,628,o),
(791,549,cs),
(756,472,o),
(711,341,o),
(670,209,c),
(684,208,l),
(686,237,o),
(688,265,o),
(688,303,cs),
(688,400,o),
(676,512,o),
(655,600,c),
(580,600,l),
(606,496,o),
(616,391,o),
(616,280,cs),
(616,206,o),
(612,129,o),
(606,48,c),
(668,-4,l),
(681,-1,l),
(721,135,o),
(807,376,o),
(849,472,cs),
(878,539,o),
(906,578,o),
(929,578,cs),
(956,578,o),
(962,527,o),
(962,482,cs),
(962,353,o),
(915,144,o),
(915,28,cs),
(915,-131,o),
(1003,-240,o),
(1116,-240,cs)
);
},
{
closed = 1;
nodes = (
(416,-240,o),
(468,-222,o),
(468,-189,cs),
(468,-174,o),
(460,-144,o),
(451,-127,c),
(421,-144,o),
(383,-156,o),
(349,-156,cs),
(293,-156,o),
(273,-123,o),
(273,-76,cs),
(273,-42,o),
(284,-5,o),
(312,28,c),
(237,45,l),
(226,9,o),
(222,-21,o),
(222,-49,cs),
(222,-162,o),
(286,-240,o),
(374,-240,cs)
);
},
{
closed = 1;
nodes = (
(334,-18,o),
(391,21,o),
(391,60,cs),
(391,92,o),
(352,147,o),
(313,147,cs),
(275,147,o),
(254,95,o),
(234,46,c),
(293,83,l),
(272,72,o),
(243,65,o),
(215,65,cs),
(165,65,o),
(119,87,o),
(119,141,cs),
(119,198,o),
(169,230,o),
(227,269,cs),
(304,321,o),
(368,368,o),
(368,445,cs),
(368,528,o),
(293,604,o),
(202,604,cs),
(131,604,o),
(81,558,o),
(81,489,cs),
(81,368,o),
(234,257,o),
(372,257,cs),
(471,257,o),
(571,315,o),
(636,385,c),
(615,483,l),
(541,389,o),
(440,321,o),
(328,321,cs),
(239,321,o),
(161,364,o),
(161,451,cs),
(161,505,o),
(191,542,o),
(235,542,cs),
(274,542,o),
(299,514,o),
(299,477,cs),
(299,420,o),
(238,377,o),
(168,329,cs),
(86,272,o),
(45,236,o),
(45,176,cs),
(45,85,o),
(141,-20,o),
(261,-19,cs)
);
},
{
closed = 1;
nodes = (
(646,201,l),
(653,299,l),
(392,150,l),
(391,143,l),
(452,85,l)
);
}
);
width = 1132;
},
{
anchors = (
{
name = bottom;
pos = (846,-142);
},
{
name = nukta;
pos = (419,600);
},
{
name = top;
pos = (1099,683);
}
);
layerId = "A430B39A-257A-41FC-BEA9-652C696FFEF7";
shapes = (
{
closed = 1;
nodes = (
(1268,-262,o),
(1312,-234,o),
(1313,-189,cs),
(1314,-152,o),
(1280,-122,o),
(1241,-101,c),
(1224,-135,o),
(1191,-157,o),
(1154,-157,cs),
(1116,-157,o),
(1095,-136,o),
(1095,-69,cs),
(1095,61,o),
(1142,245,o),
(1142,374,cs),
(1142,539,o),
(1055,683,o),
(968,683,cs),
(920,683,o),
(880,646,o),
(842,557,cs),
(805,471,o),
(766,364,o),
(720,197,c),
(748,176,l),
(752,214,o),
(754,256,o),
(754,299,cs),
(754,404,o),
(745,520,o),
(726,613,c),
(617,613,l),
(640,503,o),
(651,388,o),
(651,267,cs),
(651,197,o),
(648,126,o),
(641,53,c),
(718,-17,l),
(752,-8,l),
(806,148,o),
(887,350,o),
(928,449,cs),
(955,515,o),
(976,556,o),
(997,556,cs),
(1010,556,o),
(1019,537,o),
(1019,496,cs),
(1019,369,o),
(972,144,o),
(972,33,cs),
(972,-119,o),
(1065,-262,o),
(1211,-262,cs)
);
},
{
closed = 1;
nodes = (
(447,-258,o),
(505,-235,o),
(505,-181,cs),
(505,-150,o),
(486,-115,o),
(464,-95,c),
(432,-118,o),
(398,-131,o),
(353,-131,cs),
(310,-131,o),
(292,-115,o),
(292,-87,cs),
(292,-59,o),
(309,-31,o),
(328,-8,c),
(225,26,l),
(216,-4,o),
(212,-33,o),
(212,-61,cs),
(212,-181,o),
(283,-258,o),
(385,-258,cs)
);
},
{
closed = 1;
nodes = (
(356,-49,o),
(424,-3,o),
(424,49,cs),
(424,100,o),
(372,164,o),
(325,164,cs),
(289,164,o),
(258,133,o),
(230,60,c),
(265,88,l),
(247,80,o),
(227,76,o),
(208,76,cs),
(171,76,o),
(138,92,o),
(138,128,cs),
(138,177,o),
(190,214,o),
(248,254,cs),
(322,305,o),
(403,354,o),
(403,442,cs),
(403,541,o),
(314,628,o),
(203,628,cs),
(116,628,o),
(55,576,o),
(55,494,cs),
(55,359,o),
(236,239,o),
(393,239,cs),
(495,239,o),
(615,308,o),
(688,390,c),
(658,535,l),
(595,434,o),
(453,331,o),
(333,331,cs),
(233,331,o),
(177,369,o),
(177,433,cs),
(177,488,o),
(216,527,o),
(256,527,cs),
(282,527,o),
(298,511,o),
(298,485,cs),
(298,448,o),
(262,411,o),
(167,347,cs),
(65,278,o),
(30,237,o),
(30,171,cs),
(30,63,o),
(148,-49,o),
(271,-49,cs)
);
},
{
closed = 1;
nodes = (
(720,191,l),
(727,329,l),
(421,147,l),
(421,128,l),
(502,57,l)
);
}
);
width = 1227;
}
);
metricLeft = "k_ssa-khoj";
metricRight = "k_ssa_iiMatra-khoj";
script = khoj;
},
{
category = Letter;
glyphname = "k_ssa_ra_uMatra-khoj";
kernLeft = LU;
kernRight = KHU;
lastChange = "2023-06-05 09:48:09 +0000";
layers = (
{
anchors = (
{
name = bottom;
pos = (531,-329);
},
{
name = nukta;
pos = (412,600);
},
{
name = top;
pos = (700,600);
}
);
layerId = "0717401B-DDB5-4983-85F2-A81AFE530D5E";
shapes = (
{
closed = 1;
nodes = (
(361,28,o),
(418,67,o),
(418,106,cs),
(418,138,o),
(379,193,o),
(340,193,cs),
(302,193,o),
(281,141,o),
(261,92,c),
(320,129,l),
(296,116,o),
(267,109,o),
(240,109,cs),
(194,109,o),
(153,129,o),
(153,176,cs),
(153,220,o),
(192,239,o),
(260,274,cs),
(342,316,o),
(401,374,o),
(401,446,cs),
(401,527,o),
(326,604,o),
(235,604,cs),
(164,604,o),
(114,558,o),
(114,489,cs),
(114,368,o),
(267,257,o),
(405,257,cs),
(504,257,o),
(604,315,o),
(669,385,c),
(648,483,l),
(574,389,o),
(473,321,o),
(361,321,cs),
(272,321,o),
(194,364,o),
(194,451,cs),
(194,505,o),
(224,542,o),
(268,542,cs),
(307,542,o),
(332,514,o),
(332,477,cs),
(332,412,o),
(256,365,o),
(200,335,cs),
(140,303,o),
(78,271,o),
(78,202,cs),
(78,115,o),
(178,26,o),
(288,27,cs)
);
},
{
closed = 1;
nodes = (
(709,-341,o),
(840,-269,o),
(840,-155,cs),
(840,-58,o),
(745,21,o),
(666,21,cs),
(621,21,o),
(576,-4,o),
(539,-41,c),
(553,-60,o),
(583,-82,o),
(612,-99,c),
(651,-67,o),
(684,-49,o),
(713,-49,cs),
(750,-49,o),
(770,-77,o),
(770,-113,cs),
(770,-208,o),
(635,-254,o),
(505,-254,cs),
(311,-254,o),
(140,-151,o),
(20,15,c),
(11,12,l),
(0,-43,l),
(121,-223,o),
(340,-341,o),
(548,-341,cs)
);
},
{
closed = 1;
nodes = (
(434,-164,o),
(484,-146,o),
(484,-112,cs),
(484,-98,o),
(476,-68,o),
(467,-51,c),
(437,-68,o),
(400,-80,o),
(366,-80,cs),
(319,-80,o),
(302,-58,o),
(302,-18,cs),
(302,3,o),
(307,27,o),
(319,50,c),
(256,59,l),
(252,40,o),
(251,20,o),
(251,7,cs),
(251,-82,o),
(298,-164,o),
(391,-164,cs)
);
},
{
closed = 1;
nodes = (
(689,181,l),
(696,279,l),
(435,130,l),
(434,123,l),
(495,65,l)
);
},
{
closed = 1;
nodes = (
(711,-18,l),
(720,66,o),
(726,159,o),
(726,253,cs),
(726,367,o),
(716,491,o),
(689,600,c),
(613,600,l),
(636,505,o),
(647,381,o),
(647,259,cs),
(647,160,o),
(640,62,o),
(627,-19,c)
);
}
);
width = 820;
},
{
anchors = (
{
name = bottom;
pos = (585,-390);
},
{
name = nukta;
pos = (436,600);
},
{
name = top;
pos = (789,613);
}
);
layerId = "A430B39A-257A-41FC-BEA9-652C696FFEF7";
shapes = (
{
closed = 1;
nodes = (
(406,-19,o),
(474,27,o),
(474,79,cs),
(474,130,o),
(422,194,o),
(375,194,cs),
(339,194,o),
(308,163,o),
(280,90,c),
(315,118,l),
(297,110,o),
(277,106,o),
(258,106,cs),
(221,106,o),
(188,122,o),
(188,158,cs),
(188,205,o),
(241,231,o),
(300,265,cs),
(372,307,o),
(453,354,o),
(453,442,cs),
(453,541,o),
(364,628,o),
(253,628,cs),
(166,628,o),
(105,576,o),
(105,494,cs),
(105,359,o),
(286,239,o),
(443,239,cs),
(545,239,o),
(665,308,o),
(738,390,c),
(708,535,l),
(645,434,o),
(503,331,o),
(383,331,cs),
(283,331,o),
(227,369,o),
(227,433,cs),
(227,488,o),
(266,527,o),
(306,527,cs),
(332,527,o),
(348,511,o),
(348,485,cs),
(348,435,o),
(293,401,o),
(233,364,cs),
(160,319,o),
(80,275,o),
(80,187,cs),
(80,86,o),
(198,-19,o),
(321,-19,cs)
);
},
{
closed = 1;
nodes = (
(785,-398,o),
(953,-323,o),
(953,-173,cs),
(953,-69,o),
(844,38,o),
(733,38,cs),
(677,38,o),
(621,13,o),
(561,-38,c),
(581,-64,o),
(638,-105,o),
(679,-125,c),
(717,-92,o),
(756,-69,o),
(791,-69,cs),
(820,-69,o),
(849,-92,o),
(849,-127,cs),
(849,-219,o),
(704,-274,o),
(559,-274,cs),
(344,-274,o),
(147,-166,o),
(16,23,c),
(0,19,l),
(-15,-62,l),
(114,-264,o),
(363,-398,o),
(606,-398,cs)
);
},
{
closed = 1;
nodes = (
(470,-204,o),
(524,-183,o),
(524,-133,cs),
(524,-104,o),
(507,-71,o),
(486,-52,c),
(456,-74,o),
(424,-86,o),
(395,-86,cs),
(355,-86,o),
(340,-71,o),
(340,-45,cs),
(340,-19,o),
(356,8,o),
(374,29,c),
(277,61,l),
(269,33,o),
(265,6,o),
(265,-20,cs),
(265,-133,o),
(328,-204,o),
(418,-204,cs)
);
},
{
closed = 1;
nodes = (
(781,173,l),
(788,311,l),
(482,142,l),
(482,123,l),
(565,49,l)
);
},
{
closed = 1;
nodes = (
(810,-9,l),
(819,77,o),
(823,163,o),
(823,244,cs),
(823,373,o),
(809,500,o),
(781,613,c),
(659,613,l),
(685,523,o),
(702,391,o),
(702,250,cs),
(702,165,o),
(697,81,o),
(687,-9,c)
);
}
);
width = 943;
}
);
metricLeft = "k_ssa_uMatra-khoj";
metricRight = "k_ssa_uMatra-khoj";
script = khoj;
},
{
category = Letter;
glyphname = "qa-khoj";
kernLeft = DA;
kernRight = KA;
lastChange = "2023-06-05 09:48:09 +0000";
layers = (
{
anchors = (
{
name = bottom;
pos = (775,-99);
},
{
name = nukta;
pos = (479,536);
},
{
name = rakar;
pos = (685,30);
},
{
name = top;
pos = (684,516);
}
);
guides = (
{
angle = 90;
pos = (45,473);
}
);
layerId = "0717401B-DDB5-4983-85F2-A81AFE530D5E";
shapes = (
{
closed = 1;
nodes = (
(497,15,o),
(670,214,o),
(670,333,cs),
(670,409,o),
(606,509,o),
(512,509,cs),
(447,509,o),
(400,453,o),
(340,372,cs),
(281,292,o),
(244,237,o),
(185,237,cs),
(150,237,o),
(125,256,o),
(125,297,cs),
(125,352,o),
(169,405,o),
(227,405,cs),
(275,405,o),
(291,347,o),
(294,284,c),
(333,316,l),
(328,410,o),
(283,486,o),
(194,486,cs),
(110,486,o),
(45,415,o),
(45,338,cs),
(45,252,o),
(128,166,o),
(221,166,cs),
(299,166,o),
(344,226,o),
(411,313,cs),
(465,383,o),
(503,433,o),
(550,433,cs),
(585,433,o),
(610,405,o),
(610,368,cs),
(610,306,o),
(542,234,o),
(484,193,c),
(412,170,o),
(350,136,o),
(350,95,cs),
(350,60,o),
(388,15,o),
(423,15,cs)
);
},
{
closed = 1;
nodes = (
(812,-145,o),
(836,-127,o),
(836,-95,cs),
(836,-79,o),
(830,-60,o),
(817,-41,c),
(792,-56,o),
(755,-72,o),
(730,-72,cs),
(712,-72,o),
(704,-62,o),
(704,-47,cs),
(704,-22,o),
(727,22,o),
(727,58,cs),
(727,124,o),
(647,183,o),
(561,183,c),
(552,116,l),
(567,124,o),
(582,129,o),
(597,129,cs),
(618,129,o),
(634,119,o),
(634,90,cs),
(634,70,o),
(627,21,o),
(627,1,cs),
(627,-70,o),
(712,-145,o),
(779,-145,cs)
);
}
);
width = 796;
},
{
anchors = (
{
name = bottom;
pos = (820,-126);
},
{
name = nukta;
pos = (508,540);
},
{
name = rakar;
pos = (737,26);
},
{
name = top;
pos = (749,516);
}
);
layerId = "A430B39A-257A-41FC-BEA9-652C696FFEF7";
shapes = (
{
closed = 1;
nodes = (
(545,-16,o),
(722,182,o),
(722,318,cs),
(722,422,o),
(637,528,o),
(536,528,cs),
(464,528,o),
(415,490,o),
(342,386,cs),
(270,283,o),
(236,244,o),
(186,244,cs),
(158,244,o),
(142,262,o),
(142,291,cs),
(142,344,o),
(191,392,o),
(238,392,cs),
(279,392,o),
(296,355,o),
(304,293,c),
(360,338,l),
(346,439,o),
(300,511,o),
(202,511,cs),
(108,511,o),
(30,435,o),
(30,341,cs),
(30,240,o),
(127,145,o),
(234,145,cs),
(324,145,o),
(383,214,o),
(449,300,cs),
(519,391,o),
(555,418,o),
(585,418,cs),
(615,418,o),
(631,394,o),
(630,363,cs),
(628,314,o),
(570,240,o),
(516,202,c),
(444,179,o),
(361,140,o),
(361,84,cs),
(361,37,o),
(406,-16,o),
(453,-16,cs)
);
},
{
closed = 1;
nodes = (
(869,-160,o),
(895,-137,o),
(895,-99,cs),
(895,-75,o),
(884,-52,o),
(859,-30,c),
(840,-46,o),
(806,-65,o),
(778,-65,cs),
(767,-65,o),
(762,-61,o),
(762,-52,cs),
(762,-33,o),
(791,3,o),
(791,50,cs),
(791,110,o),
(716,170,o),
(629,182,c),
(611,102,l),
(623,111,o),
(633,114,o),
(643,114,cs),
(655,114,o),
(663,107,o),
(663,91,cs),
(663,66,o),
(652,30,o),
(652,-1,cs),
(652,-74,o),
(746,-160,o),
(824,-160,cs)
);
}
);
width = 845;
}
);
metricLeft = "ya-khoj";
metricRight = "ka-khoj";
note = kj_KA;
script = khoj;
unicode = 70207;
},
{
glyphname = "qa_iMatra-khoj";
kernLeft = DA;
kernRight = HI;
lastChange = "2023-06-05 09:48:09 +0000";
layers = (
{
anchors = (
{
name = bottom;
pos = (715,-99);
},
{
name = nukta;
pos = (479,536);
},
{
name = rakar;
pos = (741,106);
},
{
name = top;
pos = (1164,892);
}
);
layerId = "0717401B-DDB5-4983-85F2-A81AFE530D5E";
shapes = (
{
closed = 1;
nodes = (
(751,-144,l),
(776,-17,o),
(822,192,o),
(865,378,cs),
(905,551,o),
(930,678,o),
(979,749,cs),
(1009,792,o),
(1046,814,o),
(1101,814,cs),
(1165,814,o),
(1220,782,o),
(1261,736,c),
(1270,738,l),
(1265,809,l),
(1218,860,o),
(1154,895,o),
(1079,895,cs),
(1005,895,o),
(952,865,o),
(913,814,cs),
(854,737,o),
(835,634,o),
(799,462,cs),
(723,104,l),
(752,85,l),
(732,139,o),
(691,182,o),
(598,182,cs),
(594,182,o),
(587,181,o),
(584,181,c),
(565,122,l),
(581,128,o),
(596,130,o),
(611,130,cs),
(666,130,o),
(696,104,o),
(696,43,cs),
(696,10,o),
(687,-37,o),
(675,-99,c),
(737,-146,l)
);
},
{
closed = 1;
nodes = (
(497,15,o),
(670,214,o),
(670,333,cs),
(670,409,o),
(606,509,o),
(512,509,cs),
(447,509,o),
(400,453,o),
(340,372,cs),
(281,292,o),
(244,237,o),
(185,237,cs),
(150,237,o),
(125,256,o),
(125,297,cs),
(125,352,o),
(169,405,o),
(227,405,cs),
(275,405,o),
(289,347,o),
(291,284,c),
(333,316,l),
(328,410,o),
(283,486,o),
(194,486,cs),
(110,486,o),
(45,415,o),
(45,338,cs),
(45,252,o),
(128,166,o),
(221,166,cs),
(299,166,o),
(344,226,o),
(411,313,cs),
(465,383,o),
(503,433,o),
(550,433,cs),
(585,433,o),
(610,405,o),
(610,368,cs),
(610,306,o),
(542,234,o),
(484,193,c),
(412,170,o),
(350,136,o),
(350,95,cs),
(350,60,o),
(388,15,o),
(423,15,cs)
);
}
);
width = 980;
},
{
anchors = (
{
name = bottom;
pos = (770,-128);
},
{
name = nukta;
pos = (508,540);
},
{
name = rakar;
pos = (800,106);
},
{
name = top;
pos = (1257,918);
}
);
layerId = "A430B39A-257A-41FC-BEA9-652C696FFEF7";
shapes = (
{
closed = 1;
nodes = (
(823,-164,l),
(856,1,o),
(900,205,o),
(937,376,cs),
(970,529,o),
(994,623,o),
(1020,683,cs),
(1050,753,o),
(1100,801,o),
(1184,801,cs),
(1245,801,o),
(1309,771,o),
(1351,727,c),
(1364,732,l),
(1348,829,l),
(1283,888,o),
(1215,918,o),
(1140,918,cs),
(1041,918,o),
(969,871,o),
(922,782,cs),
(884,710,o),
(860,608,o),
(833,477,cs),
(758,119,l),
(796,125,l),
(761,169,o),
(717,187,o),
(664,187,cs),
(650,187,o),
(635,185,o),
(620,181,c),
(607,98,l),
(621,107,o),
(641,113,o),
(661,113,cs),
(694,113,o),
(729,95,o),
(729,43,cs),
(729,10,o),
(721,-39,o),
(708,-108,c),
(790,-169,l)
);
},
{
closed = 1;
nodes = (
(545,-16,o),
(722,182,o),
(722,318,cs),
(722,422,o),
(637,528,o),
(536,528,cs),
(464,528,o),
(415,490,o),
(342,386,cs),
(270,283,o),
(236,244,o),
(186,244,cs),
(158,244,o),
(142,262,o),
(142,291,cs),
(142,344,o),
(191,392,o),
(238,392,cs),
(279,392,o),
(296,355,o),
(304,293,c),
(360,338,l),
(346,439,o),
(300,511,o),
(202,511,cs),
(108,511,o),
(30,435,o),
(30,341,cs),
(30,240,o),
(127,145,o),
(234,145,cs),
(324,145,o),
(383,214,o),
(449,300,cs),
(519,391,o),
(555,418,o),
(585,418,cs),
(615,418,o),
(631,394,o),
(630,363,cs),
(628,314,o),
(570,240,o),
(516,202,c),
(444,179,o),
(361,140,o),
(361,84,cs),
(361,37,o),
(406,-16,o),
(453,-16,cs)
);
}
);
width = 1057;
}
);
metricLeft = "ya-khoj";
metricRight = "ka_iMatra-khoj";
script = khoj;
},
{
category = Letter;
glyphname = "qa_iiMatra-khoj";
kernLeft = DA;
kernRight = HII;
lastChange = "2023-06-05 09:48:09 +0000";
layers = (
{
anchors = (
{
name = bottom;
pos = (863,-99);
},
{
name = nukta;
pos = (480,536);
},
{
name = rakar;
pos = (742,116);
},
{
name = top;
pos = (1054,539);
}
);
layerId = "0717401B-DDB5-4983-85F2-A81AFE530D5E";
shapes = (
{
closed = 1;
nodes = (
(1180,-240,o),
(1220,-223,o),
(1221,-186,cs),
(1222,-157,o),
(1198,-133,o),
(1167,-114,c),
(1156,-139,o),
(1123,-158,o),
(1091,-158,cs),
(1054,-158,o),
(1039,-132,o),
(1039,-66,cs),
(1039,40,o),
(1077,188,o),
(1077,285,cs),
(1077,411,o),
(1018,544,o),
(940,544,cs),
(900,544,o),
(862,509,o),
(826,432,cs),
(791,357,o),
(756,246,o),
(718,116,c),
(753,96,l),
(736,146,o),
(689,193,o),
(607,193,cs),
(600,193,o),
(593,193,o),
(585,192,c),
(566,133,l),
(582,139,o),
(597,141,o),
(611,141,cs),
(665,141,o),
(698,117,o),
(698,67,cs),
(698,39,o),
(690,-4,o),
(675,-58,c),
(732,-126,l),
(749,-122,l),
(767,-31,o),
(804,133,o),
(850,263,cs),
(893,386,o),
(931,463,o),
(965,463,cs),
(990,463,o),
(999,410,o),
(999,365,cs),
(999,266,o),
(957,87,o),
(957,-4,cs),
(957,-132,o),
(1039,-240,o),
(1140,-240,cs)
);
},
{
closed = 1;
nodes = (
(497,15,o),
(670,214,o),
(670,333,cs),
(670,409,o),
(606,509,o),
(512,509,cs),
(447,509,o),
(400,453,o),
(340,372,cs),
(281,292,o),
(244,237,o),
(185,237,cs),
(150,237,o),
(125,256,o),
(125,297,cs),
(125,352,o),
(169,405,o),
(227,405,cs),
(275,405,o),
(291,347,o),
(294,284,c),
(333,316,l),
(328,410,o),
(283,486,o),
(194,486,cs),
(110,486,o),
(45,415,o),
(45,338,cs),
(45,252,o),
(128,166,o),
(221,166,cs),
(299,166,o),
(344,226,o),
(411,313,cs),
(465,383,o),
(503,433,o),
(550,433,cs),
(585,433,o),
(610,405,o),
(610,368,cs),
(610,306,o),
(542,234,o),
(484,193,c),
(412,170,o),
(350,136,o),
(350,95,cs),
(350,60,o),
(388,15,o),
(423,15,cs)
);
}
);
width = 1151;
},
{
anchors = (
{
name = bottom;
pos = (891,-142);
},
{
name = nukta;
pos = (487,540);
},
{
name = rakar;
pos = (786,50);
},
{
name = top;
pos = (1099,568);
}
);
layerId = "A430B39A-257A-41FC-BEA9-652C696FFEF7";
shapes = (
{
closed = 1;
nodes = (
(1255,-262,o),
(1299,-234,o),
(1300,-189,cs),
(1301,-152,o),
(1274,-122,o),
(1237,-101,c),
(1215,-135,o),
(1187,-157,o),
(1153,-157,cs),
(1121,-157,o),
(1102,-136,o),
(1102,-81,cs),
(1102,31,o),
(1139,180,o),
(1139,279,cs),
(1139,421,o),
(1056,567,o),
(972,567,cs),
(922,567,o),
(881,527,o),
(843,441,cs),
(809,365,o),
(779,269,o),
(743,145,c),
(774,146,l),
(751,183,o),
(720,200,o),
(673,200,cs),
(660,200,o),
(646,199,o),
(631,196,c),
(609,110,l),
(625,117,o),
(641,120,o),
(657,120,cs),
(699,120,o),
(716,102,o),
(716,60,cs),
(716,31,o),
(707,-12,o),
(693,-65,c),
(773,-155,l),
(805,-150,l),
(822,-62,o),
(870,132,o),
(910,256,cs),
(953,388,o),
(978,440,o),
(1000,440,cs),
(1011,440,o),
(1020,421,o),
(1020,380,cs),
(1020,287,o),
(983,110,o),
(983,16,cs),
(983,-128,o),
(1074,-262,o),
(1198,-262,cs)
);
},
{
closed = 1;
nodes = (
(545,-16,o),
(722,182,o),
(722,318,cs),
(722,422,o),
(637,528,o),
(536,528,cs),
(464,528,o),
(415,490,o),
(342,386,cs),
(270,283,o),
(236,244,o),
(186,244,cs),
(158,244,o),
(142,262,o),
(142,291,cs),
(142,344,o),
(191,392,o),
(238,392,cs),
(279,392,o),
(296,355,o),
(304,293,c),
(360,338,l),
(346,439,o),
(300,511,o),
(202,511,cs),
(108,511,o),
(30,435,o),
(30,341,cs),
(30,240,o),
(127,145,o),
(234,145,cs),
(324,145,o),
(383,214,o),
(449,300,cs),
(519,391,o),
(555,418,o),
(585,418,cs),
(615,418,o),
(631,394,o),
(630,363,cs),
(628,314,o),
(570,240,o),
(516,202,c),
(444,179,o),
(361,140,o),
(361,84,cs),
(361,37,o),
(406,-16,o),
(453,-16,cs)
);
}
);
width = 1214;
}
);
metricLeft = "ya-khoj";
metricRight = "ka_iiMatra-khoj";
note = kj_KA;
script = khoj;
},
{
glyphname = "qa_uMatra-khoj";
kernLeft = KU;
kernRight = KA;
lastChange = "2023-06-05 09:48:09 +0000";
layers = (
{
anchors = (
{
name = bottom;
pos = (517,-179);
},
{
name = nukta;
pos = (453,536);
},
{
name = top;
pos = (658,516);
}
);
layerId = "0717401B-DDB5-4983-85F2-A81AFE530D5E";
shapes = (
{
closed = 1;
nodes = (
(520,15,o),
(693,214,o),
(693,333,cs),
(693,409,o),
(629,509,o),
(535,509,cs),
(470,509,o),
(423,453,o),
(363,372,cs),
(304,292,o),
(267,237,o),
(208,237,cs),
(173,237,o),
(148,256,o),
(148,297,cs),
(148,352,o),
(192,405,o),
(250,405,cs),
(298,405,o),
(314,347,o),
(317,284,c),
(356,316,l),
(351,410,o),
(306,486,o),
(217,486,cs),
(133,486,o),
(68,415,o),
(68,338,cs),
(68,252,o),
(151,166,o),
(244,166,cs),
(322,166,o),
(367,226,o),
(434,313,cs),
(488,383,o),
(526,433,o),
(573,433,cs),
(608,433,o),
(633,405,o),
(633,368,cs),
(633,306,o),
(565,234,o),
(507,193,c),
(435,170,o),
(373,136,o),
(373,95,cs),
(373,60,o),
(411,15,o),
(446,15,cs)
);
},
{
closed = 1;
nodes = (
(670,-191,o),
(793,-111,o),
(793,17,cs),
(793,139,o),
(681,201,o),
(593,201,c),
(580,129,l),
(596,136,o),
(612,140,o),
(628,140,cs),
(678,140,o),
(720,110,o),
(720,50,cs),
(720,-45,o),
(622,-108,o),
(490,-108,cs),
(327,-108,o),
(169,-5,o),
(60,146,c),
(52,142,l),
(45,86,l),
(156,-76,o),
(340,-191,o),
(521,-191,cs)
);
}
);
width = 823;
},
{
anchors = (
{
name = bottom;
pos = (549,-210);
},
{
name = nukta;
pos = (518,540);
},
{
name = top;
pos = (709,516);
}
);
layerId = "A430B39A-257A-41FC-BEA9-652C696FFEF7";
shapes = (
{
closed = 1;
nodes = (
(559,-16,o),
(736,182,o),
(736,318,cs),
(736,422,o),
(651,528,o),
(550,528,cs),
(478,528,o),
(429,490,o),
(356,386,cs),
(284,283,o),
(250,244,o),
(200,244,cs),
(172,244,o),
(156,262,o),
(156,291,cs),
(156,344,o),
(205,392,o),
(252,392,cs),
(293,392,o),
(310,355,o),
(318,293,c),
(374,338,l),
(360,439,o),
(314,511,o),
(216,511,cs),
(122,511,o),
(44,435,o),
(44,341,cs),
(44,240,o),
(141,145,o),
(248,145,cs),
(338,145,o),
(397,214,o),
(463,300,cs),
(533,391,o),
(569,418,o),
(599,418,cs),
(629,418,o),
(645,394,o),
(644,363,cs),
(642,314,o),
(584,240,o),
(530,202,c),
(458,179,o),
(375,140,o),
(375,84,cs),
(375,37,o),
(420,-16,o),
(467,-16,cs)
);
},
{
closed = 1;
nodes = (
(737,-223,o),
(843,-127,o),
(843,3,cs),
(843,122,o),
(736,207,o),
(605,209,c),
(594,71,l),
(619,93,o),
(646,105,o),
(680,105,cs),
(713,105,o),
(736,86,o),
(736,47,cs),
(736,-33,o),
(643,-98,o),
(505,-98,cs),
(339,-98,o),
(187,-16,o),
(58,155,c),
(44,153,l),
(30,72,l),
(154,-110,o),
(340,-223,o),
(549,-223,cs)
);
}
);
width = 858;
}
);
metricRight = "ka_uMatra-khoj";
script = khoj;
},
{
category = Letter;
glyphname = "q_ra_uMatra-khoj";
kernLeft = KU;
kernRight = KA;
lastChange = "2023-06-05 09:48:09 +0000";
layers = (
{
anchors = (
{
name = bottom;
pos = (570,-216);
},
{
name = nukta;
pos = (453,536);
},
{
name = top;
pos = (658,516);
}
);
layerId = "0717401B-DDB5-4983-85F2-A81AFE530D5E";
shapes = (
{
closed = 1;
nodes = (
(726,-228,o),
(844,-148,o),
(844,-3,cs),
(844,117,o),
(729,202,o),
(594,202,c),
(581,130,l),
(602,135,o),
(623,138,o),
(642,138,cs),
(714,138,o),
(774,98,o),
(774,25,cs),
(774,-78,o),
(679,-144,o),
(543,-144,cs),
(352,-144,o),
(186,-22,o),
(60,146,c),
(52,142,l),
(45,86,l),
(171,-91,o),
(360,-228,o),
(574,-228,cs)
);
},
{
closed = 1;
nodes = (
(520,15,o),
(693,214,o),
(693,333,cs),
(693,409,o),
(629,509,o),
(535,509,cs),
(470,509,o),
(423,453,o),
(363,372,cs),
(304,292,o),
(267,237,o),
(208,237,cs),
(173,237,o),
(148,256,o),
(148,297,cs),
(148,352,o),
(192,405,o),
(250,405,cs),
(298,405,o),
(314,347,o),
(317,284,c),
(356,316,l),
(351,410,o),
(306,486,o),
(217,486,cs),
(133,486,o),
(68,415,o),
(68,338,cs),
(68,252,o),
(151,166,o),
(244,166,cs),
(322,166,o),
(367,226,o),
(434,313,cs),
(488,383,o),
(526,433,o),
(573,433,cs),
(608,433,o),
(633,405,o),
(633,368,cs),
(633,306,o),
(565,234,o),
(507,193,c),
(435,170,o),
(373,136,o),
(373,95,cs),
(373,60,o),
(411,15,o),
(447,15,cs)
);
},
{
closed = 1;
nodes = (
(784,65,l),
(735,124,l),
(548,-13,l),
(548,-20,l),
(609,-73,l)
);
}
);
width = 874;
},
{
anchors = (
{
name = bottom;
pos = (590,-264);
},
{
name = nukta;
pos = (506,540);
},
{
name = top;
pos = (697,516);
}
);
layerId = "A430B39A-257A-41FC-BEA9-652C696FFEF7";
shapes = (
{
closed = 1;
nodes = (
(759,-277,o),
(883,-187,o),
(883,-38,cs),
(883,92,o),
(745,207,o),
(602,209,c),
(591,71,l),
(616,93,o),
(643,105,o),
(677,105,cs),
(730,105,o),
(782,55,o),
(782,14,cs),
(782,-94,o),
(684,-152,o),
(554,-152,cs),
(355,-152,o),
(175,-33,o),
(58,135,c),
(44,133,l),
(30,52,l),
(147,-135,o),
(366,-277,o),
(590,-277,cs)
);
},
{
closed = 1;
nodes = (
(547,-16,o),
(724,182,o),
(724,318,cs),
(724,422,o),
(639,528,o),
(538,528,cs),
(466,528,o),
(417,490,o),
(344,386,cs),
(272,283,o),
(238,244,o),
(188,244,cs),
(160,244,o),
(144,262,o),
(144,291,cs),
(144,344,o),
(193,392,o),
(240,392,cs),
(281,392,o),
(298,355,o),
(306,293,c),
(362,338,l),
(348,439,o),
(302,511,o),
(204,511,cs),
(110,511,o),
(32,435,o),
(32,341,cs),
(32,240,o),
(129,145,o),
(236,145,cs),
(326,145,o),
(385,214,o),
(451,300,cs),
(521,391,o),
(557,418,o),
(587,418,cs),
(617,418,o),
(633,394,o),
(632,363,cs),
(630,314,o),
(572,240,o),
(518,202,c),
(446,179,o),
(363,140,o),
(363,84,cs),
(363,37,o),
(408,-16,o),
(455,-16,cs)
);
},
{
closed = 1;
nodes = (
(815,43,l),
(751,118,l),
(545,-33,l),
(545,-50,l),
(630,-107,l)
);
}
);
width = 898;
}
);
metricLeft = "qa_uMatra-khoj";
metricRight = "ka_uMatra-khoj";
script = khoj;
},
{
category = Letter;
glyphname = "kha-khoj";
kernLeft = A;
kernRight = NNA;
lastChange = "2023-06-05 09:48:09 +0000";
layers = (
{
anchors = (
{
name = bottom;
pos = (614,81);
},
{
name = nukta;
pos = (436,585);
},
{
name = top;
pos = (744,536);
}
);
layerId = "0717401B-DDB5-4983-85F2-A81AFE530D5E";
shapes = (
{
closed = 1;
nodes = (
(641,68,l),
(700,184,o),
(745,315,o),
(747,450,c),
(727,485,o),
(692,522,o),
(655,541,c),
(582,410,o),
(439,265,o),
(333,265,cs),
(285,265,o),
(276,295,o),
(270,338,cs),
(261,400,o),
(255,456,o),
(183,509,cs),
(155,530,o),
(121,546,o),
(80,546,cs),
(36,546,o),
(0,528,o),
(0,491,cs),
(0,470,o),
(14,446,o),
(38,428,c),
(55,451,o),
(82,484,o),
(112,484,cs),
(138,484,o),
(148,458,o),
(155,413,cs),
(163,365,o),
(164,318,o),
(215,268,cs),
(256,227,o),
(319,195,o),
(380,195,cs),
(496,195,o),
(624,311,o),
(713,461,c),
(690,462,l),
(676,335,o),
(629,237,o),
(545,140,c),
(559,112,o),
(590,72,o),
(608,59,c)
);
},
{
closed = 1;
nodes = (
(537,356,l),
(484,558,o),
(440,603,o),
(374,603,cs),
(332,603,o),
(308,582,o),
(308,554,cs),
(308,533,o),
(320,508,o),
(334,490,c),
(355,502,o),
(376,512,o),
(399,512,cs),
(431,512,o),
(452,498,o),
(504,314,c)
);
}
);
width = 797;
},
{
anchors = (
{
name = bottom;
pos = (637,81);
},
{
name = nukta;
pos = (461,600);
},
{
name = top;
pos = (809,543);
}
);
layerId = "A430B39A-257A-41FC-BEA9-652C696FFEF7";
shapes = (
{
closed = 1;
nodes = (
(701,48,l),
(758,169,o),
(799,299,o),
(801,450,c),
(771,498,o),
(719,548,o),
(673,570,c),
(594,415,o),
(441,267,o),
(360,267,cs),
(322,267,o),
(316,289,o),
(308,342,cs),
(301,391,o),
(292,452,o),
(225,506,cs),
(179,543,o),
(126,561,o),
(80,561,cs),
(16,561,o),
(-20,532,o),
(-20,486,cs),
(-20,453,o),
(0,421,o),
(45,403,c),
(67,440,o),
(96,471,o),
(117,471,cs),
(142,471,o),
(145,437,o),
(151,391,cs),
(159,331,o),
(172,296,o),
(212,255,cs),
(256,209,o),
(331,172,o),
(404,172,cs),
(504,172,o),
(614,245,o),
(727,422,c),
(719,428,l),
(705,318,o),
(646,225,o),
(567,147,c),
(583,110,o),
(623,62,o),
(652,39,c)
);
},
{
closed = 1;
nodes = (
(570,389,l),
(523,556,o),
(479,621,o),
(403,621,cs),
(352,621,o),
(319,600,o),
(319,556,cs),
(319,529,o),
(335,492,o),
(356,468,c),
(383,484,o),
(413,495,o),
(436,495,cs),
(467,495,o),
(485,482,o),
(523,352,c)
);
}
);
width = 841;
}
);
metricRight = "a-khoj";
note = kj_KHA;
script = khoj;
unicode = 70153;
},
{
category = Letter;
glyphname = "kha_iMatra-khoj";
kernLeft = A;
kernRight = LI;
lastChange = "2023-06-05 09:48:09 +0000";
layers = (
{
anchors = (
{
name = bottom;
pos = (694,81);
},
{
name = nukta;
pos = (438,600);
},
{
name = top;
pos = (1111,892);
}
);
layerId = "0717401B-DDB5-4983-85F2-A81AFE530D5E";
shapes = (
{
closed = 1;
nodes = (
(711,68,l),
(780,338,o),
(847,617,o),
(904,717,cs),
(940,781,o),
(990,814,o),
(1052,814,cs),
(1113,814,o),
(1167,782,o),
(1208,736,c),
(1217,738,l),
(1212,809,l),
(1166,859,o),
(1103,895,o),
(1028,895,cs),
(951,895,o),
(885,858,o),
(840,784,cs),
(794,708,o),
(762,588,o),
(722,442,c),
(747,450,l),
(727,485,o),
(692,522,o),
(655,541,c),
(582,410,o),
(439,265,o),
(333,265,cs),
(285,265,o),
(276,295,o),
(270,338,cs),
(261,400,o),
(255,456,o),
(183,509,cs),
(155,530,o),
(121,546,o),
(80,546,cs),
(36,546,o),
(0,528,o),
(0,491,cs),
(0,470,o),
(14,446,o),
(38,428,c),
(55,451,o),
(82,484,o),
(111,484,cs),
(139,484,o),
(148,458,o),
(155,412,cs),
(162,365,o),
(166,315,o),
(215,268,cs),
(256,227,o),
(319,195,o),
(380,195,cs),
(496,195,o),
(624,311,o),
(713,461,c),
(688,467,l),
(690,452,o),
(691,436,o),
(691,418,cs),
(691,333,o),
(665,221,o),
(638,114,c),
(697,66,l)
);
},
{
closed = 1;
nodes = (
(537,356,l),
(484,558,o),
(440,603,o),
(374,603,cs),
(332,603,o),
(308,582,o),
(308,554,cs),
(308,533,o),
(320,508,o),
(334,490,c),
(355,502,o),
(376,512,o),
(399,512,cs),
(431,512,o),
(452,498,o),
(504,314,c)
);
}
);
width = 897;
},
{
anchors = (
{
name = bottom;
pos = (698,81);
},
{
name = nukta;
pos = (461,600);
},
{
name = top;
pos = (1178,918);
}
);
layerId = "A430B39A-257A-41FC-BEA9-652C696FFEF7";
shapes = (
{
closed = 1;
nodes = (
(754,55,l),
(834,381,o),
(880,563,o),
(943,691,cs),
(981,768,o),
(1034,801,o),
(1102,801,cs),
(1168,801,o),
(1231,771,o),
(1273,727,c),
(1286,732,l),
(1270,829,l),
(1205,888,o),
(1137,918,o),
(1061,918,cs),
(982,918,o),
(913,883,o),
(865,810,cs),
(815,734,o),
(780,607,o),
(740,450,c),
(780,476,l),
(737,528,o),
(704,555,o),
(673,570,c),
(594,415,o),
(441,267,o),
(360,267,cs),
(322,267,o),
(316,289,o),
(308,342,cs),
(301,391,o),
(292,452,o),
(225,506,cs),
(179,543,o),
(126,561,o),
(80,561,cs),
(16,561,o),
(-20,532,o),
(-20,486,cs),
(-20,453,o),
(0,421,o),
(45,403,c),
(67,440,o),
(96,471,o),
(117,471,cs),
(142,471,o),
(145,437,o),
(151,391,cs),
(159,331,o),
(172,296,o),
(212,255,cs),
(256,209,o),
(331,172,o),
(404,172,cs),
(497,172,o),
(602,232,o),
(725,420,c),
(698,442,l),
(700,430,o),
(700,415,o),
(700,401,cs),
(700,328,o),
(679,220,o),
(654,117,c),
(729,50,l)
);
},
{
closed = 1;
nodes = (
(570,389,l),
(523,556,o),
(479,621,o),
(403,621,cs),
(352,621,o),
(319,600,o),
(319,556,cs),
(319,529,o),
(335,492,o),
(356,468,c),
(383,484,o),
(413,495,o),
(436,495,cs),
(467,495,o),
(485,482,o),
(523,352,c)
);
}
);
width = 946;
}
);
metricLeft = "kha-khoj";
metricRight = "la_iMatra-khoj";
note = kj_KHA;
script = khoj;
},
{
category = Letter;
glyphname = "kha_iiMatra-khoj";
kernLeft = A;
kernRight = LII;
lastChange = "2023-06-05 09:48:09 +0000";
layers = (
{
anchors = (
{
name = bottom;
pos = (694,81);
},
{
name = nukta;
pos = (438,600);
},
{
name = top;
pos = (1001,656);
}
);
layerId = "0717401B-DDB5-4983-85F2-A81AFE530D5E";
shapes = (
{
closed = 1;
nodes = (
(1144,-240,o),
(1181,-221,o),
(1183,-187,cs),
(1185,-154,o),
(1153,-129,o),
(1121,-114,c),
(1111,-138,o),
(1079,-158,o),
(1042,-158,cs),
(996,-158,o),
(978,-127,o),
(978,-46,cs),
(978,85,o),
(1026,252,o),
(1026,385,cs),
(1026,545,o),
(957,661,o),
(885,661,cs),
(847,661,o),
(815,628,o),
(788,579,cs),
(764,536,o),
(743,482,o),
(726,428,c),
(747,450,l),
(727,485,o),
(692,522,o),
(655,541,c),
(582,410,o),
(439,265,o),
(333,265,cs),
(285,265,o),
(276,295,o),
(270,338,cs),
(261,400,o),
(255,456,o),
(183,509,cs),
(155,530,o),
(121,546,o),
(80,546,cs),
(36,546,o),
(0,528,o),
(0,491,cs),
(0,470,o),
(14,446,o),
(38,428,c),
(55,451,o),
(82,484,o),
(111,484,cs),
(139,484,o),
(148,458,o),
(155,412,cs),
(162,365,o),
(166,315,o),
(215,268,cs),
(256,227,o),
(319,195,o),
(380,195,cs),
(496,195,o),
(624,311,o),
(713,461,c),
(676,459,l),
(686,447,o),
(691,432,o),
(691,405,cs),
(691,340,o),
(665,220,o),
(638,114,c),
(697,66,l),
(711,68,l),
(730,144,o),
(764,283,o),
(796,380,cs),
(839,511,o),
(880,578,o),
(913,578,cs),
(941,578,o),
(949,527,o),
(949,479,cs),
(949,354,o),
(896,145,o),
(896,26,cs),
(896,-124,o),
(980,-240,o),
(1097,-240,cs)
);
},
{
closed = 1;
nodes = (
(537,356,l),
(484,558,o),
(440,603,o),
(374,603,cs),
(332,603,o),
(308,582,o),
(308,554,cs),
(308,533,o),
(320,508,o),
(334,490,c),
(355,502,o),
(376,512,o),
(399,512,cs),
(431,512,o),
(452,498,o),
(504,314,c)
);
}
);
width = 1113;
},
{
anchors = (
{
name = bottom;
pos = (698,81);
},
{
name = nukta;
pos = (461,600);
},
{
name = top;
pos = (1038,683);
}
);
layerId = "A430B39A-257A-41FC-BEA9-652C696FFEF7";
shapes = (
{
closed = 1;
nodes = (
(1208,-262,o),
(1252,-234,o),
(1253,-189,cs),
(1254,-152,o),
(1220,-122,o),
(1181,-101,c),
(1164,-135,o),
(1131,-157,o),
(1094,-157,cs),
(1056,-157,o),
(1035,-136,o),
(1035,-69,cs),
(1035,61,o),
(1082,245,o),
(1082,374,cs),
(1082,539,o),
(995,683,o),
(907,683,cs),
(867,683,o),
(835,651,o),
(806,598,cs),
(786,561,o),
(770,526,o),
(746,457,c),
(776,472,l),
(738,525,o),
(705,554,o),
(673,570,c),
(594,415,o),
(441,267,o),
(360,267,cs),
(322,267,o),
(316,289,o),
(308,342,cs),
(301,391,o),
(292,452,o),
(225,506,cs),
(179,543,o),
(126,561,o),
(80,561,cs),
(16,561,o),
(-20,532,o),
(-20,486,cs),
(-20,453,o),
(0,421,o),
(45,403,c),
(67,440,o),
(96,471,o),
(117,471,cs),
(142,471,o),
(145,437,o),
(151,391,cs),
(159,331,o),
(172,296,o),
(212,255,cs),
(256,209,o),
(331,172,o),
(404,172,cs),
(497,172,o),
(602,232,o),
(725,420,c),
(698,442,l),
(700,430,o),
(700,415,o),
(700,401,cs),
(700,328,o),
(679,220,o),
(654,117,c),
(729,50,l),
(754,55,l),
(770,120,o),
(806,271,o),
(840,373,cs),
(878,486,o),
(914,556,o),
(937,556,cs),
(952,556,o),
(959,537,o),
(959,496,cs),
(959,369,o),
(912,144,o),
(912,33,cs),
(912,-119,o),
(1005,-262,o),
(1151,-262,cs)
);
},
{
closed = 1;
nodes = (
(570,389,l),
(523,556,o),
(479,621,o),
(403,621,cs),
(352,621,o),
(319,600,o),
(319,556,cs),
(319,529,o),
(335,492,o),
(356,468,c),
(383,484,o),
(413,495,o),
(436,495,cs),
(467,495,o),
(485,482,o),
(523,352,c)
);
}
);
width = 1168;
}
);
metricLeft = "kha-khoj";
note = kj_KHA;
script = khoj;
},
{
category = Letter;
glyphname = "kha_uMatra-khoj";
kernLeft = KU;
kernRight = KHU;
lastChange = "2023-06-05 09:48:09 +0000";
layers = (
{
anchors = (
{
name = bottom;
pos = (574,-139);
},
{
name = nukta;
pos = (463,600);
},
{
name = top;
pos = (769,536);
}
);
layerId = "0717401B-DDB5-4983-85F2-A81AFE530D5E";
shapes = (
{
closed = 1;
nodes = (
(743,-139,o),
(841,-53,o),
(841,41,cs),
(841,120,o),
(772,182,o),
(696,199,c),
(712,171,l),
(747,259,o),
(770,353,o),
(772,450,c),
(752,485,o),
(717,522,o),
(680,541,c),
(607,410,o),
(464,265,o),
(358,265,cs),
(310,265,o),
(301,295,o),
(295,338,cs),
(286,400,o),
(280,456,o),
(208,509,cs),
(180,530,o),
(146,546,o),
(105,546,cs),
(61,546,o),
(25,528,o),
(25,491,cs),
(25,470,o),
(39,446,o),
(63,428,c),
(80,451,o),
(107,484,o),
(136,484,cs),
(164,484,o),
(173,458,o),
(180,412,cs),
(187,365,o),
(191,315,o),
(240,268,cs),
(281,227,o),
(344,195,o),
(405,195,cs),
(521,195,o),
(649,311,o),
(738,461,c),
(715,462,l),
(701,335,o),
(654,232,o),
(559,150,c),
(574,115,o),
(606,77,o),
(623,66,c),
(670,106,o),
(705,134,o),
(733,134,cs),
(756,134,o),
(772,114,o),
(772,82,cs),
(772,3,o),
(677,-52,o),
(553,-52,cs),
(360,-52,o),
(198,83,o),
(109,230,c),
(100,227,l),
(89,172,l),
(180,16,o),
(364,-139,o),
(581,-139,cs)
);
},
{
closed = 1;
nodes = (
(562,356,l),
(509,558,o),
(465,603,o),
(399,603,cs),
(357,603,o),
(333,582,o),
(333,554,cs),
(333,533,o),
(345,508,o),
(359,490,c),
(380,502,o),
(401,512,o),
(424,512,cs),
(456,512,o),
(477,498,o),
(529,314,c)
);
}
);
width = 861;
},
{
anchors = (
{
name = bottom;
pos = (624,-169);
},
{
name = nukta;
pos = (491,600);
},
{
name = top;
pos = (839,543);
}
);
layerId = "A430B39A-257A-41FC-BEA9-652C696FFEF7";
shapes = (
{
closed = 1;
nodes = (
(791,-171,o),
(906,-89,o),
(906,27,cs),
(906,96,o),
(857,164,o),
(761,202,c),
(781,170,l),
(811,256,o),
(830,348,o),
(831,450,c),
(801,498,o),
(749,548,o),
(703,570,c),
(624,415,o),
(471,267,o),
(390,267,cs),
(352,267,o),
(346,289,o),
(338,342,cs),
(331,391,o),
(322,452,o),
(255,506,cs),
(209,543,o),
(156,561,o),
(110,561,cs),
(46,561,o),
(10,532,o),
(10,486,cs),
(10,453,o),
(30,421,o),
(75,403,c),
(97,440,o),
(126,471,o),
(147,471,cs),
(172,471,o),
(175,437,o),
(181,391,cs),
(189,331,o),
(202,296,o),
(242,255,cs),
(286,209,o),
(361,172,o),
(434,172,cs),
(534,172,o),
(644,245,o),
(757,422,c),
(749,428,l),
(735,318,o),
(679,215,o),
(594,148,c),
(613,101,o),
(659,53,o),
(685,40,c),
(720,78,o),
(755,104,o),
(781,104,cs),
(796,104,o),
(807,95,o),
(807,74,cs),
(807,11,o),
(719,-44,o),
(576,-44,cs),
(408,-44,o),
(237,35,o),
(110,238,c),
(93,234,l),
(78,156,l),
(188,-31,o),
(399,-171,o),
(618,-171,cs)
);
},
{
closed = 1;
nodes = (
(600,389,l),
(553,556,o),
(509,621,o),
(433,621,cs),
(382,621,o),
(349,600,o),
(349,556,cs),
(349,529,o),
(365,492,o),
(386,468,c),
(413,484,o),
(443,495,o),
(466,495,cs),
(497,495,o),
(515,482,o),
(553,352,c)
);
}
);
width = 911;
}
);
script = khoj;
},
{
glyphname = "kh_ra-khoj";
kernLeft = A;
kernRight = JA;
lastChange = "2023-06-05 09:48:09 +0000";
layers = (
{
anchors = (
{
name = bottom;
pos = (704,11);
},
{
name = nukta;
pos = (438,600);
},
{
name = top;
pos = (792,536);
}
);
layerId = "0717401B-DDB5-4983-85F2-A81AFE530D5E";
shapes = (
{
closed = 1;
nodes = (
(719,0,l),
(762,105,o),
(796,260,o),
(796,409,cs),
(796,423,o),
(796,436,o),
(795,450,c),
(770,491,o),
(728,527,o),
(691,544,c),
(616,409,o),
(436,265,o),
(333,265,cs),
(285,265,o),
(276,295,o),
(270,338,cs),
(261,400,o),
(255,456,o),
(183,509,cs),
(155,530,o),
(121,546,o),
(80,546,cs),
(36,546,o),
(0,528,o),
(0,491,cs),
(0,470,o),
(14,446,o),
(38,428,c),
(55,451,o),
(82,484,o),
(112,484,cs),
(138,484,o),
(148,458,o),
(155,413,cs),
(163,365,o),
(164,318,o),
(215,268,cs),
(256,227,o),
(319,195,o),
(380,195,cs),
(504,195,o),
(667,325,o),
(749,464,c),
(734,465,l),
(734,334,o),
(704,196,o),
(640,73,c),
(643,60,o),
(680,4,o),
(694,-9,c)
);
},
{
closed = 1;
nodes = (
(729,203,l),
(752,310,l),
(404,104,l),
(404,97,l),
(476,42,l)
);
},
{
closed = 1;
nodes = (
(537,356,l),
(484,558,o),
(440,603,o),
(374,603,cs),
(332,603,o),
(308,582,o),
(308,554,cs),
(308,533,o),
(320,508,o),
(334,490,c),
(355,502,o),
(376,512,o),
(399,512,cs),
(431,512,o),
(452,498,o),
(504,314,c)
);
}
);
width = 861;
},
{
anchors = (
{
name = bottom;
pos = (780,-28);
},
{
name = nukta;
pos = (461,600);
},
{
name = top;
pos = (882,543);
}
);
layerId = "A430B39A-257A-41FC-BEA9-652C696FFEF7";
shapes = (
{
closed = 1;
nodes = (
(805,-45,l),
(851,80,o),
(880,238,o),
(880,375,cs),
(880,405,o),
(879,431,o),
(877,449,c),
(850,494,o),
(788,550,o),
(742,572,c),
(648,430,o),
(477,267,o),
(360,267,cs),
(322,267,o),
(316,289,o),
(308,342,cs),
(301,391,o),
(292,452,o),
(225,506,cs),
(179,543,o),
(126,561,o),
(80,561,cs),
(16,561,o),
(-20,532,o),
(-20,486,cs),
(-20,453,o),
(0,421,o),
(45,403,c),
(67,440,o),
(96,471,o),
(117,471,cs),
(142,471,o),
(145,437,o),
(151,391,cs),
(159,331,o),
(172,296,o),
(212,255,cs),
(256,209,o),
(331,172,o),
(404,172,cs),
(560,172,o),
(716,302,o),
(820,446,c),
(797,455,l),
(797,310,o),
(753,160,o),
(694,56,c),
(710,21,o),
(744,-22,o),
(772,-54,c)
);
},
{
closed = 1;
nodes = (
(811,192,l),
(834,334,l),
(434,94,l),
(434,76,l),
(523,8,l)
);
},
{
closed = 1;
nodes = (
(582,346,l),
(523,556,o),
(479,621,o),
(403,621,cs),
(352,621,o),
(319,600,o),
(319,556,cs),
(319,529,o),
(335,492,o),
(356,468,c),
(383,484,o),
(413,495,o),
(436,495,cs),
(467,495,o),
(485,482,o),
(535,309,c)
);
}
);
width = 930;
}
);
metricLeft = "kha-khoj";
metricRight = "ja-khoj";
script = khoj;
},
{
glyphname = "kh_ra_iMatra-khoj";
kernLeft = A;
kernRight = LI;
lastChange = "2023-06-05 09:48:09 +0000";
layers = (
{
anchors = (
{
name = bottom;
pos = (717,13);
},
{
name = nukta;
pos = (438,600);
},
{
name = top;
pos = (1156,892);
}
);
layerId = "0717401B-DDB5-4983-85F2-A81AFE530D5E";
shapes = (
{
closed = 1;
nodes = (
(734,0,l),
(825,368,o),
(892,617,o),
(949,717,cs),
(986,782,o),
(1035,814,o),
(1098,814,cs),
(1158,814,o),
(1212,782,o),
(1253,736,c),
(1262,738,l),
(1257,809,l),
(1211,859,o),
(1148,895,o),
(1073,895,cs),
(996,895,o),
(930,858,o),
(885,784,cs),
(839,709,o),
(804,578,o),
(766,442,c),
(793,444,l),
(773,480,o),
(732,521,o),
(691,544,c),
(616,409,o),
(436,265,o),
(333,265,cs),
(285,265,o),
(276,295,o),
(270,338,cs),
(261,400,o),
(255,456,o),
(183,509,cs),
(155,530,o),
(121,546,o),
(80,546,cs),
(36,546,o),
(0,528,o),
(0,491,cs),
(0,470,o),
(14,446,o),
(38,428,c),
(55,451,o),
(82,484,o),
(112,484,cs),
(138,484,o),
(148,458,o),
(155,413,cs),
(163,365,o),
(164,318,o),
(215,268,cs),
(256,227,o),
(319,195,o),
(380,195,cs),
(504,195,o),
(667,325,o),
(749,464,c),
(717,459,l),
(727,447,o),
(732,433,o),
(732,407,cs),
(732,339,o),
(697,189,o),
(661,46,c),
(720,-2,l)
);
},
{
closed = 1;
nodes = (
(729,203,l),
(752,310,l),
(404,104,l),
(404,97,l),
(476,42,l)
);
},
{
closed = 1;
nodes = (
(537,356,l),
(484,558,o),
(440,603,o),
(374,603,cs),
(332,603,o),
(308,582,o),
(308,554,cs),
(308,533,o),
(320,508,o),
(334,490,c),
(355,502,o),
(376,512,o),
(399,512,cs),
(431,512,o),
(452,498,o),
(504,314,c)
);
}
);
width = 942;
},
{
anchors = (
{
name = bottom;
pos = (767,-20);
},
{
name = nukta;
pos = (461,600);
},
{
name = top;
pos = (1268,918);
}
);
layerId = "A430B39A-257A-41FC-BEA9-652C696FFEF7";
shapes = (
{
closed = 1;
nodes = (
(823,-46,l),
(901,280,o),
(970,563,o),
(1033,691,cs),
(1071,768,o),
(1124,801,o),
(1192,801,cs),
(1258,801,o),
(1321,771,o),
(1363,727,c),
(1376,732,l),
(1360,829,l),
(1295,888,o),
(1227,918,o),
(1151,918,cs),
(1072,918,o),
(1003,883,o),
(955,810,cs),
(905,734,o),
(870,607,o),
(830,450,c),
(877,449,l),
(850,494,o),
(788,550,o),
(742,572,c),
(648,430,o),
(477,267,o),
(360,267,cs),
(322,267,o),
(316,289,o),
(308,342,cs),
(301,391,o),
(292,452,o),
(225,506,cs),
(179,543,o),
(126,561,o),
(80,561,cs),
(16,561,o),
(-20,532,o),
(-20,486,cs),
(-20,453,o),
(0,421,o),
(45,403,c),
(67,440,o),
(96,471,o),
(117,471,cs),
(142,471,o),
(145,437,o),
(151,391,cs),
(159,331,o),
(172,296,o),
(212,255,cs),
(256,209,o),
(331,172,o),
(404,172,cs),
(560,172,o),
(716,302,o),
(820,446,c),
(790,444,l),
(792,428,o),
(793,412,o),
(793,393,cs),
(793,302,o),
(761,151,o),
(727,16,c),
(798,-51,l)
);
},
{
closed = 1;
nodes = (
(811,192,l),
(834,334,l),
(434,94,l),
(434,76,l),
(523,8,l)
);
},
{
closed = 1;
nodes = (
(582,346,l),
(523,556,o),
(479,621,o),
(403,621,cs),
(352,621,o),
(319,600,o),
(319,556,cs),
(319,529,o),
(335,492,o),
(356,468,c),
(383,484,o),
(413,495,o),
(436,495,cs),
(467,495,o),
(485,482,o),
(535,309,c)
);
}
);
width = 1036;
}
);
metricLeft = "kh_ra-khoj";
metricRight = "kha_iMatra-khoj";
script = khoj;
},
{
glyphname = "kh_ra_iiMatra-khoj";
kernLeft = A;
kernRight = LII;
lastChange = "2023-06-05 09:48:09 +0000";
layers = (
{
anchors = (
{
name = bottom;
pos = (717,13);
},
{
name = nukta;
pos = (438,600);
},
{
name = top;
pos = (1040,656);
}
);
layerId = "0717401B-DDB5-4983-85F2-A81AFE530D5E";
shapes = (
{
closed = 1;
nodes = (
(1183,-240,o),
(1220,-221,o),
(1222,-187,cs),
(1224,-154,o),
(1192,-129,o),
(1160,-114,c),
(1150,-138,o),
(1118,-158,o),
(1081,-158,cs),
(1035,-158,o),
(1017,-127,o),
(1017,-46,cs),
(1017,85,o),
(1065,252,o),
(1065,385,cs),
(1065,545,o),
(996,661,o),
(924,661,cs),
(886,661,o),
(854,628,o),
(827,579,cs),
(803,536,o),
(782,482,o),
(764,428,c),
(793,444,l),
(773,480,o),
(732,521,o),
(691,544,c),
(616,409,o),
(436,265,o),
(333,265,cs),
(285,265,o),
(276,295,o),
(270,338,cs),
(261,400,o),
(255,456,o),
(183,509,cs),
(155,530,o),
(121,546,o),
(80,546,cs),
(36,546,o),
(0,528,o),
(0,491,cs),
(0,470,o),
(14,446,o),
(38,428,c),
(55,451,o),
(82,484,o),
(111,484,cs),
(139,484,o),
(148,458,o),
(155,412,cs),
(162,365,o),
(166,315,o),
(215,268,cs),
(256,227,o),
(319,195,o),
(380,195,cs),
(504,195,o),
(667,325,o),
(749,464,c),
(717,459,l),
(727,447,o),
(732,433,o),
(732,407,cs),
(732,339,o),
(697,189,o),
(661,46,c),
(720,-2,l),
(734,0,l),
(777,177,o),
(802,282,o),
(836,387,cs),
(872,497,o),
(911,578,o),
(950,578,cs),
(981,578,o),
(988,526,o),
(988,480,cs),
(988,353,o),
(935,145,o),
(935,26,cs),
(935,-124,o),
(1019,-240,o),
(1136,-240,cs)
);
},
{
closed = 1;
nodes = (
(729,203,l),
(752,310,l),
(404,104,l),
(404,97,l),
(476,42,l)
);
},
{
closed = 1;
nodes = (
(537,356,l),
(484,558,o),
(440,603,o),
(374,603,cs),
(332,603,o),
(308,582,o),
(308,554,cs),
(308,533,o),
(320,508,o),
(334,490,c),
(355,502,o),
(376,512,o),
(399,512,cs),
(431,512,o),
(452,498,o),
(504,314,c)
);
}
);
width = 1152;
},
{
anchors = (
{
name = bottom;
pos = (767,-20);
},
{
name = nukta;
pos = (461,600);
},
{
name = top;
pos = (1130,683);
}
);
layerId = "A430B39A-257A-41FC-BEA9-652C696FFEF7";
shapes = (
{
closed = 1;
nodes = (
(1300,-262,o),
(1344,-234,o),
(1345,-189,cs),
(1346,-152,o),
(1312,-122,o),
(1273,-101,c),
(1256,-135,o),
(1223,-157,o),
(1186,-157,cs),
(1148,-157,o),
(1127,-136,o),
(1127,-69,cs),
(1127,61,o),
(1174,245,o),
(1174,374,cs),
(1174,539,o),
(1087,683,o),
(999,683,cs),
(959,683,o),
(927,651,o),
(898,598,cs),
(878,561,o),
(862,526,o),
(838,457,c),
(877,449,l),
(850,494,o),
(788,550,o),
(742,572,c),
(648,430,o),
(477,267,o),
(360,267,cs),
(322,267,o),
(316,289,o),
(308,342,cs),
(301,391,o),
(292,452,o),
(225,506,cs),
(179,543,o),
(126,561,o),
(80,561,cs),
(16,561,o),
(-20,532,o),
(-20,486,cs),
(-20,453,o),
(0,421,o),
(45,403,c),
(67,440,o),
(96,471,o),
(117,471,cs),
(142,471,o),
(145,437,o),
(151,391,cs),
(159,331,o),
(172,296,o),
(212,255,cs),
(256,209,o),
(331,172,o),
(404,172,cs),
(560,172,o),
(716,302,o),
(820,446,c),
(790,444,l),
(792,428,o),
(793,412,o),
(793,393,cs),
(793,302,o),
(761,151,o),
(727,16,c),
(798,-51,l),
(823,-46,l),
(862,122,o),
(898,271,o),
(932,373,cs),
(970,486,o),
(1006,556,o),
(1029,556,cs),
(1044,556,o),
(1051,537,o),
(1051,496,cs),
(1051,369,o),
(1004,144,o),
(1004,33,cs),
(1004,-119,o),
(1097,-262,o),
(1243,-262,cs)
);
},
{
closed = 1;
nodes = (
(811,192,l),
(834,334,l),
(434,94,l),
(434,76,l),
(523,8,l)
);
},
{
closed = 1;
nodes = (
(582,346,l),
(523,556,o),
(479,621,o),
(403,621,cs),
(352,621,o),
(319,600,o),
(319,556,cs),
(319,529,o),
(335,492,o),
(356,468,c),
(383,484,o),
(413,495,o),
(436,495,cs),
(467,495,o),
(485,482,o),
(535,309,c)
);
}
);
width = 1260;
}
);
metricLeft = "kh_ra-khoj";
metricRight = "kha_iiMatra-khoj";
script = khoj;
},
{
category = "";
glyphname = "kh_ra_uMatra-khoj";
kernLeft = KU;
kernRight = KHU;
lastChange = "2023-06-05 09:48:09 +0000";
layers = (
{
anchors = (
{
name = bottom;
pos = (654,-201);
},
{
name = nukta;
pos = (463,600);
},
{
name = top;
pos = (817,536);
}
);
layerId = "0717401B-DDB5-4983-85F2-A81AFE530D5E";
shapes = (
{
closed = 1;
nodes = (
(824,-201,o),
(904,-123,o),
(904,-38,cs),
(904,40,o),
(835,100,o),
(759,117,c),
(771,76,l),
(800,172,o),
(821,291,o),
(821,407,cs),
(821,421,o),
(821,436,o),
(820,450,c),
(795,491,o),
(753,527,o),
(716,544,c),
(641,409,o),
(461,265,o),
(358,265,cs),
(310,265,o),
(301,295,o),
(295,338,cs),
(286,400,o),
(280,456,o),
(208,509,cs),
(180,530,o),
(146,546,o),
(105,546,cs),
(61,546,o),
(25,528,o),
(25,491,cs),
(25,470,o),
(39,446,o),
(63,428,c),
(80,451,o),
(107,484,o),
(136,484,cs),
(164,484,o),
(173,458,o),
(180,412,cs),
(187,365,o),
(191,315,o),
(240,268,cs),
(281,227,o),
(344,195,o),
(405,195,cs),
(529,195,o),
(692,325,o),
(774,464,c),
(759,465,l),
(754,300,o),
(738,163,o),
(635,43,c),
(652,19,o),
(688,-8,o),
(706,-16,c),
(740,27,o),
(769,51,o),
(797,51,cs),
(819,51,o),
(835,34,o),
(835,3,cs),
(835,-67,o),
(759,-114,o),
(636,-114,cs),
(426,-114,o),
(250,23,o),
(152,168,c),
(143,165,l),
(132,110,l),
(229,-41,o),
(434,-201,o),
(664,-201,cs)
);
},
{
closed = 1;
nodes = (
(754,203,l),
(777,310,l),
(429,104,l),
(429,97,l),
(501,42,l)
);
},
{
closed = 1;
nodes = (
(562,356,l),
(509,558,o),
(465,603,o),
(399,603,cs),
(357,603,o),
(333,582,o),
(333,554,cs),
(333,533,o),
(345,508,o),
(359,490,c),
(380,502,o),
(401,512,o),
(424,512,cs),
(456,512,o),
(477,498,o),
(529,314,c)
);
}
);
width = 924;
},
{
anchors = (
{
name = bottom;
pos = (734,-262);
},
{
name = nukta;
pos = (491,600);
},
{
name = top;
pos = (912,543);
}
);
layerId = "A430B39A-257A-41FC-BEA9-652C696FFEF7";
shapes = (
{
closed = 1;
nodes = (
(907,-264,o),
(1017,-198,o),
(1016,-83,cs),
(1015,-4,o),
(943,66,o),
(847,94,c),
(867,58,l),
(894,161,o),
(910,274,o),
(910,375,cs),
(910,405,o),
(909,431,o),
(907,449,c),
(880,494,o),
(818,550,o),
(772,572,c),
(678,430,o),
(507,267,o),
(390,267,cs),
(352,267,o),
(346,289,o),
(338,342,cs),
(331,391,o),
(322,452,o),
(255,506,cs),
(209,543,o),
(156,561,o),
(110,561,cs),
(46,561,o),
(10,532,o),
(10,486,cs),
(10,453,o),
(30,421,o),
(75,403,c),
(97,440,o),
(126,471,o),
(147,471,cs),
(172,471,o),
(175,437,o),
(181,391,cs),
(189,331,o),
(202,296,o),
(242,255,cs),
(286,209,o),
(361,172,o),
(434,172,cs),
(590,172,o),
(746,302,o),
(850,446,c),
(827,455,l),
(827,310,o),
(804,140,o),
(695,0,c),
(719,-28,o),
(769,-57,o),
(795,-66,c),
(825,-32,o),
(858,-7,o),
(887,-7,cs),
(904,-7,o),
(917,-18,o),
(917,-40,cs),
(917,-99,o),
(838,-137,o),
(701,-137,cs),
(520,-137,o),
(317,-58,o),
(170,145,c),
(153,141,l),
(138,63,l),
(268,-124,o),
(505,-264,o),
(739,-264,cs)
);
},
{
closed = 1;
nodes = (
(841,192,l),
(864,334,l),
(464,94,l),
(464,76,l),
(553,8,l)
);
},
{
closed = 1;
nodes = (
(612,346,l),
(553,556,o),
(509,621,o),
(433,621,cs),
(382,621,o),
(349,600,o),
(349,556,cs),
(349,529,o),
(365,492,o),
(386,468,c),
(413,484,o),
(443,495,o),
(466,495,cs),
(497,495,o),
(515,482,o),
(565,309,c)
);
}
);
width = 1021;
}
);
metricLeft = "kha_uMatra-khoj";
metricRight = "kha_uMatra-khoj";
script = khoj;
},
{
category = Letter;
glyphname = "ga-khoj";
kernLeft = GA;
kernRight = YA;
lastChange = "2023-06-05 09:48:09 +0000";
layers = (
{
anchors = (
{
name = bottom;
pos = (536,11);
},
{
name = nukta;
pos = (301,580);
},
{
name = top;
pos = (583,600);
}
);
layerId = "0717401B-DDB5-4983-85F2-A81AFE530D5E";
shapes = (
{
closed = 1;
nodes = (
(554,0,l),
(580,86,o),
(608,249,o),
(608,339,cs),
(608,497,o),
(518,600,o),
(426,600,cs),
(397,600,o),
(359,588,o),
(337,575,c),
(336,569,l),
(352,547,o),
(381,515,o),
(401,498,c),
(424,505,o),
(445,509,o),
(464,509,cs),
(520,509,o),
(540,474,o),
(540,404,cs),
(540,306,o),
(502,178,o),
(467,86,c),
(470,73,o),
(515,4,o),
(529,-9,c)
);
},
{
closed = 1;
nodes = (
(333,122,o),
(400,201,o),
(400,291,cs),
(400,415,o),
(276,501,o),
(210,501,cs),
(180,501,o),
(110,483,o),
(93,483,cs),
(83,483,o),
(78,488,o),
(74,496,cs),
(61,520,l),
(30,510,l),
(81,409,ls),
(85,402,o),
(89,389,o),
(107,389,cs),
(131,389,o),
(210,412,o),
(251,412,cs),
(309,412,o),
(333,368,o),
(333,328,cs),
(333,268,o),
(279,218,o),
(213,218,cs),
(168,218,o),
(130,240,o),
(80,303,c),
(58,278,l),
(100,179,o),
(165,122,o),
(243,122,cs)
);
}
);
width = 673;
},
{
anchors = (
{
name = bottom;
pos = (555,11);
},
{
name = nukta;
pos = (323,589);
},
{
name = top;
pos = (635,613);
}
);
layerId = "A430B39A-257A-41FC-BEA9-652C696FFEF7";
shapes = (
{
closed = 1;
nodes = (
(602,-13,l),
(628,75,o),
(656,231,o),
(656,318,cs),
(656,490,o),
(557,612,o),
(452,612,cs),
(419,612,o),
(378,601,o),
(348,584,c),
(344,568,l),
(363,540,o),
(402,492,o),
(424,472,c),
(452,483,o),
(477,489,o),
(496,489,cs),
(539,489,o),
(554,455,o),
(554,410,cs),
(554,315,o),
(505,171,o),
(468,95,c),
(486,60,o),
(546,-8,o),
(564,-22,c)
);
},
{
closed = 1;
nodes = (
(358,90,o),
(436,160,o),
(436,278,cs),
(436,417,o),
(296,522,o),
(225,522,cs),
(194,522,o),
(118,502,o),
(104,502,cs),
(99,502,o),
(92,504,o),
(88,512,cs),
(73,539,l),
(25,524,l),
(86,393,ls),
(93,379,o),
(101,365,o),
(123,365,cs),
(151,365,o),
(233,390,o),
(279,390,cs),
(320,390,o),
(342,359,o),
(342,321,cs),
(342,265,o),
(288,224,o),
(221,224,cs),
(167,224,o),
(131,247,o),
(84,304,c),
(46,262,l),
(100,150,o),
(172,90,o),
(261,90,cs)
);
}
);
width = 711;
}
);
metricRight = "ya-khoj";
note = kj_GA;
script = khoj;
unicode = 70154;
},
{
glyphname = "ga_iMatra-khoj";
kernLeft = GA;
kernRight = LI;
lastChange = "2023-06-05 09:48:09 +0000";
layers = (
{
anchors = (
{
name = bottom;
pos = (531,11);
},
{
name = nukta;
pos = (296,580);
},
{
name = top;
pos = (1056,892);
}
);
layerId = "0717401B-DDB5-4983-85F2-A81AFE530D5E";
shapes = (
{
closed = 1;
nodes = (
(592,-1,l),
(677,294,o),
(768,589,o),
(847,717,cs),
(887,781,o),
(936,814,o),
(997,814,cs),
(1058,814,o),
(1112,782,o),
(1153,736,c),
(1162,738,l),
(1157,809,l),
(1111,859,o),
(1047,895,o),
(973,895,cs),
(895,895,o),
(834,858,o),
(789,792,cs),
(722,693,o),
(645,446,o),
(583,224,c),
(595,218,l),
(602,297,o),
(599,397,o),
(585,449,cs),
(562,538,o),
(491,600,o),
(422,600,cs),
(392,600,o),
(354,588,o),
(332,575,c),
(331,569,l),
(347,547,o),
(376,515,o),
(396,498,c),
(419,505,o),
(440,509,o),
(458,509,cs),
(529,509,o),
(539,449,o),
(539,359,cs),
(539,254,o),
(525,133,o),
(515,49,c),
(579,-4,l)
);
},
{
closed = 1;
nodes = (
(333,122,o),
(400,201,o),
(400,291,cs),
(400,415,o),
(276,501,o),
(210,501,cs),
(180,501,o),
(110,483,o),
(93,483,cs),
(83,483,o),
(78,488,o),
(74,496,cs),
(61,520,l),
(30,510,l),
(81,409,ls),
(85,402,o),
(89,389,o),
(107,389,cs),
(131,389,o),
(210,412,o),
(251,412,cs),
(309,412,o),
(333,368,o),
(333,328,cs),
(333,268,o),
(279,218,o),
(213,218,cs),
(168,218,o),
(130,240,o),
(80,303,c),
(58,278,l),
(100,179,o),
(165,122,o),
(243,122,cs)
);
}
);
width = 842;
},
{
anchors = (
{
name = bottom;
pos = (555,11);
},
{
name = nukta;
pos = (323,589);
},
{
name = top;
pos = (1127,918);
}
);
layerId = "A430B39A-257A-41FC-BEA9-652C696FFEF7";
shapes = (
{
closed = 1;
nodes = (
(640,-8,l),
(710,214,o),
(796,479,o),
(860,631,cs),
(916,764,o),
(981,801,o),
(1056,801,cs),
(1114,801,o),
(1178,771,o),
(1220,727,c),
(1233,732,l),
(1217,829,l),
(1152,888,o),
(1085,918,o),
(1010,918,cs),
(904,918,o),
(825,859,o),
(764,720,cs),
(718,616,o),
(669,458,o),
(611,256,c),
(651,246,l),
(653,339,o),
(648,425,o),
(621,483,cs),
(584,563,o),
(519,612,o),
(452,612,cs),
(419,612,o),
(378,601,o),
(348,584,c),
(344,568,l),
(363,540,o),
(402,492,o),
(424,472,c),
(452,483,o),
(477,489,o),
(496,489,cs),
(544,489,o),
(559,452,o),
(559,372,cs),
(559,246,o),
(545,153,o),
(528,53,c),
(605,-17,l)
);
},
{
closed = 1;
nodes = (
(358,90,o),
(436,160,o),
(436,278,cs),
(436,417,o),
(296,522,o),
(225,522,cs),
(194,522,o),
(118,502,o),
(104,502,cs),
(99,502,o),
(92,504,o),
(88,512,cs),
(73,539,l),
(25,524,l),
(86,393,ls),
(93,379,o),
(101,365,o),
(123,365,cs),
(151,365,o),
(233,390,o),
(279,390,cs),
(320,390,o),
(342,359,o),
(342,321,cs),
(342,265,o),
(288,224,o),
(221,224,cs),
(167,224,o),
(131,247,o),
(84,304,c),
(46,262,l),
(100,150,o),
(172,90,o),
(261,90,cs)
);
}
);
width = 893;
}
);
metricLeft = "ga-khoj";
metricRight = "la_iMatra-khoj";
script = khoj;
},
{
glyphname = "ga_iiMatra-khoj";
kernLeft = GA;
kernRight = LII;
lastChange = "2023-06-05 09:48:09 +0000";
layers = (
{
anchors = (
{
name = bottom;
pos = (531,11);
},
{
name = nukta;
pos = (296,580);
},
{
name = top;
pos = (926,656);
}
);
layerId = "0717401B-DDB5-4983-85F2-A81AFE530D5E";
shapes = (
{
closed = 1;
nodes = (
(1074,-240,o),
(1111,-221,o),
(1113,-187,cs),
(1115,-154,o),
(1083,-129,o),
(1051,-114,c),
(1041,-138,o),
(1009,-158,o),
(972,-158,cs),
(926,-158,o),
(908,-127,o),
(908,-45,cs),
(908,83,o),
(951,253,o),
(951,385,cs),
(951,548,o),
(885,661,o),
(812,661,cs),
(774,661,o),
(738,628,o),
(702,549,cs),
(667,472,o),
(622,341,o),
(581,209,c),
(595,218,l),
(602,297,o),
(599,397,o),
(585,449,cs),
(562,538,o),
(491,600,o),
(422,600,cs),
(392,600,o),
(354,588,o),
(332,575,c),
(331,569,l),
(347,547,o),
(376,515,o),
(396,498,c),
(419,505,o),
(440,509,o),
(458,509,cs),
(529,509,o),
(539,449,o),
(539,359,cs),
(539,254,o),
(525,133,o),
(515,49,c),
(579,-4,l),
(592,-1,l),
(632,135,o),
(718,376,o),
(760,472,cs),
(789,539,o),
(817,578,o),
(840,578,cs),
(867,578,o),
(873,527,o),
(873,482,cs),
(873,353,o),
(826,144,o),
(826,28,cs),
(826,-131,o),
(914,-240,o),
(1027,-240,cs)
);
},
{
closed = 1;
nodes = (
(333,122,o),
(400,201,o),
(400,291,cs),
(400,415,o),
(276,501,o),
(210,501,cs),
(180,501,o),
(110,483,o),
(93,483,cs),
(83,483,o),
(78,488,o),
(74,496,cs),
(61,520,l),
(30,510,l),
(81,409,ls),
(85,402,o),
(89,389,o),
(107,389,cs),
(131,389,o),
(210,412,o),
(251,412,cs),
(309,412,o),
(333,368,o),
(333,328,cs),
(333,268,o),
(279,218,o),
(213,218,cs),
(168,218,o),
(130,240,o),
(80,303,c),
(58,278,l),
(100,179,o),
(165,122,o),
(243,122,cs)
);
}
);
width = 1043;
},
{
anchors = (
{
name = bottom;
pos = (555,11);
},
{
name = nukta;
pos = (323,589);
},
{
name = top;
pos = (980,683);
}
);
layerId = "A430B39A-257A-41FC-BEA9-652C696FFEF7";
shapes = (
{
closed = 1;
nodes = (
(1149,-262,o),
(1193,-234,o),
(1194,-189,cs),
(1195,-152,o),
(1161,-122,o),
(1122,-101,c),
(1105,-135,o),
(1072,-157,o),
(1035,-157,cs),
(997,-157,o),
(976,-136,o),
(976,-69,cs),
(976,61,o),
(1023,245,o),
(1023,374,cs),
(1023,539,o),
(936,683,o),
(849,683,cs),
(801,683,o),
(761,646,o),
(723,557,cs),
(691,483,o),
(657,393,o),
(619,258,c),
(651,262,l),
(652,349,o),
(646,428,o),
(621,483,cs),
(584,564,o),
(519,612,o),
(452,612,cs),
(419,612,o),
(378,601,o),
(348,584,c),
(344,568,l),
(363,540,o),
(402,492,o),
(424,472,c),
(452,483,o),
(477,489,o),
(496,489,cs),
(544,489,o),
(559,452,o),
(559,372,cs),
(559,246,o),
(545,153,o),
(528,53,c),
(605,-17,l),
(640,-8,l),
(690,148,o),
(768,350,o),
(809,449,cs),
(836,515,o),
(857,556,o),
(878,556,cs),
(891,556,o),
(900,537,o),
(900,496,cs),
(900,369,o),
(853,144,o),
(853,33,cs),
(853,-119,o),
(946,-262,o),
(1092,-262,cs)
);
},
{
closed = 1;
nodes = (
(358,90,o),
(436,160,o),
(436,278,cs),
(436,417,o),
(296,522,o),
(225,522,cs),
(194,522,o),
(118,502,o),
(104,502,cs),
(99,502,o),
(92,504,o),
(88,512,cs),
(73,539,l),
(25,524,l),
(86,393,ls),
(93,379,o),
(101,365,o),
(123,365,cs),
(151,365,o),
(233,390,o),
(279,390,cs),
(320,390,o),
(342,359,o),
(342,321,cs),
(342,265,o),
(288,224,o),
(221,224,cs),
(167,224,o),
(131,247,o),
(84,304,c),
(46,262,l),
(100,150,o),
(172,90,o),
(261,90,cs)
);
}
);
width = 1108;
}
);
metricLeft = "ga-khoj";
metricRight = "la_iiMatra-khoj";
script = khoj;
},
{
category = Letter;
glyphname = "ga_uMatra-khoj";
kernLeft = YU;
kernRight = YA;
lastChange = "2023-06-05 09:48:09 +0000";
layers = (
{
anchors = (
{
name = bottom;
pos = (418,-121);
},
{
name = nukta;
pos = (349,580);
},
{
name = top;
pos = (610,600);
}
);
layerId = "0717401B-DDB5-4983-85F2-A81AFE530D5E";
shapes = (
{
closed = 1;
nodes = (
(544,-123,o),
(655,96,o),
(655,306,cs),
(655,392,o),
(638,458,o),
(609,507,cs),
(574,566,o),
(522,600,o),
(469,600,cs),
(440,600,o),
(402,588,o),
(380,575,c),
(379,569,l),
(395,547,o),
(424,515,o),
(444,498,c),
(467,505,o),
(490,509,o),
(508,509,cs),
(577,509,o),
(590,446,o),
(590,369,cs),
(590,139,o),
(464,-37,o),
(301,-37,cs),
(202,-37,o),
(105,25,o),
(42,120,c),
(36,118,l),
(30,61,l),
(91,-39,o),
(207,-123,o),
(338,-123,cs)
);
},
{
closed = 1;
nodes = (
(376,122,o),
(443,201,o),
(443,291,cs),
(443,415,o),
(319,501,o),
(253,501,cs),
(223,501,o),
(153,483,o),
(136,483,cs),
(126,483,o),
(121,488,o),
(117,496,cs),
(104,520,l),
(73,510,l),
(124,409,ls),
(128,402,o),
(132,389,o),
(150,389,cs),
(174,389,o),
(253,412,o),
(294,412,cs),
(352,412,o),
(376,368,o),
(376,328,cs),
(376,268,o),
(322,218,o),
(256,218,cs),
(211,218,o),
(173,240,o),
(123,303,c),
(101,278,l),
(143,179,o),
(208,122,o),
(286,122,cs)
);
}
);
width = 720;
},
{
anchors = (
{
name = bottom;
pos = (451,-147);
},
{
name = nukta;
pos = (363,589);
},
{
name = top;
pos = (675,613);
}
);
layerId = "A430B39A-257A-41FC-BEA9-652C696FFEF7";
shapes = (
{
closed = 1;
nodes = (
(557,-154,o),
(702,41,o),
(702,287,cs),
(702,372,o),
(681,451,o),
(650,504,cs),
(610,573,o),
(551,612,o),
(492,612,cs),
(459,612,o),
(418,601,o),
(388,584,c),
(384,568,l),
(403,540,o),
(442,492,o),
(464,472,c),
(492,483,o),
(517,489,o),
(536,489,cs),
(579,489,o),
(605,457,o),
(605,381,cs),
(605,150,o),
(477,-29,o),
(298,-29,cs),
(206,-29,o),
(110,20,o),
(38,125,c),
(24,122,l),
(15,46,l),
(89,-76,o),
(217,-154,o),
(349,-154,cs)
);
},
{
closed = 1;
nodes = (
(398,90,o),
(476,160,o),
(476,278,cs),
(476,417,o),
(336,522,o),
(265,522,cs),
(234,522,o),
(158,502,o),
(144,502,cs),
(139,502,o),
(132,504,o),
(128,512,cs),
(113,539,l),
(65,524,l),
(126,393,ls),
(133,379,o),
(141,365,o),
(163,365,cs),
(191,365,o),
(273,390,o),
(319,390,cs),
(360,390,o),
(382,359,o),
(382,321,cs),
(382,265,o),
(328,224,o),
(261,224,cs),
(207,224,o),
(171,247,o),
(124,304,c),
(86,262,l),
(140,150,o),
(212,90,o),
(301,90,cs)
);
}
);
width = 757;
}
);
metricRight = "ga-khoj";
note = GU;
script = khoj;
},
{
category = Letter;
glyphname = "g_na-khoj";
kernLeft = GGA;
kernRight = AA;
lastChange = "2023-06-05 09:48:09 +0000";
layers = (
{
anchors = (
{
name = bottom;
pos = (579,-9);
},
{
name = nukta;
pos = (303,600);
},
{
name = top;
pos = (545,600);
}
);
layerId = "0717401B-DDB5-4983-85F2-A81AFE530D5E";
shapes = (
{
closed = 1;
nodes = (
(330,-104,o),
(389,-46,o),
(389,24,cs),
(389,85,o),
(337,133,o),
(278,155,c),
(251,126,l),
(291,113,o),
(315,84,o),
(315,51,cs),
(315,5,o),
(268,-34,o),
(224,-34,cs),
(190,-34,o),
(169,-11,o),
(169,16,cs),
(169,70,o),
(254,101,o),
(329,129,cs),
(549,211,l),
(546,296,l),
(264,191,ls),
(183,161,o),
(96,126,o),
(96,44,cs),
(96,-34,o),
(173,-104,o),
(255,-104,cs)
);
},
{
closed = 1;
nodes = (
(311,246,o),
(374,317,o),
(374,401,cs),
(374,515,o),
(260,593,o),
(203,593,cs),
(178,593,o),
(116,577,o),
(98,577,cs),
(87,577,o),
(83,583,o),
(72,602,c),
(40,591,l),
(82,506,ls),
(88,494,o),
(97,487,o),
(110,487,cs),
(131,487,o),
(205,507,o),
(240,507,cs),
(287,507,o),
(309,471,o),
(309,435,cs),
(309,382,o),
(262,338,o),
(204,338,cs),
(167,338,o),
(134,354,o),
(84,416,c),
(60,391,l),
(99,298,o),
(159,246,o),
(229,246,cs)
);
},
{
closed = 1;
nodes = (
(539,0,l),
(561,84,o),
(573,192,o),
(573,293,cs),
(573,400,o),
(559,514,o),
(535,600,c),
(459,600,l),
(479,516,o),
(491,430,o),
(491,340,cs),
(491,253,o),
(480,164,o),
(459,83,c),
(462,70,o),
(501,4,o),
(515,-9,c)
);
}
);
width = 658;
},
{
anchors = (
{
name = bottom;
pos = (624,-30);
},
{
name = nukta;
pos = (310,613);
},
{
name = top;
pos = (576,613);
}
);
layerId = "A430B39A-257A-41FC-BEA9-652C696FFEF7";
shapes = (
{
closed = 1;
nodes = (
(346,-140,o),
(415,-80,o),
(415,4,cs),
(415,69,o),
(357,127,o),
(292,146,c),
(253,104,l),
(281,94,o),
(307,75,o),
(307,44,cs),
(307,0,o),
(265,-37,o),
(224,-37,cs),
(202,-37,o),
(187,-23,o),
(187,-2,cs),
(187,38,o),
(231,66,o),
(337,105,cs),
(570,191,l),
(567,314,l),
(243,194,ls),
(151,160,o),
(80,121,o),
(80,30,cs),
(80,-67,o),
(168,-140,o),
(262,-140,cs)
);
},
{
closed = 1;
nodes = (
(329,232,o),
(397,301,o),
(397,398,cs),
(397,521,o),
(269,616,o),
(205,616,cs),
(180,616,o),
(131,600,o),
(110,600,cs),
(96,600,o),
(91,608,o),
(79,632,c),
(25,615,l),
(79,495,ls),
(87,476,o),
(100,466,o),
(119,466,cs),
(143,466,o),
(213,487,o),
(252,487,cs),
(284,487,o),
(302,473,o),
(302,442,cs),
(302,400,o),
(263,367,o),
(208,367,cs),
(162,367,o),
(127,385,o),
(85,438,c),
(44,389,l),
(92,286,o),
(157,232,o),
(236,232,cs)
);
},
{
closed = 1;
nodes = (
(575,-13,l),
(597,87,o),
(606,202,o),
(606,292,cs),
(606,396,o),
(594,501,o),
(568,613,c),
(457,613,l),
(476,525,o),
(484,438,o),
(484,360,cs),
(484,269,o),
(475,176,o),
(452,75,c),
(469,49,o),
(520,-9,o),
(537,-22,c)
);
}
);
width = 681;
}
);
metricLeft = "gga-khoj";
metricRight = "gga-khoj";
note = JNYA;
script = khoj;
},
{
glyphname = "g_na_iMatra-khoj";
kernLeft = GGA;
kernRight = LI;
lastChange = "2023-06-05 09:48:09 +0000";
layers = (
{
anchors = (
{
name = bottom;
pos = (619,11);
},
{
name = nukta;
pos = (303,600);
},
{
name = top;
pos = (1022,892);
}
);
layerId = "0717401B-DDB5-4983-85F2-A81AFE530D5E";
shapes = (
{
closed = 1;
nodes = (
(560,-1,l),
(645,294,o),
(735,589,o),
(815,717,cs),
(855,781,o),
(904,814,o),
(965,814,cs),
(1026,814,o),
(1080,782,o),
(1121,736,c),
(1130,738,l),
(1125,809,l),
(1079,859,o),
(1015,895,o),
(941,895,cs),
(863,895,o),
(802,858,o),
(757,792,cs),
(690,693,o),
(613,446,o),
(551,224,c),
(563,208,l),
(565,237,o),
(567,265,o),
(567,303,cs),
(567,400,o),
(555,512,o),
(534,600,c),
(459,600,l),
(485,496,o),
(495,391,o),
(495,280,cs),
(495,206,o),
(491,129,o),
(485,48,c),
(547,-4,l)
);
},
{
closed = 1;
nodes = (
(330,-104,o),
(389,-46,o),
(389,24,cs),
(389,85,o),
(337,133,o),
(278,155,c),
(251,126,l),
(291,113,o),
(315,84,o),
(315,51,cs),
(315,5,o),
(268,-34,o),
(224,-34,cs),
(190,-34,o),
(169,-11,o),
(169,16,cs),
(169,70,o),
(254,101,o),
(329,129,cs),
(549,211,l),
(546,296,l),
(264,191,ls),
(183,161,o),
(96,126,o),
(96,44,cs),
(96,-34,o),
(173,-104,o),
(255,-104,cs)
);
},
{
closed = 1;
nodes = (
(311,246,o),
(374,317,o),
(374,401,cs),
(374,515,o),
(260,593,o),
(203,593,cs),
(178,593,o),
(116,577,o),
(98,577,cs),
(87,577,o),
(83,583,o),
(72,602,c),
(40,591,l),
(82,506,ls),
(88,494,o),
(97,487,o),
(110,487,cs),
(131,487,o),
(205,507,o),
(240,507,cs),
(287,507,o),
(309,471,o),
(309,435,cs),
(309,382,o),
(262,338,o),
(204,338,cs),
(167,338,o),
(134,354,o),
(84,416,c),
(60,391,l),
(99,298,o),
(159,246,o),
(229,246,cs)
);
}
);
width = 810;
},
{
anchors = (
{
name = bottom;
pos = (671,-4);
},
{
name = nukta;
pos = (310,613);
},
{
name = top;
pos = (1089,918);
}
);
layerId = "A430B39A-257A-41FC-BEA9-652C696FFEF7";
shapes = (
{
closed = 1;
nodes = (
(593,-8,l),
(667,214,o),
(758,479,o),
(822,631,cs),
(878,764,o),
(943,801,o),
(1018,801,cs),
(1076,801,o),
(1140,771,o),
(1182,727,c),
(1195,732,l),
(1179,829,l),
(1114,888,o),
(1047,918,o),
(972,918,cs),
(866,918,o),
(787,859,o),
(726,720,cs),
(678,610,o),
(625,439,o),
(562,219,c),
(588,176,l),
(592,214,o),
(594,256,o),
(594,299,cs),
(594,404,o),
(585,520,o),
(566,613,c),
(457,613,l),
(480,503,o),
(491,388,o),
(491,267,cs),
(491,197,o),
(488,126,o),
(481,53,c),
(558,-17,l)
);
},
{
closed = 1;
nodes = (
(346,-140,o),
(415,-80,o),
(415,4,cs),
(415,69,o),
(357,127,o),
(292,146,c),
(253,104,l),
(281,94,o),
(307,75,o),
(307,44,cs),
(307,0,o),
(265,-37,o),
(224,-37,cs),
(202,-37,o),
(187,-23,o),
(187,-2,cs),
(187,38,o),
(231,66,o),
(337,105,cs),
(570,191,l),
(567,314,l),
(243,194,ls),
(151,160,o),
(80,121,o),
(80,30,cs),
(80,-67,o),
(168,-140,o),
(262,-140,cs)
);
},
{
closed = 1;
nodes = (
(329,232,o),
(397,301,o),
(397,398,cs),
(397,521,o),
(269,616,o),
(205,616,cs),
(180,616,o),
(131,600,o),
(110,600,cs),
(96,600,o),
(91,608,o),
(79,632,c),
(25,615,l),
(79,495,ls),
(87,476,o),
(100,466,o),
(119,466,cs),
(143,466,o),
(213,487,o),
(252,487,cs),
(284,487,o),
(302,473,o),
(302,442,cs),
(302,400,o),
(263,367,o),
(208,367,cs),
(162,367,o),
(127,385,o),
(85,438,c),
(44,389,l),
(92,286,o),
(157,232,o),
(236,232,cs)
);
}
);
width = 855;
}
);
metricLeft = "g_na-khoj";
metricRight = "gga_iMatra-khoj";
script = khoj;
},
{
glyphname = "g_na_iiMatra-khoj";
kernLeft = GGA;
kernRight = LII;
lastChange = "2023-06-05 09:48:09 +0000";
layers = (
{
anchors = (
{
name = bottom;
pos = (647,-10);
},
{
name = nukta;
pos = (305,600);
},
{
name = top;
pos = (896,656);
}
);
layerId = "0717401B-DDB5-4983-85F2-A81AFE530D5E";
shapes = (
{
closed = 1;
nodes = (
(1040,-240,o),
(1079,-221,o),
(1081,-187,cs),
(1083,-154,o),
(1051,-129,o),
(1019,-114,c),
(1009,-138,o),
(977,-158,o),
(940,-158,cs),
(896,-158,o),
(876,-127,o),
(876,-54,cs),
(876,98,o),
(919,237,o),
(919,395,cs),
(919,519,o),
(865,661,o),
(780,661,cs),
(742,661,o),
(706,628,o),
(670,549,cs),
(632,465,o),
(587,332,o),
(549,209,c),
(563,208,l),
(565,237,o),
(567,267,o),
(567,298,cs),
(567,401,o),
(555,512,o),
(534,600,c),
(459,600,l),
(485,496,o),
(495,391,o),
(495,280,cs),
(495,206,o),
(491,129,o),
(485,48,c),
(547,-4,l),
(560,-1,l),
(598,128,o),
(681,364,o),
(728,472,cs),
(757,539,o),
(785,578,o),
(809,578,cs),
(835,578,o),
(841,526,o),
(841,482,cs),
(841,352,o),
(794,145,o),
(794,27,cs),
(794,-107,o),
(863,-240,o),
(1000,-240,cs)
);
},
{
closed = 1;
nodes = (
(330,-104,o),
(389,-46,o),
(389,24,cs),
(389,85,o),
(337,133,o),
(278,155,c),
(251,126,l),
(291,113,o),
(315,84,o),
(315,51,cs),
(315,5,o),
(268,-34,o),
(224,-34,cs),
(190,-34,o),
(169,-11,o),
(169,16,cs),
(169,70,o),
(254,101,o),
(329,129,cs),
(549,211,l),
(546,296,l),
(264,191,ls),
(183,161,o),
(96,126,o),
(96,44,cs),
(96,-34,o),
(173,-104,o),
(255,-104,cs)
);
},
{
closed = 1;
nodes = (
(311,246,o),
(374,317,o),
(374,401,cs),
(374,515,o),
(260,593,o),
(203,593,cs),
(178,593,o),
(116,577,o),
(98,577,cs),
(87,577,o),
(83,583,o),
(72,602,c),
(40,591,l),
(82,506,ls),
(88,494,o),
(97,487,o),
(110,487,cs),
(131,487,o),
(205,507,o),
(240,507,cs),
(287,507,o),
(309,471,o),
(309,435,cs),
(309,382,o),
(262,338,o),
(204,338,cs),
(167,338,o),
(134,354,o),
(84,416,c),
(60,391,l),
(99,298,o),
(159,246,o),
(229,246,cs)
);
}
);
width = 1011;
},
{
anchors = (
{
name = bottom;
pos = (674,-30);
},
{
name = nukta;
pos = (310,613);
},
{
name = top;
pos = (939,683);
}
);
layerId = "A430B39A-257A-41FC-BEA9-652C696FFEF7";
shapes = (
{
closed = 1;
nodes = (
(1108,-262,o),
(1152,-234,o),
(1153,-189,cs),
(1154,-152,o),
(1120,-122,o),
(1081,-101,c),
(1064,-135,o),
(1031,-157,o),
(994,-157,cs),
(956,-157,o),
(935,-136,o),
(935,-69,cs),
(935,61,o),
(982,245,o),
(982,374,cs),
(982,539,o),
(895,683,o),
(808,683,cs),
(760,683,o),
(720,646,o),
(682,557,cs),
(645,471,o),
(606,364,o),
(560,197,c),
(588,176,l),
(592,214,o),
(594,256,o),
(594,299,cs),
(594,404,o),
(585,520,o),
(566,613,c),
(457,613,l),
(480,503,o),
(491,388,o),
(491,267,cs),
(491,197,o),
(488,126,o),
(481,53,c),
(558,-17,l),
(592,-8,l),
(646,148,o),
(727,350,o),
(768,449,cs),
(795,515,o),
(816,556,o),
(837,556,cs),
(850,556,o),
(859,537,o),
(859,496,cs),
(859,369,o),
(812,144,o),
(812,33,cs),
(812,-119,o),
(905,-262,o),
(1051,-262,cs)
);
},
{
closed = 1;
nodes = (
(346,-140,o),
(415,-80,o),
(415,4,cs),
(415,69,o),
(357,127,o),
(292,146,c),
(253,104,l),
(281,94,o),
(307,75,o),
(307,44,cs),
(307,0,o),
(265,-37,o),
(224,-37,cs),
(202,-37,o),
(187,-23,o),
(187,-2,cs),
(187,38,o),
(231,66,o),
(337,105,cs),
(570,191,l),
(567,314,l),
(243,194,ls),
(151,160,o),
(80,121,o),
(80,30,cs),
(80,-67,o),
(168,-140,o),
(262,-140,cs)
);
},
{
closed = 1;
nodes = (
(329,232,o),
(397,301,o),
(397,398,cs),
(397,521,o),
(269,616,o),
(205,616,cs),
(180,616,o),
(131,600,o),
(110,600,cs),
(96,600,o),
(91,608,o),
(79,632,c),
(25,615,l),
(79,495,ls),
(87,476,o),
(100,466,o),
(119,466,cs),
(143,466,o),
(213,487,o),
(252,487,cs),
(284,487,o),
(302,473,o),
(302,442,cs),
(302,400,o),
(263,367,o),
(208,367,cs),
(162,367,o),
(127,385,o),
(85,438,c),
(44,389,l),
(92,286,o),
(157,232,o),
(236,232,cs)
);
}
);
width = 1067;
}
);
metricLeft = "g_na-khoj";
metricRight = "gga_iiMatra-khoj";
script = khoj;
},
{
glyphname = "g_na_uMatra-khoj";
kernLeft = LU;
kernRight = AA;
lastChange = "2023-06-05 09:48:09 +0000";
layers = (
{
anchors = (
{
name = bottom;
pos = (331,-245);
},
{
name = nukta;
pos = (328,600);
},
{
name = top;
pos = (570,600);
}
);
layerId = "0717401B-DDB5-4983-85F2-A81AFE530D5E";
shapes = (
{
closed = 1;
nodes = (
(517,-244,o),
(606,-71,o),
(606,209,cs),
(606,345,o),
(584,514,o),
(560,600,c),
(484,600,l),
(504,516,o),
(524,379,o),
(524,254,cs),
(524,-26,o),
(451,-161,o),
(256,-161,cs),
(147,-161,o),
(55,-105,o),
(-13,-20,c),
(-19,-22,l),
(-25,-77,l),
(41,-166,o),
(153,-244,o),
(292,-244,cs)
);
},
{
closed = 1;
nodes = (
(355,-96,o),
(414,-38,o),
(414,32,cs),
(414,93,o),
(362,141,o),
(303,163,c),
(276,134,l),
(316,121,o),
(340,92,o),
(340,59,cs),
(340,13,o),
(293,-26,o),
(249,-26,cs),
(215,-26,o),
(194,-3,o),
(194,24,cs),
(194,78,o),
(279,109,o),
(354,137,cs),
(574,219,l),
(571,304,l),
(289,199,ls),
(208,169,o),
(121,134,o),
(121,52,cs),
(121,-26,o),
(198,-96,o),
(280,-96,cs)
);
},
{
closed = 1;
nodes = (
(336,246,o),
(399,317,o),
(399,401,cs),
(399,515,o),
(285,593,o),
(228,593,cs),
(203,593,o),
(141,577,o),
(123,577,cs),
(112,577,o),
(108,583,o),
(97,602,c),
(65,591,l),
(107,506,ls),
(113,494,o),
(122,487,o),
(135,487,cs),
(156,487,o),
(230,507,o),
(265,507,cs),
(312,507,o),
(334,471,o),
(334,435,cs),
(334,382,o),
(287,338,o),
(229,338,cs),
(192,338,o),
(159,354,o),
(109,416,c),
(85,391,l),
(124,298,o),
(184,246,o),
(254,246,cs)
);
}
);
width = 691;
},
{
anchors = (
{
name = bottom;
pos = (356,-301);
},
{
name = nukta;
pos = (342,613);
},
{
name = top;
pos = (608,613);
}
);
layerId = "A430B39A-257A-41FC-BEA9-652C696FFEF7";
shapes = (
{
closed = 1;
nodes = (
(509,-303,o),
(647,-178,o),
(647,200,cs),
(647,363,o),
(626,501,o),
(600,613,c),
(489,613,l),
(508,525,o),
(527,397,o),
(527,232,cs),
(527,-86,o),
(421,-182,o),
(270,-182,cs),
(180,-182,o),
(66,-144,o),
(-15,-41,c),
(-26,-44,l),
(-35,-121,l),
(50,-238,o),
(171,-303,o),
(313,-303,cs)
);
},
{
closed = 1;
nodes = (
(368,-122,o),
(435,-64,o),
(435,16,cs),
(435,77,o),
(378,133,o),
(315,152,c),
(277,112,l),
(304,102,o),
(329,83,o),
(329,54,cs),
(329,12,o),
(288,-23,o),
(248,-23,cs),
(227,-23,o),
(212,-10,o),
(212,10,cs),
(212,48,o),
(255,76,o),
(359,113,cs),
(587,195,l),
(584,312,l),
(267,198,ls),
(176,165,o),
(107,127,o),
(107,40,cs),
(107,-53,o),
(193,-122,o),
(285,-122,cs)
);
},
{
closed = 1;
nodes = (
(361,237,o),
(429,305,o),
(429,401,cs),
(429,522,o),
(301,616,o),
(237,616,cs),
(212,616,o),
(163,600,o),
(142,600,cs),
(128,600,o),
(123,608,o),
(111,632,c),
(57,615,l),
(111,497,ls),
(119,478,o),
(132,468,o),
(151,468,cs),
(175,468,o),
(245,489,o),
(284,489,cs),
(316,489,o),
(334,475,o),
(334,444,cs),
(334,403,o),
(295,370,o),
(240,370,cs),
(194,370,o),
(159,388,o),
(117,440,c),
(76,392,l),
(124,290,o),
(189,237,o),
(268,237,cs)
);
}
);
width = 722;
}
);
metricLeft = "gga_uMatra-khoj";
metricRight = "gga_uMatra-khoj";
script = khoj;
},
{
glyphname = "g_na_ra-khoj";
kernLeft = GGA;
kernRight = AA;
lastChange = "2023-06-05 09:48:09 +0000";
layers = (
{
anchors = (
{
name = bottom;
pos = (728,41);
},
{
name = nukta;
pos = (373,600);
},
{
name = top;
pos = (681,600);
}
);
layerId = "0717401B-DDB5-4983-85F2-A81AFE530D5E";
shapes = (
{
closed = 1;
nodes = (
(333,-104,o),
(389,-43,o),
(389,22,cs),
(389,85,o),
(337,133,o),
(278,155,c),
(251,126,l),
(291,113,o),
(315,84,o),
(315,51,cs),
(315,7,o),
(270,-34,o),
(223,-34,cs),
(190,-34,o),
(168,-12,o),
(168,19,cs),
(168,46,o),
(184,64,o),
(226,87,cs),
(261,106,o),
(357,158,o),
(448,214,cs),
(530,264,o),
(602,313,o),
(654,355,c),
(649,458,l),
(587,396,o),
(499,337,o),
(403,280,cs),
(344,245,o),
(264,201,o),
(205,170,cs),
(152,142,o),
(96,111,o),
(96,45,cs),
(96,-34,o),
(174,-104,o),
(256,-104,cs)
);
},
{
closed = 1;
nodes = (
(311,246,o),
(374,317,o),
(374,401,cs),
(374,515,o),
(260,593,o),
(203,593,cs),
(178,593,o),
(116,577,o),
(98,577,cs),
(87,577,o),
(83,583,o),
(72,602,c),
(40,591,l),
(82,506,ls),
(85,500,o),
(91,487,o),
(108,487,cs),
(130,487,o),
(205,507,o),
(240,507,cs),
(287,507,o),
(309,470,o),
(309,437,cs),
(309,382,o),
(262,338,o),
(204,338,cs),
(167,338,o),
(134,354,o),
(84,416,c),
(60,391,l),
(99,298,o),
(159,246,o),
(229,246,cs)
);
},
{
closed = 1;
nodes = (
(640,171,l),
(642,269,l),
(408,98,l),
(408,91,l),
(471,36,l)
);
},
{
closed = 1;
nodes = (
(675,0,l),
(697,84,o),
(709,192,o),
(709,293,cs),
(709,400,o),
(695,514,o),
(671,600,c),
(595,600,l),
(615,516,o),
(627,430,o),
(627,340,cs),
(627,253,o),
(616,164,o),
(595,83,c),
(598,70,o),
(637,4,o),
(651,-9,c)
);
}
);
width = 794;
},
{
anchors = (
{
name = bottom;
pos = (764,-30);
},
{
name = nukta;
pos = (399,603);
},
{
name = top;
pos = (726,613);
}
);
layerId = "A430B39A-257A-41FC-BEA9-652C696FFEF7";
shapes = (
{
closed = 1;
nodes = (
(346,-147,o),
(415,-87,o),
(415,-3,cs),
(415,62,o),
(357,120,o),
(292,139,c),
(253,97,l),
(281,87,o),
(307,68,o),
(307,37,cs),
(307,-7,o),
(265,-44,o),
(224,-44,cs),
(202,-44,o),
(187,-30,o),
(187,-9,cs),
(187,15,o),
(203,36,o),
(240,56,cs),
(283,79,o),
(358,115,o),
(449,171,cs),
(539,226,o),
(615,278,o),
(667,321,c),
(656,484,l),
(603,418,o),
(511,349,o),
(402,283,cs),
(334,242,o),
(261,203,o),
(185,164,cs),
(136,139,o),
(80,96,o),
(80,23,cs),
(80,-74,o),
(168,-147,o),
(262,-147,cs)
);
},
{
closed = 1;
nodes = (
(329,232,o),
(397,301,o),
(397,398,cs),
(397,521,o),
(269,616,o),
(205,616,cs),
(180,616,o),
(131,600,o),
(110,600,cs),
(96,600,o),
(91,608,o),
(79,632,c),
(25,615,l),
(79,495,ls),
(87,476,o),
(100,466,o),
(119,466,cs),
(143,466,o),
(213,487,o),
(252,487,cs),
(284,487,o),
(302,473,o),
(302,442,cs),
(302,400,o),
(263,367,o),
(208,367,cs),
(162,367,o),
(127,385,o),
(85,438,c),
(44,389,l),
(92,286,o),
(157,232,o),
(236,232,cs)
);
},
{
closed = 1;
nodes = (
(702,171,l),
(712,298,l),
(413,94,l),
(413,76,l),
(490,15,l)
);
},
{
closed = 1;
nodes = (
(730,-23,l),
(749,77,o),
(756,192,o),
(756,292,cs),
(756,396,o),
(744,501,o),
(718,613,c),
(607,613,l),
(626,525,o),
(634,438,o),
(634,360,cs),
(634,269,o),
(635,162,o),
(614,60,c),
(631,34,o),
(675,-19,o),
(692,-32,c)
);
}
);
width = 831;
}
);
metricLeft = "g_na-khoj";
metricRight = "g_na-khoj";
script = khoj;
},
{
glyphname = "g_na_ra_iMatra-khoj";
kernLeft = GGA;
kernRight = LI;
lastChange = "2023-06-05 09:48:09 +0000";
layers = (
{
anchors = (
{
name = bottom;
pos = (717,-9);
},
{
name = nukta;
pos = (392,600);
},
{
name = top;
pos = (1160,892);
}
);
layerId = "0717401B-DDB5-4983-85F2-A81AFE530D5E";
shapes = (
{
closed = 1;
nodes = (
(696,-1,l),
(781,294,o),
(872,589,o),
(951,717,cs),
(991,782,o),
(1042,814,o),
(1101,814,cs),
(1162,814,o),
(1216,782,o),
(1257,736,c),
(1266,738,l),
(1261,809,l),
(1215,859,o),
(1151,895,o),
(1077,895,cs),
(999,895,o),
(938,858,o),
(893,792,cs),
(826,693,o),
(749,446,o),
(687,224,c),
(699,208,l),
(701,237,o),
(703,267,o),
(703,298,cs),
(703,401,o),
(691,512,o),
(670,600,c),
(595,600,l),
(621,496,o),
(631,391,o),
(631,280,cs),
(631,206,o),
(627,129,o),
(621,48,c),
(683,-4,l)
);
},
{
closed = 1;
nodes = (
(333,-104,o),
(389,-43,o),
(389,22,cs),
(389,85,o),
(337,133,o),
(278,155,c),
(251,126,l),
(291,113,o),
(315,84,o),
(315,51,cs),
(315,7,o),
(270,-34,o),
(223,-34,cs),
(190,-34,o),
(168,-12,o),
(168,19,cs),
(168,46,o),
(184,64,o),
(226,87,cs),
(261,106,o),
(357,158,o),
(448,214,cs),
(530,264,o),
(602,313,o),
(654,355,c),
(649,458,l),
(587,396,o),
(499,337,o),
(403,280,cs),
(344,245,o),
(264,201,o),
(205,170,cs),
(152,142,o),
(96,111,o),
(96,45,cs),
(96,-34,o),
(174,-104,o),
(256,-104,cs)
);
},
{
closed = 1;
nodes = (
(311,246,o),
(374,317,o),
(374,401,cs),
(374,515,o),
(260,593,o),
(203,593,cs),
(178,593,o),
(116,577,o),
(98,577,cs),
(87,577,o),
(83,583,o),
(72,602,c),
(40,591,l),
(82,506,ls),
(85,500,o),
(91,487,o),
(108,487,cs),
(130,487,o),
(205,507,o),
(240,507,cs),
(287,507,o),
(309,470,o),
(309,437,cs),
(309,382,o),
(262,338,o),
(204,338,cs),
(167,338,o),
(134,354,o),
(84,416,c),
(60,391,l),
(99,298,o),
(159,246,o),
(229,246,cs)
);
},
{
closed = 1;
nodes = (
(640,171,l),
(642,269,l),
(408,98,l),
(408,91,l),
(471,36,l)
);
}
);
width = 946;
},
{
anchors = (
{
name = bottom;
pos = (781,-4);
},
{
name = nukta;
pos = (399,603);
},
{
name = top;
pos = (1239,918);
}
);
layerId = "A430B39A-257A-41FC-BEA9-652C696FFEF7";
shapes = (
{
closed = 1;
nodes = (
(743,-8,l),
(817,214,o),
(908,479,o),
(972,631,cs),
(1028,764,o),
(1093,801,o),
(1168,801,cs),
(1226,801,o),
(1290,771,o),
(1332,727,c),
(1345,732,l),
(1329,829,l),
(1264,888,o),
(1197,918,o),
(1122,918,cs),
(1016,918,o),
(937,859,o),
(876,720,cs),
(828,610,o),
(775,439,o),
(712,219,c),
(738,176,l),
(742,214,o),
(744,256,o),
(744,299,cs),
(744,404,o),
(735,520,o),
(716,613,c),
(607,613,l),
(630,503,o),
(641,388,o),
(641,267,cs),
(641,197,o),
(638,126,o),
(631,53,c),
(708,-17,l)
);
},
{
closed = 1;
nodes = (
(346,-147,o),
(415,-87,o),
(415,-3,cs),
(415,62,o),
(357,120,o),
(292,139,c),
(253,97,l),
(281,87,o),
(307,68,o),
(307,37,cs),
(307,-7,o),
(265,-44,o),
(224,-44,cs),
(202,-44,o),
(187,-30,o),
(187,-9,cs),
(187,15,o),
(203,36,o),
(240,56,cs),
(283,79,o),
(358,115,o),
(449,171,cs),
(539,226,o),
(615,278,o),
(667,321,c),
(656,484,l),
(603,418,o),
(511,349,o),
(402,283,cs),
(334,242,o),
(261,203,o),
(185,164,cs),
(136,139,o),
(80,96,o),
(80,23,cs),
(80,-74,o),
(168,-147,o),
(262,-147,cs)
);
},
{
closed = 1;
nodes = (
(329,232,o),
(397,301,o),
(397,398,cs),
(397,521,o),
(269,616,o),
(205,616,cs),
(180,616,o),
(131,600,o),
(110,600,cs),
(96,600,o),
(91,608,o),
(79,632,c),
(25,615,l),
(79,495,ls),
(87,476,o),
(100,466,o),
(119,466,cs),
(143,466,o),
(213,487,o),
(252,487,cs),
(284,487,o),
(302,473,o),
(302,442,cs),
(302,400,o),
(263,367,o),
(208,367,cs),
(162,367,o),
(127,385,o),
(85,438,c),
(44,389,l),
(92,286,o),
(157,232,o),
(236,232,cs)
);
},
{
closed = 1;
nodes = (
(702,171,l),
(712,298,l),
(413,94,l),
(413,76,l),
(490,15,l)
);
}
);
width = 1005;
}
);
metricLeft = "g_na_iMatra-khoj";
metricRight = "g_na_iMatra-khoj";
script = khoj;
},
{
glyphname = "g_na_ra_iiMatra-khoj";
kernLeft = GGA;
kernRight = LII;
lastChange = "2023-06-05 09:48:09 +0000";
layers = (
{
anchors = (
{
name = bottom;
pos = (783,-10);
},
{
name = nukta;
pos = (393,600);
},
{
name = top;
pos = (1030,656);
}
);
layerId = "0717401B-DDB5-4983-85F2-A81AFE530D5E";
shapes = (
{
closed = 1;
nodes = (
(1176,-240,o),
(1215,-221,o),
(1217,-187,cs),
(1219,-154,o),
(1187,-129,o),
(1155,-114,c),
(1145,-138,o),
(1113,-158,o),
(1076,-158,cs),
(1032,-158,o),
(1012,-127,o),
(1012,-54,cs),
(1012,98,o),
(1055,237,o),
(1055,395,cs),
(1055,519,o),
(1001,661,o),
(916,661,cs),
(878,661,o),
(842,628,o),
(806,549,cs),
(768,465,o),
(723,332,o),
(685,209,c),
(699,208,l),
(701,237,o),
(703,267,o),
(703,298,cs),
(703,401,o),
(691,512,o),
(670,600,c),
(595,600,l),
(621,496,o),
(631,391,o),
(631,280,cs),
(631,206,o),
(627,129,o),
(621,48,c),
(683,-4,l),
(696,-1,l),
(734,128,o),
(817,364,o),
(864,472,cs),
(893,539,o),
(921,578,o),
(945,578,cs),
(971,578,o),
(977,526,o),
(977,482,cs),
(977,352,o),
(930,145,o),
(930,27,cs),
(930,-107,o),
(999,-240,o),
(1136,-240,cs)
);
},
{
closed = 1;
nodes = (
(333,-104,o),
(389,-43,o),
(389,22,cs),
(389,85,o),
(337,133,o),
(278,155,c),
(251,126,l),
(291,113,o),
(315,84,o),
(315,51,cs),
(315,7,o),
(270,-34,o),
(223,-34,cs),
(190,-34,o),
(168,-12,o),
(168,19,cs),
(168,46,o),
(184,64,o),
(226,87,cs),
(261,106,o),
(357,158,o),
(448,214,cs),
(530,264,o),
(602,313,o),
(654,355,c),
(649,458,l),
(587,396,o),
(499,337,o),
(403,280,cs),
(344,245,o),
(264,201,o),
(205,170,cs),
(152,142,o),
(96,111,o),
(96,45,cs),
(96,-34,o),
(174,-104,o),
(256,-104,cs)
);
},
{
closed = 1;
nodes = (
(311,246,o),
(374,317,o),
(374,401,cs),
(374,515,o),
(260,593,o),
(203,593,cs),
(178,593,o),
(116,577,o),
(98,577,cs),
(87,577,o),
(83,583,o),
(72,602,c),
(40,591,l),
(82,506,ls),
(85,500,o),
(91,487,o),
(108,487,cs),
(130,487,o),
(205,507,o),
(240,507,cs),
(287,507,o),
(309,470,o),
(309,437,cs),
(309,382,o),
(262,338,o),
(204,338,cs),
(167,338,o),
(134,354,o),
(84,416,c),
(60,391,l),
(99,298,o),
(159,246,o),
(229,246,cs)
);
},
{
closed = 1;
nodes = (
(640,171,l),
(642,269,l),
(408,98,l),
(408,91,l),
(471,36,l)
);
}
);
width = 1147;
},
{
anchors = (
{
name = bottom;
pos = (824,-30);
},
{
name = nukta;
pos = (399,603);
},
{
name = top;
pos = (1089,683);
}
);
layerId = "A430B39A-257A-41FC-BEA9-652C696FFEF7";
shapes = (
{
closed = 1;
nodes = (
(1258,-262,o),
(1302,-234,o),
(1303,-189,cs),
(1304,-152,o),
(1270,-122,o),
(1231,-101,c),
(1214,-135,o),
(1181,-157,o),
(1144,-157,cs),
(1106,-157,o),
(1085,-136,o),
(1085,-69,cs),
(1085,61,o),
(1132,245,o),
(1132,374,cs),
(1132,539,o),
(1045,683,o),
(958,683,cs),
(910,683,o),
(870,646,o),
(832,557,cs),
(795,471,o),
(756,364,o),
(710,197,c),
(738,176,l),
(742,214,o),
(744,256,o),
(744,299,cs),
(744,404,o),
(735,520,o),
(716,613,c),
(607,613,l),
(630,503,o),
(641,388,o),
(641,267,cs),
(641,197,o),
(638,126,o),
(631,53,c),
(708,-17,l),
(742,-8,l),
(796,148,o),
(877,350,o),
(918,449,cs),
(945,515,o),
(966,556,o),
(987,556,cs),
(1000,556,o),
(1009,537,o),
(1009,496,cs),
(1009,369,o),
(962,144,o),
(962,33,cs),
(962,-119,o),
(1055,-262,o),
(1201,-262,cs)
);
},
{
closed = 1;
nodes = (
(346,-147,o),
(415,-87,o),
(415,-3,cs),
(415,62,o),
(357,120,o),
(292,139,c),
(253,97,l),
(281,87,o),
(307,68,o),
(307,37,cs),
(307,-7,o),
(265,-44,o),
(224,-44,cs),
(202,-44,o),
(187,-30,o),
(187,-9,cs),
(187,15,o),
(203,36,o),
(240,56,cs),
(283,79,o),
(358,115,o),
(449,171,cs),
(539,226,o),
(615,278,o),
(667,321,c),
(656,484,l),
(603,418,o),
(511,349,o),
(402,283,cs),
(334,242,o),
(261,203,o),
(185,164,cs),
(136,139,o),
(80,96,o),
(80,23,cs),
(80,-74,o),
(168,-147,o),
(262,-147,cs)
);
},
{
closed = 1;
nodes = (
(329,232,o),
(397,301,o),
(397,398,cs),
(397,521,o),
(269,616,o),
(205,616,cs),
(180,616,o),
(131,600,o),
(110,600,cs),
(96,600,o),
(91,608,o),
(79,632,c),
(25,615,l),
(79,495,ls),
(87,476,o),
(100,466,o),
(119,466,cs),
(143,466,o),
(213,487,o),
(252,487,cs),
(284,487,o),
(302,473,o),
(302,442,cs),
(302,400,o),
(263,367,o),
(208,367,cs),
(162,367,o),
(127,385,o),
(85,438,c),
(44,389,l),
(92,286,o),
(157,232,o),
(236,232,cs)
);
},
{
closed = 1;
nodes = (
(702,171,l),
(712,298,l),
(413,94,l),
(413,76,l),
(490,15,l)
);
}
);
width = 1217;
}
);
metricLeft = "g_na_iiMatra-khoj";
metricRight = "g_na_iiMatra-khoj";
script = khoj;
},
{
category = Letter;
glyphname = "g_na_ra_uMatra-khoj";
kernLeft = LU;
kernRight = AA;
lastChange = "2023-06-05 09:48:09 +0000";
layers = (
{
anchors = (
{
name = bottom;
pos = (410,-242);
},
{
name = nukta;
pos = (358,600);
},
{
name = top;
pos = (680,600);
}
);
layerId = "0717401B-DDB5-4983-85F2-A81AFE530D5E";
shapes = (
{
closed = 1;
nodes = (
(625,-243,o),
(734,-59,o),
(734,231,cs),
(734,367,o),
(709,524,o),
(688,600,c),
(612,600,l),
(632,516,o),
(652,389,o),
(652,274,cs),
(652,14,o),
(563,-161,o),
(327,-161,cs),
(217,-161,o),
(95,-105,o),
(27,-20,c),
(21,-22,l),
(15,-77,l),
(81,-166,o),
(223,-243,o),
(366,-243,cs)
);
},
{
closed = 1;
nodes = (
(350,-104,o),
(406,-43,o),
(406,22,cs),
(406,85,o),
(354,133,o),
(295,155,c),
(268,126,l),
(308,113,o),
(332,84,o),
(332,51,cs),
(332,7,o),
(287,-34,o),
(240,-34,cs),
(207,-34,o),
(185,-12,o),
(185,19,cs),
(185,46,o),
(201,64,o),
(243,87,cs),
(278,106,o),
(374,158,o),
(465,214,cs),
(547,264,o),
(619,313,o),
(671,355,c),
(666,458,l),
(604,396,o),
(516,337,o),
(420,280,cs),
(361,245,o),
(281,201,o),
(222,170,cs),
(169,142,o),
(113,111,o),
(113,45,cs),
(113,-34,o),
(191,-104,o),
(273,-104,cs)
);
},
{
closed = 1;
nodes = (
(328,246,o),
(391,317,o),
(391,401,cs),
(391,515,o),
(277,593,o),
(220,593,cs),
(195,593,o),
(133,577,o),
(115,577,cs),
(104,577,o),
(100,583,o),
(89,602,c),
(57,591,l),
(99,506,ls),
(102,500,o),
(108,487,o),
(125,487,cs),
(147,487,o),
(222,507,o),
(257,507,cs),
(304,507,o),
(326,470,o),
(326,437,cs),
(326,382,o),
(279,338,o),
(221,338,cs),
(184,338,o),
(151,354,o),
(101,416,c),
(77,391,l),
(116,298,o),
(176,246,o),
(246,246,cs)
);
},
{
closed = 1;
nodes = (
(657,171,l),
(659,269,l),
(425,98,l),
(425,91,l),
(488,36,l)
);
}
);
width = 819;
},
{
anchors = (
{
name = bottom;
pos = (466,-324);
},
{
name = nukta;
pos = (415,603);
},
{
name = top;
pos = (742,613);
}
);
layerId = "A430B39A-257A-41FC-BEA9-652C696FFEF7";
shapes = (
{
closed = 1;
nodes = (
(650,-323,o),
(785,-93,o),
(787,200,cs),
(788,364,o),
(766,501,o),
(740,613,c),
(629,613,l),
(648,525,o),
(667,397,o),
(667,232,cs),
(667,-45,o),
(522,-202,o),
(300,-202,cs),
(203,-202,o),
(79,-164,o),
(-5,-61,c),
(-16,-64,l),
(-25,-141,l),
(64,-258,o),
(198,-323,o),
(357,-323,cs)
);
},
{
closed = 1;
nodes = (
(362,-147,o),
(431,-87,o),
(431,-3,cs),
(431,62,o),
(373,120,o),
(308,139,c),
(269,97,l),
(297,87,o),
(323,68,o),
(323,37,cs),
(323,-7,o),
(281,-44,o),
(240,-44,cs),
(218,-44,o),
(203,-30,o),
(203,-9,cs),
(203,15,o),
(219,36,o),
(256,56,cs),
(299,79,o),
(374,115,o),
(465,171,cs),
(555,226,o),
(631,278,o),
(683,321,c),
(672,484,l),
(619,418,o),
(527,349,o),
(418,283,cs),
(350,242,o),
(277,203,o),
(201,164,cs),
(152,139,o),
(96,96,o),
(96,23,cs),
(96,-74,o),
(184,-147,o),
(278,-147,cs)
);
},
{
closed = 1;
nodes = (
(345,232,o),
(413,301,o),
(413,398,cs),
(413,521,o),
(285,616,o),
(221,616,cs),
(196,616,o),
(147,600,o),
(126,600,cs),
(112,600,o),
(107,608,o),
(95,632,c),
(41,615,l),
(95,495,ls),
(103,476,o),
(116,466,o),
(135,466,cs),
(159,466,o),
(229,487,o),
(268,487,cs),
(300,487,o),
(318,473,o),
(318,442,cs),
(318,400,o),
(279,367,o),
(224,367,cs),
(178,367,o),
(143,385,o),
(101,438,c),
(60,389,l),
(108,286,o),
(173,232,o),
(252,232,cs)
);
},
{
closed = 1;
nodes = (
(718,161,l),
(728,288,l),
(429,84,l),
(429,66,l),
(506,5,l)
);
}
);
width = 862;
}
);
metricRight = "g_na_uMatra-khoj";
script = khoj;
},
{
category = Letter;
glyphname = "gga-khoj";
kernLeft = GGA;
kernRight = AA;
lastChange = "2023-06-05 09:48:09 +0000";
layers = (
{
anchors = (
{
name = bottom;
pos = (529,21);
},
{
name = nukta;
pos = (303,600);
},
{
name = top;
pos = (545,600);
}
);
layerId = "0717401B-DDB5-4983-85F2-A81AFE530D5E";
shapes = (
{
closed = 1;
nodes = (
(311,246,o),
(374,317,o),
(374,401,cs),
(374,515,o),
(260,593,o),
(203,593,cs),
(178,593,o),
(116,577,o),
(98,577,cs),
(87,577,o),
(83,583,o),
(72,602,c),
(40,591,l),
(82,506,ls),
(88,494,o),
(97,487,o),
(111,487,cs),
(130,487,o),
(205,507,o),
(240,507,cs),
(287,507,o),
(309,470,o),
(309,437,cs),
(309,382,o),
(262,338,o),
(204,338,cs),
(167,338,o),
(134,354,o),
(84,416,c),
(60,391,l),
(99,298,o),
(159,246,o),
(229,246,cs)
);
},
{
closed = 1;
nodes = (
(538,200,l),
(538,295,l),
(101,89,l),
(101,80,l),
(184,22,l)
);
},
{
closed = 1;
nodes = (
(539,0,l),
(561,84,o),
(573,192,o),
(573,293,cs),
(573,400,o),
(559,514,o),
(535,600,c),
(459,600,l),
(479,516,o),
(491,430,o),
(491,340,cs),
(491,253,o),
(480,164,o),
(459,83,c),
(462,70,o),
(501,4,o),
(515,-9,c)
);
}
);
width = 658;
},
{
anchors = (
{
name = bottom;
pos = (552,23);
},
{
name = nukta;
pos = (310,613);
},
{
name = top;
pos = (576,613);
}
);
layerId = "A430B39A-257A-41FC-BEA9-652C696FFEF7";
shapes = (
{
closed = 1;
nodes = (
(329,232,o),
(397,301,o),
(397,398,cs),
(397,521,o),
(269,616,o),
(205,616,cs),
(180,616,o),
(131,600,o),
(110,600,cs),
(96,600,o),
(91,608,o),
(79,632,c),
(25,615,l),
(79,495,ls),
(87,476,o),
(100,466,o),
(119,466,cs),
(143,466,o),
(213,487,o),
(252,487,cs),
(284,487,o),
(302,473,o),
(302,442,cs),
(302,400,o),
(263,367,o),
(208,367,cs),
(162,367,o),
(127,385,o),
(85,438,c),
(44,389,l),
(92,286,o),
(157,232,o),
(236,232,cs)
);
},
{
closed = 1;
nodes = (
(519,169,l),
(519,310,l),
(87,96,l),
(87,72,l),
(201,-2,l)
);
},
{
closed = 1;
nodes = (
(575,-13,l),
(597,87,o),
(606,202,o),
(606,292,cs),
(606,396,o),
(594,501,o),
(568,613,c),
(457,613,l),
(476,525,o),
(484,438,o),
(484,360,cs),
(484,269,o),
(475,176,o),
(452,75,c),
(469,49,o),
(520,-9,o),
(537,-22,c)
);
}
);
width = 681;
}
);
metricRight = "aaMatra-khoj";
note = kj_GGA;
script = khoj;
unicode = 70155;
},
{
glyphname = "gga_iMatra-khoj";
kernLeft = GGA;
kernRight = LI;
lastChange = "2023-06-05 09:48:09 +0000";
layers = (
{
anchors = (
{
name = bottom;
pos = (619,11);
},
{
name = nukta;
pos = (303,600);
},
{
name = top;
pos = (1022,892);
}
);
layerId = "0717401B-DDB5-4983-85F2-A81AFE530D5E";
shapes = (
{
closed = 1;
nodes = (
(560,-1,l),
(645,294,o),
(735,589,o),
(815,717,cs),
(855,781,o),
(904,814,o),
(965,814,cs),
(1026,814,o),
(1080,782,o),
(1121,736,c),
(1130,738,l),
(1125,809,l),
(1079,859,o),
(1015,895,o),
(941,895,cs),
(863,895,o),
(802,858,o),
(757,792,cs),
(690,693,o),
(613,446,o),
(551,224,c),
(563,208,l),
(565,237,o),
(567,265,o),
(567,303,cs),
(567,400,o),
(555,512,o),
(534,600,c),
(459,600,l),
(485,496,o),
(495,391,o),
(495,280,cs),
(495,206,o),
(491,129,o),
(485,48,c),
(547,-4,l)
);
},
{
closed = 1;
nodes = (
(538,200,l),
(538,295,l),
(101,89,l),
(101,80,l),
(184,22,l)
);
},
{
closed = 1;
nodes = (
(311,246,o),
(374,317,o),
(374,401,cs),
(374,515,o),
(260,593,o),
(203,593,cs),
(178,593,o),
(116,577,o),
(98,577,cs),
(87,577,o),
(83,583,o),
(72,602,c),
(40,591,l),
(82,506,ls),
(88,494,o),
(97,487,o),
(111,487,cs),
(130,487,o),
(205,507,o),
(240,507,cs),
(287,507,o),
(309,470,o),
(309,437,cs),
(309,382,o),
(262,338,o),
(204,338,cs),
(167,338,o),
(134,354,o),
(84,416,c),
(60,391,l),
(99,298,o),
(159,246,o),
(229,246,cs)
);
}
);
width = 810;
},
{
anchors = (
{
name = bottom;
pos = (552,23);
},
{
name = nukta;
pos = (310,613);
},
{
name = top;
pos = (1089,918);
}
);
layerId = "A430B39A-257A-41FC-BEA9-652C696FFEF7";
shapes = (
{
closed = 1;
nodes = (
(593,-8,l),
(667,214,o),
(758,479,o),
(822,631,cs),
(878,764,o),
(943,801,o),
(1018,801,cs),
(1076,801,o),
(1140,771,o),
(1182,727,c),
(1195,732,l),
(1179,829,l),
(1114,888,o),
(1047,918,o),
(972,918,cs),
(866,918,o),
(787,859,o),
(726,720,cs),
(678,610,o),
(625,439,o),
(562,219,c),
(588,176,l),
(592,214,o),
(594,256,o),
(594,299,cs),
(594,404,o),
(585,520,o),
(566,613,c),
(457,613,l),
(480,503,o),
(491,388,o),
(491,267,cs),
(491,197,o),
(488,126,o),
(481,53,c),
(558,-17,l)
);
},
{
closed = 1;
nodes = (
(519,169,l),
(519,310,l),
(87,96,l),
(87,72,l),
(201,-2,l)
);
},
{
closed = 1;
nodes = (
(329,232,o),
(397,301,o),
(397,398,cs),
(397,521,o),
(269,616,o),
(205,616,cs),
(180,616,o),
(131,600,o),
(110,600,cs),
(96,600,o),
(91,608,o),
(79,632,c),
(25,615,l),
(79,495,ls),
(87,476,o),
(100,466,o),
(119,466,cs),
(143,466,o),
(213,487,o),
(252,487,cs),
(284,487,o),
(302,473,o),
(302,442,cs),
(302,400,o),
(263,367,o),
(208,367,cs),
(162,367,o),
(127,385,o),
(85,438,c),
(44,389,l),
(92,286,o),
(157,232,o),
(236,232,cs)
);
}
);
width = 855;
}
);
metricLeft = "gga-khoj";
metricRight = "la_iMatra-khoj";
script = khoj;
},
{
glyphname = "gga_iiMatra-khoj";
kernLeft = GGA;
kernRight = LII;
lastChange = "2023-06-05 09:48:09 +0000";
layers = (
{
anchors = (
{
name = bottom;
pos = (675,-92);
},
{
name = nukta;
pos = (303,600);
},
{
name = top;
pos = (896,656);
}
);
layerId = "0717401B-DDB5-4983-85F2-A81AFE530D5E";
shapes = (
{
closed = 1;
nodes = (
(1042,-240,o),
(1079,-221,o),
(1081,-187,cs),
(1083,-154,o),
(1051,-129,o),
(1019,-114,c),
(1009,-138,o),
(977,-158,o),
(940,-158,cs),
(894,-158,o),
(876,-127,o),
(876,-45,cs),
(876,83,o),
(919,253,o),
(919,385,cs),
(919,548,o),
(853,661,o),
(780,661,cs),
(742,661,o),
(706,628,o),
(670,549,cs),
(635,472,o),
(590,341,o),
(549,209,c),
(563,208,l),
(565,237,o),
(567,265,o),
(567,303,cs),
(567,400,o),
(555,512,o),
(534,600,c),
(459,600,l),
(485,496,o),
(495,391,o),
(495,280,cs),
(495,206,o),
(491,129,o),
(485,48,c),
(547,-4,l),
(560,-1,l),
(600,135,o),
(686,376,o),
(728,472,cs),
(757,539,o),
(785,578,o),
(808,578,cs),
(835,578,o),
(841,527,o),
(841,482,cs),
(841,353,o),
(794,144,o),
(794,28,cs),
(794,-131,o),
(882,-240,o),
(995,-240,cs)
);
},
{
closed = 1;
nodes = (
(538,200,l),
(538,295,l),
(101,89,l),
(101,80,l),
(184,22,l)
);
},
{
closed = 1;
nodes = (
(311,246,o),
(374,317,o),
(374,401,cs),
(374,515,o),
(260,593,o),
(203,593,cs),
(178,593,o),
(116,577,o),
(98,577,cs),
(87,577,o),
(83,583,o),
(72,602,c),
(40,591,l),
(82,506,ls),
(88,494,o),
(97,487,o),
(111,487,cs),
(130,487,o),
(205,507,o),
(240,507,cs),
(287,507,o),
(309,470,o),
(309,437,cs),
(309,382,o),
(262,338,o),
(204,338,cs),
(167,338,o),
(134,354,o),
(84,416,c),
(60,391,l),
(99,298,o),
(159,246,o),
(229,246,cs)
);
}
);
width = 1011;
},
{
anchors = (
{
name = bottom;
pos = (699,-100);
},
{
name = nukta;
pos = (310,613);
},
{
name = top;
pos = (939,683);
}
);
layerId = "A430B39A-257A-41FC-BEA9-652C696FFEF7";
shapes = (
{
closed = 1;
nodes = (
(1108,-262,o),
(1152,-234,o),
(1153,-189,cs),
(1154,-152,o),
(1120,-122,o),
(1081,-101,c),
(1064,-135,o),
(1031,-157,o),
(994,-157,cs),
(956,-157,o),
(935,-136,o),
(935,-69,cs),
(935,61,o),
(982,245,o),
(982,374,cs),
(982,539,o),
(895,683,o),
(808,683,cs),
(760,683,o),
(720,646,o),
(682,557,cs),
(645,471,o),
(606,364,o),
(560,197,c),
(588,176,l),
(592,214,o),
(594,256,o),
(594,299,cs),
(594,404,o),
(585,520,o),
(566,613,c),
(457,613,l),
(480,503,o),
(491,388,o),
(491,267,cs),
(491,197,o),
(488,126,o),
(481,53,c),
(558,-17,l),
(592,-8,l),
(646,148,o),
(727,350,o),
(768,449,cs),
(795,515,o),
(816,556,o),
(837,556,cs),
(850,556,o),
(859,537,o),
(859,496,cs),
(859,369,o),
(812,144,o),
(812,33,cs),
(812,-119,o),
(905,-262,o),
(1051,-262,cs)
);
},
{
closed = 1;
nodes = (
(519,169,l),
(519,310,l),
(87,96,l),
(87,72,l),
(201,-2,l)
);
},
{
closed = 1;
nodes = (
(329,232,o),
(397,301,o),
(397,398,cs),
(397,521,o),
(269,616,o),
(205,616,cs),
(180,616,o),
(131,600,o),
(110,600,cs),
(96,600,o),
(91,608,o),
(79,632,c),
(25,615,l),
(79,495,ls),
(87,476,o),
(100,466,o),
(119,466,cs),
(143,466,o),
(213,487,o),
(252,487,cs),
(284,487,o),
(302,473,o),
(302,442,cs),
(302,400,o),
(263,367,o),
(208,367,cs),
(162,367,o),
(127,385,o),
(85,438,c),
(44,389,l),
(92,286,o),
(157,232,o),
(236,232,cs)
);
}
);
width = 1067;
}
);
metricLeft = "gga-khoj";
metricRight = "la_iiMatra-khoj";
script = khoj;
},
{
glyphname = "gga_uMatra-khoj";
kernLeft = LU;
kernRight = AA;
lastChange = "2023-06-05 09:48:09 +0000";
layers = (
{
anchors = (
{
name = bottom;
pos = (313,-179);
},
{
name = nukta;
pos = (332,600);
},
{
name = top;
pos = (570,600);
}
);
layerId = "0717401B-DDB5-4983-85F2-A81AFE530D5E";
shapes = (
{
closed = 1;
nodes = (
(508,-179,o),
(600,24,o),
(600,288,cs),
(600,405,o),
(582,529,o),
(562,600,c),
(486,600,l),
(506,516,o),
(518,433,o),
(518,335,cs),
(518,90,o),
(446,-97,o),
(250,-97,cs),
(143,-97,o),
(57,-42,o),
(-13,44,c),
(-19,42,l),
(-25,-13,l),
(44,-103,o),
(150,-179,o),
(286,-179,cs)
);
},
{
closed = 1;
nodes = (
(565,200,l),
(565,295,l),
(128,89,l),
(128,80,l),
(211,22,l)
);
},
{
closed = 1;
nodes = (
(338,246,o),
(401,317,o),
(401,401,cs),
(401,515,o),
(287,593,o),
(230,593,cs),
(205,593,o),
(143,577,o),
(125,577,cs),
(114,577,o),
(110,583,o),
(99,602,c),
(67,591,l),
(109,506,ls),
(115,494,o),
(124,487,o),
(138,487,cs),
(157,487,o),
(232,507,o),
(267,507,cs),
(314,507,o),
(336,470,o),
(336,437,cs),
(336,382,o),
(289,338,o),
(231,338,cs),
(194,338,o),
(161,354,o),
(111,416,c),
(87,391,l),
(126,298,o),
(186,246,o),
(256,246,cs)
);
}
);
width = 685;
},
{
anchors = (
{
name = bottom;
pos = (339,-199);
},
{
name = nukta;
pos = (343,613);
},
{
name = top;
pos = (609,613);
}
);
layerId = "A430B39A-257A-41FC-BEA9-652C696FFEF7";
shapes = (
{
closed = 1;
nodes = (
(512,-196,o),
(639,-40,o),
(639,267,cs),
(639,377,o),
(627,501,o),
(601,613,c),
(490,613,l),
(509,525,o),
(519,411,o),
(519,299,cs),
(519,55,o),
(431,-78,o),
(257,-78,cs),
(171,-78,o),
(68,-39,o),
(-15,64,c),
(-26,61,l),
(-35,-16,l),
(52,-133,o),
(174,-196,o),
(303,-196,cs)
);
},
{
closed = 1;
nodes = (
(552,169,l),
(552,304,l),
(120,94,l),
(120,70,l),
(234,-4,l)
);
},
{
closed = 1;
nodes = (
(362,232,o),
(430,301,o),
(430,398,cs),
(430,521,o),
(302,616,o),
(238,616,cs),
(213,616,o),
(164,600,o),
(143,600,cs),
(129,600,o),
(124,608,o),
(112,632,c),
(58,615,l),
(112,495,ls),
(120,476,o),
(133,466,o),
(152,466,cs),
(176,466,o),
(246,487,o),
(285,487,cs),
(317,487,o),
(335,473,o),
(335,442,cs),
(335,400,o),
(296,367,o),
(241,367,cs),
(195,367,o),
(160,385,o),
(118,438,c),
(77,389,l),
(125,286,o),
(190,232,o),
(269,232,cs)
);
}
);
width = 714;
}
);
metricRight = "la-khoj";
script = khoj;
},
{
glyphname = "gg_ra-khoj";
kernLeft = GGA;
kernRight = AA;
lastChange = "2023-06-05 09:48:09 +0000";
layers = (
{
anchors = (
{
name = bottom;
pos = (599,-9);
},
{
name = nukta;
pos = (303,600);
},
{
name = top;
pos = (527,600);
}
);
layerId = "0717401B-DDB5-4983-85F2-A81AFE530D5E";
shapes = (
{
closed = 1;
nodes = (
(528,270,l),
(526,373,l),
(101,89,l),
(101,80,l),
(182,23,l)
);
},
{
closed = 1;
nodes = (
(518,71,l),
(520,169,l),
(286,-2,l),
(286,-9,l),
(349,-64,l)
);
},
{
closed = 1;
nodes = (
(310,256,o),
(374,325,o),
(374,413,cs),
(374,525,o),
(260,603,o),
(203,603,cs),
(178,603,o),
(116,587,o),
(98,587,cs),
(87,587,o),
(83,593,o),
(72,612,c),
(40,601,l),
(82,516,ls),
(89,502,o),
(96,497,o),
(110,497,cs),
(128,497,o),
(206,517,o),
(240,517,cs),
(287,517,o),
(309,480,o),
(309,447,cs),
(309,392,o),
(262,348,o),
(204,348,cs),
(167,348,o),
(134,364,o),
(84,426,c),
(60,401,l),
(99,308,o),
(159,256,o),
(228,256,cs)
);
},
{
closed = 1;
nodes = (
(553,0,l),
(566,84,o),
(573,189,o),
(573,301,cs),
(573,397,o),
(559,514,o),
(535,600,c),
(457,600,l),
(477,516,o),
(489,429,o),
(489,344,cs),
(489,242,o),
(484,154,o),
(472,83,c),
(528,-8,l)
);
}
);
width = 658;
},
{
anchors = (
{
name = bottom;
pos = (626,-45);
},
{
name = nukta;
pos = (310,623);
},
{
name = top;
pos = (576,613);
}
);
layerId = "A430B39A-257A-41FC-BEA9-652C696FFEF7";
shapes = (
{
closed = 1;
nodes = (
(522,236,l),
(519,373,l),
(87,96,l),
(87,72,l),
(201,13,l)
);
},
{
closed = 1;
nodes = (
(542,55,l),
(539,196,l),
(260,-8,l),
(260,-26,l),
(350,-98,l)
);
},
{
closed = 1;
nodes = (
(329,252,o),
(397,320,o),
(397,416,cs),
(397,537,o),
(269,631,o),
(205,631,cs),
(180,631,o),
(131,615,o),
(110,615,cs),
(96,615,o),
(91,623,o),
(79,647,c),
(25,630,l),
(79,512,ls),
(88,493,o),
(100,483,o),
(119,483,cs),
(143,483,o),
(213,504,o),
(252,504,cs),
(284,504,o),
(302,490,o),
(302,459,cs),
(302,418,o),
(263,385,o),
(208,385,cs),
(162,385,o),
(127,403,o),
(85,455,c),
(44,407,l),
(92,305,o),
(157,252,o),
(236,252,cs)
);
},
{
closed = 1;
nodes = (
(580,-33,l),
(597,77,o),
(606,202,o),
(606,292,cs),
(606,396,o),
(594,501,o),
(568,613,c),
(457,613,l),
(476,525,o),
(484,438,o),
(484,360,cs),
(484,267,o),
(479,176,o),
(466,75,c),
(542,-42,l)
);
}
);
width = 681;
}
);
metricLeft = "gga-khoj";
metricRight = "gga-khoj";
script = khoj;
},
{
glyphname = "gg_ra_iMatra-khoj";
kernLeft = GGA;
kernRight = LI;
lastChange = "2023-06-05 09:48:09 +0000";
layers = (
{
anchors = (
{
name = bottom;
pos = (579,-9);
},
{
name = nukta;
pos = (303,600);
},
{
name = top;
pos = (1022,892);
}
);
layerId = "0717401B-DDB5-4983-85F2-A81AFE530D5E";
shapes = (
{
closed = 1;
nodes = (
(558,-1,l),
(643,294,o),
(734,589,o),
(813,717,cs),
(853,782,o),
(904,814,o),
(963,814,cs),
(1024,814,o),
(1078,782,o),
(1119,736,c),
(1128,738,l),
(1123,809,l),
(1077,859,o),
(1013,895,o),
(939,895,cs),
(861,895,o),
(800,858,o),
(755,792,cs),
(688,693,o),
(611,446,o),
(549,224,c),
(561,208,l),
(563,237,o),
(565,267,o),
(565,298,cs),
(565,401,o),
(553,512,o),
(532,600,c),
(457,600,l),
(483,496,o),
(493,391,o),
(493,280,cs),
(493,206,o),
(489,129,o),
(483,48,c),
(545,-4,l)
);
},
{
closed = 1;
nodes = (
(518,71,l),
(520,169,l),
(286,-2,l),
(286,-9,l),
(349,-64,l)
);
},
{
closed = 1;
nodes = (
(528,270,l),
(526,373,l),
(101,89,l),
(101,80,l),
(182,23,l)
);
},
{
closed = 1;
nodes = (
(310,256,o),
(374,325,o),
(374,413,cs),
(374,525,o),
(260,603,o),
(203,603,cs),
(178,603,o),
(116,587,o),
(98,587,cs),
(87,587,o),
(83,593,o),
(72,612,c),
(40,601,l),
(82,516,ls),
(89,502,o),
(96,497,o),
(110,497,cs),
(128,497,o),
(206,517,o),
(240,517,cs),
(287,517,o),
(309,480,o),
(309,447,cs),
(309,392,o),
(262,348,o),
(204,348,cs),
(167,348,o),
(134,364,o),
(84,426,c),
(60,401,l),
(99,308,o),
(159,256,o),
(228,256,cs)
);
}
);
width = 808;
},
{
anchors = (
{
name = bottom;
pos = (626,-45);
},
{
name = nukta;
pos = (310,623);
},
{
name = top;
pos = (1089,918);
}
);
layerId = "A430B39A-257A-41FC-BEA9-652C696FFEF7";
shapes = (
{
closed = 1;
nodes = (
(594,-20,l),
(665,214,o),
(758,479,o),
(822,631,cs),
(878,764,o),
(943,801,o),
(1018,801,cs),
(1076,801,o),
(1140,771,o),
(1182,727,c),
(1195,732,l),
(1179,829,l),
(1114,888,o),
(1047,918,o),
(972,918,cs),
(866,918,o),
(787,859,o),
(726,720,cs),
(678,610,o),
(625,439,o),
(562,219,c),
(588,176,l),
(592,214,o),
(594,256,o),
(594,299,cs),
(594,404,o),
(585,520,o),
(566,613,c),
(457,613,l),
(480,503,o),
(491,388,o),
(491,267,cs),
(491,197,o),
(488,146,o),
(481,83,c),
(559,-29,l)
);
},
{
closed = 1;
nodes = (
(542,55,l),
(539,196,l),
(260,-8,l),
(260,-26,l),
(350,-98,l)
);
},
{
closed = 1;
nodes = (
(522,236,l),
(519,373,l),
(87,96,l),
(87,72,l),
(201,13,l)
);
},
{
closed = 1;
nodes = (
(329,252,o),
(397,320,o),
(397,416,cs),
(397,537,o),
(269,631,o),
(205,631,cs),
(180,631,o),
(131,615,o),
(110,615,cs),
(96,615,o),
(91,623,o),
(79,647,c),
(25,630,l),
(79,512,ls),
(88,493,o),
(100,483,o),
(119,483,cs),
(143,483,o),
(213,504,o),
(252,504,cs),
(284,504,o),
(302,490,o),
(302,459,cs),
(302,418,o),
(263,385,o),
(208,385,cs),
(162,385,o),
(127,403,o),
(85,455,c),
(44,407,l),
(92,305,o),
(157,252,o),
(236,252,cs)
);
}
);
width = 855;
}
);
metricLeft = "gga_iMatra-khoj";
metricRight = "gga_iMatra-khoj";
script = khoj;
},
{
glyphname = "gg_ra_iiMatra-khoj";
kernLeft = GGA;
kernRight = LII;
lastChange = "2023-06-05 09:48:09 +0000";
layers = (
{
anchors = (
{
name = bottom;
pos = (673,-92);
},
{
name = nukta;
pos = (303,600);
},
{
name = top;
pos = (892,656);
}
);
layerId = "0717401B-DDB5-4983-85F2-A81AFE530D5E";
shapes = (
{
closed = 1;
nodes = (
(1038,-240,o),
(1077,-221,o),
(1079,-187,cs),
(1081,-154,o),
(1049,-129,o),
(1017,-114,c),
(1007,-138,o),
(975,-158,o),
(938,-158,cs),
(894,-158,o),
(874,-127,o),
(874,-54,cs),
(874,98,o),
(917,237,o),
(917,395,cs),
(917,519,o),
(863,661,o),
(778,661,cs),
(740,661,o),
(704,628,o),
(668,549,cs),
(630,465,o),
(585,332,o),
(547,209,c),
(561,208,l),
(563,237,o),
(565,267,o),
(565,298,cs),
(565,401,o),
(553,512,o),
(532,600,c),
(457,600,l),
(483,496,o),
(493,391,o),
(493,280,cs),
(493,206,o),
(489,129,o),
(483,48,c),
(545,-4,l),
(558,-1,l),
(596,128,o),
(679,364,o),
(726,472,cs),
(755,539,o),
(783,578,o),
(807,578,cs),
(833,578,o),
(839,526,o),
(839,482,cs),
(839,352,o),
(792,145,o),
(792,27,cs),
(792,-107,o),
(861,-240,o),
(998,-240,cs)
);
},
{
closed = 1;
nodes = (
(518,71,l),
(520,169,l),
(286,-2,l),
(286,-9,l),
(349,-64,l)
);
},
{
closed = 1;
nodes = (
(528,270,l),
(526,373,l),
(101,89,l),
(101,80,l),
(182,23,l)
);
},
{
closed = 1;
nodes = (
(310,256,o),
(374,325,o),
(374,413,cs),
(374,525,o),
(260,603,o),
(203,603,cs),
(178,603,o),
(116,587,o),
(98,587,cs),
(87,587,o),
(83,593,o),
(72,612,c),
(40,601,l),
(82,516,ls),
(89,502,o),
(96,497,o),
(110,497,cs),
(128,497,o),
(206,517,o),
(240,517,cs),
(287,517,o),
(309,480,o),
(309,447,cs),
(309,392,o),
(262,348,o),
(204,348,cs),
(167,348,o),
(134,364,o),
(84,426,c),
(60,401,l),
(99,308,o),
(159,256,o),
(228,256,cs)
);
}
);
width = 1009;
},
{
anchors = (
{
name = bottom;
pos = (699,-100);
},
{
name = nukta;
pos = (310,623);
},
{
name = top;
pos = (939,683);
}
);
layerId = "A430B39A-257A-41FC-BEA9-652C696FFEF7";
shapes = (
{
closed = 1;
nodes = (
(1108,-262,o),
(1152,-234,o),
(1153,-189,cs),
(1154,-152,o),
(1120,-122,o),
(1081,-101,c),
(1064,-135,o),
(1031,-157,o),
(994,-157,cs),
(956,-157,o),
(935,-136,o),
(935,-69,cs),
(935,61,o),
(982,245,o),
(982,374,cs),
(982,539,o),
(895,683,o),
(808,683,cs),
(760,683,o),
(720,646,o),
(682,557,cs),
(645,471,o),
(606,364,o),
(560,197,c),
(588,176,l),
(592,214,o),
(594,256,o),
(594,299,cs),
(594,404,o),
(585,520,o),
(566,613,c),
(457,613,l),
(480,503,o),
(491,388,o),
(491,267,cs),
(491,197,o),
(488,126,o),
(481,53,c),
(558,-17,l),
(592,-8,l),
(646,148,o),
(727,350,o),
(768,449,cs),
(795,515,o),
(816,556,o),
(837,556,cs),
(850,556,o),
(859,537,o),
(859,496,cs),
(859,369,o),
(812,144,o),
(812,33,cs),
(812,-119,o),
(905,-262,o),
(1051,-262,cs)
);
},
{
closed = 1;
nodes = (
(542,55,l),
(539,196,l),
(260,-8,l),
(260,-26,l),
(350,-98,l)
);
},
{
closed = 1;
nodes = (
(522,236,l),
(519,373,l),
(87,96,l),
(87,72,l),
(201,13,l)
);
},
{
closed = 1;
nodes = (
(329,252,o),
(397,320,o),
(397,416,cs),
(397,537,o),
(269,631,o),
(205,631,cs),
(180,631,o),
(131,615,o),
(110,615,cs),
(96,615,o),
(91,623,o),
(79,647,c),
(25,630,l),
(79,512,ls),
(88,493,o),
(100,483,o),
(119,483,cs),
(143,483,o),
(213,504,o),
(252,504,cs),
(284,504,o),
(302,490,o),
(302,459,cs),
(302,418,o),
(263,385,o),
(208,385,cs),
(162,385,o),
(127,403,o),
(85,455,c),
(44,407,l),
(92,305,o),
(157,252,o),
(236,252,cs)
);
}
);
width = 1067;
}
);
metricLeft = "gga_iiMatra-khoj";
metricRight = "gga_iiMatra-khoj";
script = khoj;
},
{
category = "";
glyphname = "gg_ra_uMatra-khoj";
kernLeft = LU;
kernRight = AA;
lastChange = "2023-06-05 09:48:09 +0000";
layers = (
{
anchors = (
{
name = bottom;
pos = (315,-243);
},
{
name = nukta;
pos = (283,600);
},
{
name = top;
pos = (551,600);
}
);
layerId = "0717401B-DDB5-4983-85F2-A81AFE530D5E";
shapes = (
{
closed = 1;
nodes = (
(515,-243,o),
(600,-39,o),
(600,251,cs),
(600,377,o),
(584,514,o),
(560,600,c),
(484,600,l),
(504,516,o),
(518,419,o),
(518,304,cs),
(518,26,o),
(451,-161,o),
(243,-161,cs),
(147,-161,o),
(55,-105,o),
(-13,-20,c),
(-19,-22,l),
(-25,-77,l),
(41,-166,o),
(158,-243,o),
(275,-243,cs)
);
},
{
closed = 1;
nodes = (
(502,41,l),
(519,137,l),
(261,4,l),
(260,-3,l),
(314,-67,l)
);
},
{
closed = 1;
nodes = (
(536,220,l),
(536,315,l),
(99,109,l),
(99,100,l),
(182,42,l)
);
},
{
closed = 1;
nodes = (
(339,256,o),
(403,325,o),
(403,413,cs),
(403,525,o),
(289,603,o),
(232,603,cs),
(207,603,o),
(145,587,o),
(127,587,cs),
(116,587,o),
(112,593,o),
(101,612,c),
(69,601,l),
(111,516,ls),
(118,502,o),
(125,497,o),
(139,497,cs),
(157,497,o),
(235,517,o),
(269,517,cs),
(316,517,o),
(338,480,o),
(338,447,cs),
(338,392,o),
(291,348,o),
(233,348,cs),
(196,348,o),
(163,364,o),
(113,426,c),
(89,401,l),
(128,308,o),
(188,256,o),
(257,256,cs)
);
}
);
width = 685;
},
{
anchors = (
{
name = bottom;
pos = (329,-276);
},
{
name = nukta;
pos = (334,623);
},
{
name = top;
pos = (600,613);
}
);
layerId = "A430B39A-257A-41FC-BEA9-652C696FFEF7";
shapes = (
{
closed = 1;
nodes = (
(485,-271,o),
(640,-164,o),
(640,253,cs),
(640,367,o),
(626,501,o),
(602,613,c),
(491,613,l),
(510,515,o),
(523,401,o),
(523,289,cs),
(523,-74,o),
(422,-156,o),
(266,-156,cs),
(170,-156,o),
(72,-114,o),
(-15,-11,c),
(-26,-14,l),
(-35,-91,l),
(52,-208,o),
(174,-271,o),
(299,-271,cs)
);
},
{
closed = 1;
nodes = (
(545,31,l),
(560,161,l),
(244,2,l),
(242,-16,l),
(324,-90,l)
);
},
{
closed = 1;
nodes = (
(542,203,l),
(560,339,l),
(89,131,l),
(85,107,l),
(189,32,l)
);
},
{
closed = 1;
nodes = (
(343,252,o),
(411,320,o),
(411,416,cs),
(411,537,o),
(283,631,o),
(219,631,cs),
(194,631,o),
(145,615,o),
(124,615,cs),
(110,615,o),
(105,623,o),
(93,647,c),
(39,630,l),
(93,512,ls),
(102,493,o),
(114,483,o),
(133,483,cs),
(157,483,o),
(227,504,o),
(266,504,cs),
(298,504,o),
(316,490,o),
(316,459,cs),
(316,418,o),
(277,385,o),
(222,385,cs),
(176,385,o),
(141,403,o),
(99,455,c),
(58,407,l),
(106,305,o),
(171,252,o),
(250,252,cs)
);
}
);
width = 715;
}
);
metricLeft = "gga_uMatra-khoj";
metricRight = "gga_uMatra-khoj";
script = khoj;
},
{
category = Letter;
glyphname = "gha-khoj";
kernLeft = HA;
kernRight = YA;
lastChange = "2023-06-05 09:48:09 +0000";
layers = (
{
anchors = (
{
name = bottom;
pos = (750,0);
},
{
name = nukta;
pos = (452,600);
},
{
name = rakar;
pos = (370,0);
},
{
name = top;
pos = (750,600);
}
);
layerId = "0717401B-DDB5-4983-85F2-A81AFE530D5E";
shapes = (
{
closed = 1;
nodes = (
(721,0,l),
(745,86,o),
(770,249,o),
(770,338,cs),
(770,497,o),
(676,603,o),
(600,603,cs),
(542,603,o),
(516,552,o),
(491,418,cs),
(453,211,o),
(434,69,o),
(296,69,cs),
(236,69,o),
(196,102,o),
(196,155,cs),
(196,230,o),
(282,263,o),
(363,277,c),
(366,284,l),
(358,303,o),
(341,331,o),
(322,352,c),
(283,348,o),
(237,329,o),
(200,329,cs),
(160,329,o),
(138,352,o),
(138,386,cs),
(138,453,o),
(223,502,o),
(375,532,c),
(381,543,l),
(335,600,l),
(-10,600,l),
(33,526,l),
(226,526,l),
(219,555,l),
(136,533,o),
(73,485,o),
(73,414,cs),
(73,346,o),
(132,296,o),
(186,262,c),
(189,291,l),
(145,267,o),
(123,227,o),
(123,179,cs),
(123,83,o),
(220,0,o),
(329,0,cs),
(496,0,o),
(526,144,o),
(567,366,cs),
(590,494,o),
(607,524,o),
(634,524,cs),
(669,524,o),
(701,476,o),
(701,397,cs),
(701,322,o),
(672,199,o),
(629,86,c),
(632,73,o),
(680,4,o),
(694,-9,c)
);
}
);
width = 835;
},
{
anchors = (
{
name = bottom;
pos = (783,0);
},
{
name = nukta;
pos = (485,613);
},
{
name = rakar;
pos = (416,-20);
},
{
name = top;
pos = (819,613);
}
);
layerId = "A430B39A-257A-41FC-BEA9-652C696FFEF7";
shapes = (
{
closed = 1;
nodes = (
(783,-13,l),
(812,83,o),
(834,223,o),
(834,311,cs),
(834,492,o),
(734,624,o),
(638,624,cs),
(568,624,o),
(537,549,o),
(510,410,cs),
(470,206,o),
(438,80,o),
(314,80,cs),
(268,80,o),
(243,106,o),
(243,141,cs),
(243,202,o),
(322,240,o),
(416,254,c),
(423,266,l),
(414,292,o),
(382,345,o),
(355,371,c),
(309,366,o),
(243,339,o),
(209,339,cs),
(187,339,o),
(170,350,o),
(170,377,cs),
(170,434,o),
(268,490,o),
(420,514,c),
(428,530,l),
(366,613,l),
(-25,613,l),
(26,509,l),
(179,509,l),
(172,534,l),
(100,510,o),
(68,458,o),
(68,411,cs),
(68,344,o),
(123,301,o),
(193,257,c),
(189,287,l),
(153,260,o),
(130,221,o),
(130,173,cs),
(130,74,o),
(231,-15,o),
(356,-15,cs),
(546,-15,o),
(582,124,o),
(624,342,cs),
(646,455,o),
(658,499,o),
(686,499,cs),
(710,499,o),
(734,468,o),
(734,401,cs),
(734,322,o),
(698,201,o),
(645,91,c),
(663,58,o),
(728,-9,o),
(745,-22,c)
);
}
);
width = 884;
}
);
metricLeft = "ha-khoj";
metricRight = "ja-khoj";
note = kj_GHA;
script = khoj;
unicode = 70156;
},
{
glyphname = "gha_iMatra-khoj";
kernLeft = HA;
kernRight = HI;
lastChange = "2023-06-05 09:48:09 +0000";
layers = (
{
anchors = (
{
name = bottom;
pos = (757,0);
},
{
name = nukta;
pos = (459,600);
},
{
name = rakar;
pos = (377,0);
},
{
name = top;
pos = (1101,892);
}
);
layerId = "0717401B-DDB5-4983-85F2-A81AFE530D5E";
shapes = (
{
closed = 1;
nodes = (
(720,-1,l),
(811,435,ls),
(827,513,o),
(861,671,o),
(916,749,cs),
(947,793,o),
(986,814,o),
(1035,814,cs),
(1096,814,o),
(1157,782,o),
(1198,736,c),
(1207,738,l),
(1202,809,l),
(1156,859,o),
(1086,895,o),
(1009,895,cs),
(938,895,o),
(889,865,o),
(850,814,cs),
(791,737,o),
(773,633,o),
(736,462,c),
(756,441,l),
(727,541,o),
(658,603,o),
(600,603,cs),
(542,603,o),
(516,552,o),
(491,418,cs),
(452,211,o),
(434,69,o),
(296,69,cs),
(236,69,o),
(196,102,o),
(196,155,cs),
(196,230,o),
(282,263,o),
(363,277,c),
(366,284,l),
(358,303,o),
(341,331,o),
(322,352,c),
(283,348,o),
(237,329,o),
(200,329,cs),
(160,329,o),
(138,352,o),
(138,386,cs),
(138,453,o),
(223,502,o),
(374,532,c),
(380,543,l),
(337,600,l),
(-10,600,l),
(33,526,l),
(226,526,l),
(219,555,l),
(136,533,o),
(73,485,o),
(73,414,cs),
(73,346,o),
(132,296,o),
(186,262,c),
(189,291,l),
(145,267,o),
(123,227,o),
(123,179,cs),
(123,83,o),
(220,0,o),
(329,0,cs),
(496,0,o),
(525,144,o),
(567,366,cs),
(591,494,o),
(607,524,o),
(634,524,cs),
(669,524,o),
(701,476,o),
(701,397,cs),
(701,330,o),
(669,169,o),
(641,43,c),
(706,-3,l)
);
}
);
width = 917;
},
{
anchors = (
{
name = bottom;
pos = (813,-15);
},
{
name = nukta;
pos = (485,613);
},
{
name = rakar;
pos = (416,-20);
},
{
name = top;
pos = (1187,918);
}
);
layerId = "A430B39A-257A-41FC-BEA9-652C696FFEF7";
shapes = (
{
closed = 1;
nodes = (
(783,-12,l),
(877,422,ls),
(903,542,o),
(926,656,o),
(977,728,cs),
(1009,773,o),
(1051,801,o),
(1114,801,cs),
(1180,801,o),
(1243,771,o),
(1285,727,c),
(1298,732,l),
(1282,829,l),
(1217,888,o),
(1146,918,o),
(1068,918,cs),
(998,918,o),
(939,891,o),
(895,835,cs),
(842,767,o),
(810,665,o),
(773,490,c),
(793,494,l),
(757,574,o),
(696,624,o),
(638,624,cs),
(568,624,o),
(537,549,o),
(510,410,cs),
(470,206,o),
(438,80,o),
(314,80,cs),
(268,80,o),
(243,106,o),
(243,141,cs),
(243,202,o),
(322,240,o),
(416,254,c),
(423,266,l),
(414,292,o),
(382,345,o),
(355,371,c),
(309,366,o),
(243,339,o),
(209,339,cs),
(187,339,o),
(170,350,o),
(170,377,cs),
(170,434,o),
(268,490,o),
(420,514,c),
(428,530,l),
(366,613,l),
(-25,613,l),
(26,509,l),
(179,509,l),
(172,534,l),
(100,510,o),
(68,458,o),
(68,411,cs),
(68,344,o),
(123,301,o),
(193,257,c),
(189,287,l),
(153,260,o),
(130,221,o),
(130,173,cs),
(130,74,o),
(231,-15,o),
(356,-15,cs),
(546,-15,o),
(582,124,o),
(624,342,cs),
(646,455,o),
(658,499,o),
(686,499,cs),
(709,499,o),
(734,468,o),
(734,406,cs),
(734,325,o),
(707,188,o),
(674,40,c),
(758,-17,l)
);
}
);
width = 991;
}
);
metricLeft = "gha-khoj";
metricRight = "ja_iMatra-khoj";
script = khoj;
},
{
glyphname = "gha_iiMatra-khoj";
kernLeft = HA;
kernRight = LII;
lastChange = "2023-06-05 09:48:09 +0000";
layers = (
{
anchors = (
{
name = bottom;
pos = (757,0);
},
{
name = nukta;
pos = (459,600);
},
{
name = rakar;
pos = (377,0);
},
{
name = top;
pos = (1027,656);
}
);
layerId = "0717401B-DDB5-4983-85F2-A81AFE530D5E";
shapes = (
{
closed = 1;
nodes = (
(1170,-240,o),
(1207,-221,o),
(1209,-187,cs),
(1211,-154,o),
(1179,-129,o),
(1147,-114,c),
(1137,-138,o),
(1105,-158,o),
(1068,-158,cs),
(1022,-158,o),
(1004,-127,o),
(1004,-46,cs),
(1004,85,o),
(1052,252,o),
(1052,384,cs),
(1052,524,o),
(994,661,o),
(910,661,cs),
(870,661,o),
(837,629,o),
(798,549,cs),
(760,471,o),
(739,391,o),
(732,367,c),
(762,425,l),
(727,541,o),
(658,603,o),
(600,603,cs),
(542,603,o),
(516,552,o),
(491,418,cs),
(452,211,o),
(434,69,o),
(296,69,cs),
(236,69,o),
(196,102,o),
(196,155,cs),
(196,230,o),
(282,263,o),
(363,277,c),
(366,284,l),
(358,303,o),
(341,331,o),
(322,352,c),
(283,348,o),
(237,329,o),
(200,329,cs),
(160,329,o),
(138,352,o),
(138,386,cs),
(138,453,o),
(223,502,o),
(374,532,c),
(380,543,l),
(337,600,l),
(-10,600,l),
(33,526,l),
(226,526,l),
(219,555,l),
(136,533,o),
(73,485,o),
(73,414,cs),
(73,346,o),
(132,296,o),
(186,262,c),
(189,291,l),
(145,267,o),
(123,227,o),
(123,179,cs),
(123,83,o),
(220,0,o),
(329,0,cs),
(496,0,o),
(525,144,o),
(567,366,cs),
(591,494,o),
(607,524,o),
(634,524,cs),
(669,524,o),
(701,476,o),
(701,397,cs),
(701,330,o),
(669,169,o),
(642,46,c),
(701,-2,l),
(715,0,l),
(751,138,o),
(782,264,o),
(823,380,cs),
(866,503,o),
(905,578,o),
(939,578,cs),
(967,578,o),
(975,527,o),
(975,479,cs),
(975,355,o),
(922,145,o),
(922,26,cs),
(922,-124,o),
(1006,-240,o),
(1123,-240,cs)
);
}
);
width = 1139;
},
{
anchors = (
{
name = bottom;
pos = (813,-15);
},
{
name = nukta;
pos = (485,613);
},
{
name = rakar;
pos = (416,-20);
},
{
name = top;
pos = (1112,656);
}
);
layerId = "A430B39A-257A-41FC-BEA9-652C696FFEF7";
shapes = (
{
closed = 1;
nodes = (
(1262,-262,o),
(1306,-234,o),
(1307,-189,cs),
(1308,-152,o),
(1274,-122,o),
(1235,-101,c),
(1218,-135,o),
(1185,-157,o),
(1148,-157,cs),
(1110,-157,o),
(1089,-136,o),
(1089,-69,cs),
(1089,61,o),
(1136,245,o),
(1136,374,cs),
(1136,539,o),
(1045,683,o),
(953,683,cs),
(911,683,o),
(882,659,o),
(858,624,cs),
(828,580,o),
(801,515,o),
(781,450,c),
(807,457,l),
(759,576,o),
(697,624,o),
(638,624,cs),
(568,624,o),
(537,549,o),
(510,410,cs),
(470,206,o),
(438,80,o),
(314,80,cs),
(268,80,o),
(243,106,o),
(243,141,cs),
(243,202,o),
(322,240,o),
(416,254,c),
(423,266,l),
(414,292,o),
(382,345,o),
(355,371,c),
(309,366,o),
(243,339,o),
(209,339,cs),
(187,339,o),
(170,350,o),
(170,377,cs),
(170,434,o),
(268,490,o),
(420,514,c),
(428,530,l),
(366,613,l),
(-25,613,l),
(26,509,l),
(179,509,l),
(172,534,l),
(100,510,o),
(68,458,o),
(68,411,cs),
(68,344,o),
(123,301,o),
(193,257,c),
(189,287,l),
(153,260,o),
(130,221,o),
(130,173,cs),
(130,74,o),
(231,-15,o),
(356,-15,cs),
(546,-15,o),
(582,124,o),
(624,342,cs),
(646,455,o),
(658,499,o),
(686,499,cs),
(709,499,o),
(734,468,o),
(734,406,cs),
(734,325,o),
(707,188,o),
(674,43,c),
(758,-17,l),
(783,-12,l),
(813,114,o),
(841,221,o),
(874,332,cs),
(907,441,o),
(946,556,o),
(985,556,cs),
(1002,556,o),
(1013,537,o),
(1013,496,cs),
(1013,369,o),
(966,144,o),
(966,33,cs),
(966,-119,o),
(1059,-262,o),
(1205,-262,cs)
);
}
);
width = 1221;
}
);
metricLeft = "gha-khoj";
metricRight = "ja_iiMatra-khoj";
script = khoj;
},
